<svg xmlns="http://www.w3.org/2000/svg" viewBox="0 0 157.1 162.6"><defs><style>.cls-1{fill:#6455a4;}.cls-2{fill:#2b296f;}</style></defs><g id="Layer_2" data-name="Layer 2"><g id="Layer_1-2" data-name="Layer 1"><path class="cls-1" d="M31.83,53.54a17,17,0,0,1,17-16.95h86.56a16.76,16.76,0,0,1,3.26.32,17,17,0,0,0-16.94-16.68H35.1a17,17,0,0,0-17,17v86.56a17,17,0,0,0,13.7,16.63c0-.09,0-.18,0-.27Z"/><path class="cls-2" d="M13.68,33.31a17,17,0,0,1,17-17h86.55a16.61,16.61,0,0,1,3.26.32A17,17,0,0,0,103.51,0H17A17,17,0,0,0,0,17v86.56a17,17,0,0,0,13.7,16.64c0-.1,0-.19,0-.28Z"/><rect class="cls-2" x="36.64" y="42.14" width="120.47" height="120.47" rx="16.95"/></g></g></svg>