<svg xmlns="http://www.w3.org/2000/svg" viewBox="0 0 935.57 742.72"><defs><style>.cls-1{fill:#b0afd8;}.cls-2{fill:#ecf3f9;}.cls-3{fill:#4bb89e;}.cls-4{fill:#80c7b8;}.cls-5{fill:#a36e4f;}.cls-6{fill:#7a4d35;}.cls-7{fill:#dfe7f4;}.cls-8{fill:#fff;}.cls-9{fill:#7485a1;}.cls-10{fill:#8398b6;}.cls-11{fill:#252626;}.cls-12{fill:#0f1011;}.cls-13{fill:#d85150;}.cls-14{fill:#6455a4;}.cls-15{fill:#2b296f;}.cls-16{fill:#ebedf1;}.cls-17{fill:#f3ae84;}.cls-18{fill:#f1997a;}.cls-19{fill:#c9c9c9;}.cls-20{fill:#bec7d4;}.cls-21{fill:#e8685b;}.cls-22{fill:#010101;}.cls-23{fill:#d8e0ec;}.cls-24{fill:#ee8771;}.cls-25{fill:#f6bb97;}.cls-26{fill:#d64341;}.cls-27{fill:#f8cbaf;}.cls-28{fill:#1c1d1d;}.cls-29{fill:#bd865e;}.cls-30{fill:#925f41;}.cls-31{fill:#d49d80;}</style></defs><g id="Layer_2" data-name="Layer 2"><g id="Layer_1-2" data-name="Layer 1"><path class="cls-1" d="M401.83,117.29a22.46,22.46,0,0,0-7.25-4.85,22.31,22.31,0,1,0,12.1,29.18,22.29,22.29,0,0,0-4.85-24.33Z"/><path class="cls-1" d="M135.83,335h-2.38v7.33h1.72a5.66,5.66,0,0,0,3.61-1,3.29,3.29,0,0,0,1.2-2.77,3.43,3.43,0,0,0-1-2.72A4.74,4.74,0,0,0,135.83,335Z"/><path class="cls-1" d="M437.75,113.8a1.76,1.76,0,0,0,.27-.55,1.64,1.64,0,0,0,0-.62,1.37,1.37,0,0,0-.19-.57c-2.44-4.22-5.08-9.37-7.72-13.36a1.55,1.55,0,0,0-.39-.45,1.68,1.68,0,0,0-1.16-.32,1.7,1.7,0,0,0-.53.16c-3.54,2.18-7.34,4.24-10.95,6.33a2.57,2.57,0,0,1-3.08-.37A40.37,40.37,0,0,0,401.83,96a38.73,38.73,0,0,0-4.53-1.61,2.64,2.64,0,0,1-1.43-.92,2.53,2.53,0,0,1-.55-1.59V79.25a1.58,1.58,0,0,0-.46-1.1,1.75,1.75,0,0,0-.51-.34,1.45,1.45,0,0,0-.59-.12H378.32a1.45,1.45,0,0,0-.59.12,1.58,1.58,0,0,0-.5.34,1.6,1.6,0,0,0-.35.51,1.63,1.63,0,0,0-.11.59V91.83a2.59,2.59,0,0,1-1.87,2.48,38.65,38.65,0,0,0-4.61,1.63,39.91,39.91,0,0,0-4.39,2.19,40.57,40.57,0,0,0-4.08,2.7,43.33,43.33,0,0,0-3.74,3.18,2.57,2.57,0,0,1-3.1.41l-10.9-6.29a1.45,1.45,0,0,0-.57-.2,1.65,1.65,0,0,0-.62,0,1.42,1.42,0,0,0-.55.27,1.61,1.61,0,0,0-.41.45c-2.44,4.21-5.08,9.45-7.71,13.36a1.54,1.54,0,0,0-.19.57,1.45,1.45,0,0,0,.05.62,1.52,1.52,0,0,0,.26.56,1.41,1.41,0,0,0,.45.39l10.79,6.23a2.69,2.69,0,0,1,1.16,1.2,2.56,2.56,0,0,1,.16,1.71c-.2.79-.37,1.59-.51,2.38s-.27,1.58-.37,2.44-.18,1.64-.23,2.44-.07,1.62-.07,2.47,0,1.69.07,2.48.13,1.62.23,2.45.22,1.65.37,2.43.31,1.59.51,2.39l.29,1.15-.29.06a2.8,2.8,0,0,1-.13.41,2.57,2.57,0,0,1-1.09,1.22L334.78,152a1.44,1.44,0,0,0-.45.4,1.55,1.55,0,0,0-.26.55,1.53,1.53,0,0,0,.14,1.19c2.56,4.46,5.16,8.9,7.71,13.36a1.65,1.65,0,0,0,.41.46,1.55,1.55,0,0,0,.55.26,1.53,1.53,0,0,0,1.19-.14l10.77-6.21a2.56,2.56,0,0,1,3.2.29,42.72,42.72,0,0,0,3.75,3.2,41.51,41.51,0,0,0,4.1,2.71,39.4,39.4,0,0,0,4.36,2.18,40.71,40.71,0,0,0,4.53,1.62,2.59,2.59,0,0,1,2,2.51V186.9a1.63,1.63,0,0,0,.11.59,1.75,1.75,0,0,0,.34.51,1.43,1.43,0,0,0,.51.34,1.45,1.45,0,0,0,.59.12h15.44a1.45,1.45,0,0,0,.59-.12,1.43,1.43,0,0,0,.51-.34,1.75,1.75,0,0,0,.34-.51,1.45,1.45,0,0,0,.12-.59V174.33a2.56,2.56,0,0,1,1.87-2.48,40.54,40.54,0,0,0,4.61-1.64,38.21,38.21,0,0,0,4.39-2.19,41.51,41.51,0,0,0,4.1-2.71,42.72,42.72,0,0,0,3.75-3.2h0a2.58,2.58,0,0,1,3.07-.36c3.56,2,7.46,4.12,10.91,6.29a1.49,1.49,0,0,0,.56.19,1.44,1.44,0,0,0,.62-.05,1.68,1.68,0,0,0,.56-.26,1.59,1.59,0,0,0,.39-.46l.58-1h0l7.13-12.37a1.33,1.33,0,0,0,.19-.57,1.64,1.64,0,0,0,0-.62,1.76,1.76,0,0,0-.27-.55,1.62,1.62,0,0,0-.46-.4l-1.14-.66h0l-9.63-5.57a2.54,2.54,0,0,1-1.33-2.9c.2-.8.37-1.6.52-2.4s.26-1.58.36-2.42.18-1.64.23-2.45.07-1.61.07-2.48,0-1.68-.07-2.47-.13-1.62-.23-2.45-.22-1.65-.36-2.42-.32-1.6-.52-2.39l-.25-1,.22-.07a3.08,3.08,0,0,1,.16-.54,2.62,2.62,0,0,1,1.09-1.22c3.45-2,7.63-4.14,10.88-6.29A1.48,1.48,0,0,0,437.75,113.8Zm-29,28.68a24.62,24.62,0,0,1-13.34,13.33,24.59,24.59,0,0,1-18.81,0,24.59,24.59,0,1,1,32.15-13.33Z"/><path class="cls-1" d="M184,335h-2.38v7.33h1.72a5.71,5.71,0,0,0,3.62-1,3.32,3.32,0,0,0,1.2-2.77,3.43,3.43,0,0,0-1-2.72A4.7,4.7,0,0,0,184,335Z"/><path class="cls-1" d="M483.16,105.53a11.37,11.37,0,1,0,8,3.33A11.33,11.33,0,0,0,483.16,105.53Z"/><path class="cls-1" d="M836.45,126.87a17.77,17.77,0,1,0-17.77-17.76A17.76,17.76,0,0,0,836.45,126.87Z"/><path class="cls-1" d="M144.75,46.36a23.18,23.18,0,1,0-23.18-23.18A23.18,23.18,0,0,0,144.75,46.36Z"/><path class="cls-1" d="M286.72,663.72A13.7,13.7,0,0,0,277,640.34l-.54,0v22.42c0,1.14-.06,2.27-.17,3.38,0,.37-.1.72-.15,1.09,0,.14,0,.28-.05.42.3,0,.6.05.91.05A13.64,13.64,0,0,0,286.72,663.72Z"/><path class="cls-1" d="M785.19,437.72h0a63.58,63.58,0,0,1,0-127.16h7.57a66.11,66.11,0,0,0,0-132.22H769.54a25.74,25.74,0,0,1,0-51.47H786.6a17.77,17.77,0,1,0,0-35.53H671.93a27.91,27.91,0,1,1,0-55.82h34.29a17.76,17.76,0,0,0,0-35.52H204.06a23.18,23.18,0,0,0,0,46.36h35.16a36.52,36.52,0,0,1,36.42,36.41h0a36.53,36.53,0,0,1-36.42,36.41h-136a23.18,23.18,0,1,0,0,46.36h22.25A33.5,33.5,0,0,1,147.88,224H233.1a7.59,7.59,0,0,1,7,4.71,7.58,7.58,0,0,1,4.5,6.9V310a7.6,7.6,0,0,1-7.58,7.58H90.94a7.61,7.61,0,0,1-7-4.71,7.59,7.59,0,0,1-4.5-6.9V234.19C39.44,241.64,8.9,276.9,8.9,319a86.51,86.51,0,0,0,86.26,86.26H105a83,83,0,1,1,0,165.94H83.65a83.66,83.66,0,0,0,0,167.32H197.9a12.51,12.51,0,0,1-3.21-8.36H180.48a16.06,16.06,0,1,1,0-32.11h30.27a4.7,4.7,0,0,1,0-9.4h6.7a35.09,35.09,0,0,1-11.4-25.83V626.08a3.13,3.13,0,0,1,3.12-3.12h64.21a3.12,3.12,0,0,1,3.12,3.12v5.52l.54,0a22.46,22.46,0,0,1,0,44.91,21.65,21.65,0,0,1-3.23-.26c-.1.25-.21.48-.32.72-.27.62-.57,1.22-.88,1.82-.18.36-.36.72-.55,1.06l-.17.34c-.19.33-.42.63-.62,1-.36.58-.71,1.16-1.1,1.72-.29.41-.6.81-.91,1.21s-.81,1.05-1.24,1.56-.68.76-1,1.13-.9,1-1.37,1.41c-.16.15-.3.32-.46.46h6.64a4.7,4.7,0,0,1,0,9.4H300a9.68,9.68,0,0,1,9.38-7.47h29.23a10.88,10.88,0,0,1-5.09-7.45L308,514a7.57,7.57,0,0,1,7.65-9H368.9c.86-4.4,1.79-9,2.74-13.69h0l-1.72-.2-.44-.05-3.33-.39-.69-.08-3.16-.41-.94-.12-3-.4-1.23-.18-2.76-.4-1.47-.22-2.58-.39-1.68-.27-2.42-.39-1.9-.32-2.24-.38-2.1-.37-2.07-.38c-.76-.13-1.53-.27-2.29-.42l-1.92-.36-2.44-.47-1.79-.36-2.59-.53-1.64-.34-2.72-.58L321,483l-2.8-.62-1.46-.34-2.86-.67c-.46-.1-.92-.22-1.37-.33l-2.93-.71-1.29-.33-2.95-.76c-.42-.1-.83-.22-1.25-.33l-3-.79L300,477.8,297,477l-1.18-.35-2.9-.86-1.18-.36c-.95-.29-1.9-.58-2.83-.88l-1.15-.37-2.78-.91-1.13-.39-2.72-.93-1.11-.41-2.63-.95-1.12-.43c-.84-.32-1.69-.64-2.52-1l-1.12-.45-2.4-1-1.15-.5c-.76-.33-1.51-.65-2.24-1l-1.18-.54c-.7-.32-1.41-.64-2.09-1l-1.18-.58c-.66-.32-1.32-.64-1.95-1l-1.2-.64c-.6-.31-1.2-.62-1.77-.94l-1.29-.74-1.53-.89c-.48-.29-.94-.58-1.4-.88s-.85-.51-1.25-.78c-.85-.56-1.68-1.12-2.47-1.69s-1.61-1.46-2.36-2.23l-.54-.56c-.72-.77-1.41-1.55-2-2.37l-.15-.2c-.59-.78-1.15-1.58-1.68-2.39l-.39-.63c-.54-.88-1.06-1.77-1.52-2.69l-.18-.37c-.41-.84-.79-1.69-1.14-2.56l-.27-.68c-.37-1-.72-2-1-3-.05-.17-.09-.34-.14-.51-.26-.91-.49-1.83-.7-2.76-.05-.23-.11-.46-.16-.69-.22-1.06-.41-2.14-.56-3.24,0-.2-.06-.41-.08-.62-.13-1-.24-2-.32-3,0-.22,0-.44-.05-.66-.08-1.14-.14-2.31-.16-3.48v-.72c0-1.05,0-2.12,0-3.2,0-.2,0-.39,0-.58,0-1.23.12-2.46.23-3.71l.06-.78c.11-1.15.23-2.31.37-3.48l.06-.45c.16-1.29.36-2.6.57-3.91,0-.28.09-.55.14-.82.21-1.26.44-2.52.7-3.8,0-.08,0-.16,0-.24.27-1.36.58-2.72.89-4.1,0-.12,0-.25.08-.38v0c9.18-39.42,35.68-86.13,47.88-114.66.78-1.84,3.78-2.11,6.74-2.27.13-.22.25-.45.4-.67a22.65,22.65,0,0,1-1.6-4.43,18.79,18.79,0,0,1-.61-5c0-1,.11-2,.23-3l.06-.52q.21-1.49.51-3c0-.16.08-.33.11-.49.21-1,.44-1.95.7-2.94l.06-.27c.28-1.06.58-2.14.89-3.23l1-3.58h0a98,98,0,0,0,2.82-12c.32-2.07.72-16.11.69-21.77s5-7.79,6.17-6.59,2,12.55,3,17.91,4,6.1,5.46,4.71S322.15,208,324,204s6.33-2.94,6.92-.71-5.43,30.42-5.63,32.88,2.19,5,4.36,2.21,11.2-27.52,13.76-30.7,6.95-2,7.66.36-9.15,26.47-10.77,30.91-.3,5.71.75,5.61,7.09-6.82,12.4-12.84,9.16-11.06,11-11,5.23,3.79,2.53,7.22-27.42,34.86-26.59,37.74S348,268,348,268c8.6-4.11,13.18.8,14.2,4.69h0c.06.22.1.44.14.66,0,.05,0,.11,0,.16a5,5,0,0,1,.05.53s0,.08,0,.12a5.49,5.49,0,0,1,0,.58s0,.06,0,.09-.05.29-.08.42a.93.93,0,0,0,0,.13,2.57,2.57,0,0,1-.16.37l0,.06a1.64,1.64,0,0,1-.26.33l-.07.06a1.4,1.4,0,0,1-.26.16l-.11,0a1.3,1.3,0,0,1-.41.09,36.3,36.3,0,0,0-18.45,6.51c-.75.54-1.48,1.09-2.2,1.64l-.65.51-1.53,1.23-.62.5-1.91,1.59-1.45,1.19-.86.7c-.47.37-.94.74-1.41,1.09l-.7.52q-.62.45-1.23.87c-.24.16-.49.33-.74.48-.44.29-.9.56-1.36.82l-.6.34-.17.1a5.25,5.25,0,0,1-.19,2.59c-4.89,15-9.57,33.94-13.09,43.62-27.06,74.49-18.75,78,39.71,73.58,23.48-1.77,46.31-1.86,90.62-8.58.18-1.36.3-2.23.3-2.23l6.8-6.18-.1-11.29a69.23,69.23,0,0,1-11.55-10.53A44.1,44.1,0,0,1,420.3,378h-.06a36.32,36.32,0,0,1-5.07-1l-.1,0a37.8,37.8,0,0,1-11.5-5.26l0,0a42.65,42.65,0,0,1-4-3.08l0,0A47.94,47.94,0,0,1,394,363.1h0q-1.66-2-3.17-4.14l-.08-.12c-1-1.42-1.92-2.9-2.79-4.43l-.08-.13q-1.31-2.31-2.46-4.74v0c-.37-.78-.72-1.57-1.07-2.37a1.67,1.67,0,0,0-.08-.2c-.68-1.62-1.31-3.26-1.88-4.94l-.09-.26q-.84-2.5-1.52-5.07a1.6,1.6,0,0,0-.05-.21c-.21-.82-.41-1.64-.6-2.47l0-.12c-.38-1.73-.71-3.48-1-5.23l0-.22c-.26-1.74-.46-3.48-.6-5.2,0-.07,0-.14,0-.21-.13-1.75-.21-3.49-.21-5.21v-.05q0-1.31,0-2.58v0c0-.87.08-1.73.14-2.59h0a54.36,54.36,0,0,1,2.1-11.82c.07-.21.16-.42.24-.63.5-1.4,1-2.8,1.57-4.2.23-.59.47-1.19.71-1.78.42-1.05.85-2.09,1.3-3.14q.41-1,.84-2c.48-1.09,1-2.19,1.49-3.29.24-.53.48-1.07.73-1.6l.06-.13h0c1.63-3.45,3.43-6.89,5.3-10.3l0,0c.49-.91,1-1.8,1.54-2.7.64-1.16,1.29-2.31,2-3.45l1-1.59q1.37-2.25,2.79-4.49c.4-.63.8-1.25,1.21-1.87q1.43-2.18,2.91-4.32c.38-.56.76-1.12,1.15-1.67,1.26-1.78,2.54-3.55,3.86-5.3l.3-.42h0c24.62-32.63,59.39-59.35,97.4-66.48v0q1.92-.36,3.84-.66l1.45-.19c.8-.11,1.6-.23,2.4-.32v0c2.8-.32,5.61-.58,8.43-.68,19.67-.69,42.86,31,44.41,36,1.11,3.61.08,13-1.24,18.93,1.87,2.08,3.76,4.4,5.65,6.89h0l.42.58c.62.84,1.24,1.69,1.86,2.57.24.33.47.67.71,1,.64.93,1.28,1.88,1.92,2.86l.56.85c1.65,2.57,3.27,5.27,4.81,8.05.11.19.21.38.31.57.65,1.19,1.29,2.38,1.91,3.6l.54,1.08c.54,1.07,1.06,2.15,1.57,3.24L587,267c.51,1.11,1,2.24,1.48,3.37.15.34.3.69.44,1,.59,1.4,1.14,2.81,1.67,4.23,0,.06,0,.12.07.19.58,1.55,1.11,3.1,1.61,4.66,0,.11.07.22.1.33.44,1.38.84,2.75,1.22,4.12.1.37.19.73.28,1.1.29,1.13.57,2.26.81,3.38.1.42.18.84.27,1.26.22,1.11.42,2.2.6,3.3l.18,1.16c.18,1.26.32,2.5.43,3.74,0,.2.05.4.07.6.11,1.48.18,2.95.19,4.39V304c0,1.32,0,2.62-.15,3.91,0,.36-.07.71-.11,1.07-.09,1-.21,2-.37,2.91,0,.2,0,.4-.08.59h0c-1.59,8.76-5.88,16.32-14,21.48a20.08,20.08,0,0,1-22.79,16.91c-.68-.11-1.35-.24-2-.41a69,69,0,0,1-42.8,44.64l0,4,.09-1.94,6,3.35s.19,1.11.48,2.84c28.56,7.07,63.48,16.09,67.45,18.85l0-.26.16.08h0c1.37.68,11.35,5.93,22.39,18.83,4.76,5.56,20,30.8,35.06,64.13h3a7.57,7.57,0,0,1,7.64,9l-1.77,11.76c8.49,21.05,16.18,44.07,20.95,66.79,2.77,13.19-13.95,61.13-45.16,92.48a11.13,11.13,0,0,1-4.56,5.48h29.23a9.67,9.67,0,0,1,9.38,7.47h47.5l-6.47-28.4,0,0a2.86,2.86,0,0,1-2.55-2.83v-13a2.87,2.87,0,0,1,2.87-2.86h2.1c-2.44-8.47-2.48-15.52-.92-21.13-16.5-7.06-2-24.49,7.5-11.67a22.35,22.35,0,0,1,14-4.88h0a22.16,22.16,0,0,1,16,6.7c17-16.39,31.75,12.89,6.53,16.33a44.75,44.75,0,0,1-1.93,14.65h2.1a2.86,2.86,0,0,1,2.86,2.86v13a2.85,2.85,0,0,1-2.54,2.83l0,0L745.16,698H785.3a16.06,16.06,0,1,1,0,32.11H771.09a12.51,12.51,0,0,1-3.21,8.36h17.31c82.71,0,150.38-67.67,150.38-150.39S867.9,437.72,785.19,437.72Zm-584.91-283a1.88,1.88,0,0,1-1.88,1.88h-5.64a1.88,1.88,0,0,1-1.87-1.88v-5.64a1.88,1.88,0,0,1,1.87-1.88h5.64a1.88,1.88,0,0,1,1.88,1.88Zm5.94,42.94a2.38,2.38,0,1,1,2.37-2.38A2.39,2.39,0,0,1,206.22,197.67Zm13.33-42.94a1.89,1.89,0,0,1-1.88,1.88H212a1.88,1.88,0,0,1-1.88-1.88v-5.64a1.88,1.88,0,0,1,1.88-1.88h5.64a1.88,1.88,0,0,1,1.88,1.88Zm19.26,0a1.88,1.88,0,0,1-1.88,1.88h-5.64a1.89,1.89,0,0,1-1.88-1.88v-5.64a1.88,1.88,0,0,1,1.88-1.88h5.64a1.88,1.88,0,0,1,1.88,1.88ZM54.6,335.5A2.38,2.38,0,1,1,57,333.12,2.38,2.38,0,0,1,54.6,335.5ZM71.45,624.79a2.38,2.38,0,1,1-2.38,2.37A2.37,2.37,0,0,1,71.45,624.79Zm4.78,56.76a1.88,1.88,0,0,1-1.88,1.88H68.72a1.88,1.88,0,0,1-1.88-1.88V675.9A1.88,1.88,0,0,1,68.72,674h5.63a1.88,1.88,0,0,1,1.88,1.87Zm19.27,0a1.89,1.89,0,0,1-1.88,1.88H88a1.89,1.89,0,0,1-1.88-1.88V675.9A1.88,1.88,0,0,1,88,674h5.64a1.88,1.88,0,0,1,1.88,1.87Zm19.26,0a1.88,1.88,0,0,1-1.88,1.88h-5.64a1.89,1.89,0,0,1-1.88-1.88V675.9a1.88,1.88,0,0,1,1.88-1.87h5.64a1.88,1.88,0,0,1,1.88,1.87Zm19.27,0a1.89,1.89,0,0,1-1.88,1.88h-5.64a1.89,1.89,0,0,1-1.88-1.88V675.9a1.88,1.88,0,0,1,1.88-1.87h5.64A1.88,1.88,0,0,1,134,675.9Zm-4.39-50.69a5.23,5.23,0,1,1,5.23-5.23A5.24,5.24,0,0,1,129.64,630.86ZM232.25,493.08a2.38,2.38,0,1,1-2.38,2.38A2.39,2.39,0,0,1,232.25,493.08ZM213,347.9l11.55-4.74L213,337.8v-4.05l16.77,8.37v2.42L213,351.94Zm-9.9-17.57a8.52,8.52,0,0,1,5.53,1.67,5.44,5.44,0,0,1,2,4.45,6,6,0,0,1-.84,3.21,12,12,0,0,1-3.21,3,10.18,10.18,0,0,0-2.05,1.83,2.8,2.8,0,0,0-.43,1.63v1h-4.47v-1.25a5.56,5.56,0,0,1,.69-2.82,9,9,0,0,1,2.53-2.55,10.89,10.89,0,0,0,2.34-2.05,3,3,0,0,0,.57-1.78,2,2,0,0,0-.81-1.67,3.93,3.93,0,0,0-2.27-.57,13,13,0,0,0-5.77,1.65l-1.84-3.69A16,16,0,0,1,203.08,330.33ZM205,352.94a2.84,2.84,0,0,1-.77,2.1,3.49,3.49,0,0,1-4.35,0,3.33,3.33,0,0,1,0-4.26,3,3,0,0,1,2.2-.73,3,3,0,0,1,2.18.75A2.81,2.81,0,0,1,205,352.94ZM107.14,337.8l-11.56,5.36,11.56,4.74v4l-16.77-7.4v-2.42l16.77-8.37ZM117.87,355a2.92,2.92,0,0,1-2.17.77,3,3,0,0,1-2.19-.75,2.84,2.84,0,0,1-.77-2.12,2.81,2.81,0,0,1,.76-2.14,3.61,3.61,0,0,1,4.38,0,2.81,2.81,0,0,1,.76,2.12A2.84,2.84,0,0,1,117.87,355Zm5.57-15.38a12,12,0,0,1-3.21,3,10.18,10.18,0,0,0-2,1.83,2.8,2.8,0,0,0-.43,1.63v1h-4.47v-1.25a5.56,5.56,0,0,1,.69-2.82,9,9,0,0,1,2.53-2.55,10.89,10.89,0,0,0,2.34-2.05,3.06,3.06,0,0,0,.56-1.78,1.93,1.93,0,0,0-.81-1.67,3.87,3.87,0,0,0-2.26-.57,13,13,0,0,0-5.77,1.65l-1.84-3.69a16,16,0,0,1,8-2.11,8.52,8.52,0,0,1,5.53,1.67,5.44,5.44,0,0,1,2,4.45A6,6,0,0,1,123.44,339.66Zm19.34,4.81c-1.66,1.4-4,2.11-7.08,2.11h-2.25v8.78h-5.23V330.67h7.88c3,0,5.27.65,6.84,1.94a7.05,7.05,0,0,1,2.33,5.76A7.54,7.54,0,0,1,142.78,344.47Zm27.37,10.89h-5.21V344.71h-9.78v10.65h-5.23V330.67h5.23v9.69h9.78v-9.69h5.21Zm13.72-8.78h-2.25v8.78h-5.23V330.67h7.88q4.5,0,6.84,1.94a7.05,7.05,0,0,1,2.33,5.76,7.54,7.54,0,0,1-2.49,6.1C189.29,345.87,186.93,346.58,183.87,346.58Zm112,206.21a9.67,9.67,0,0,1,0,19.34H263.09a3.7,3.7,0,0,0,0,7.4H275.7a7.47,7.47,0,0,1,0,14.93H254.85A14.87,14.87,0,0,0,240,609.29v6.8a3.51,3.51,0,1,1-7,0V603.16a8.73,8.73,0,0,0-8.7-8.7H211.19a7.47,7.47,0,0,1,0-14.93H238a3.7,3.7,0,1,0,0-7.4H201.92a9.67,9.67,0,1,1,0-19.34ZM258.08,154.73a1.89,1.89,0,0,1-1.89,1.88h-5.63a1.88,1.88,0,0,1-1.88-1.88v-5.64a1.88,1.88,0,0,1,1.88-1.88h5.63a1.89,1.89,0,0,1,1.89,1.88ZM292,173a5.23,5.23,0,1,1,5.22-5.23A5.24,5.24,0,0,1,292,173Zm45.67,212.25a5.23,5.23,0,1,1,5.23-5.23A5.23,5.23,0,0,1,337.65,385.21Zm20.18-63.49a2.38,2.38,0,1,1,2.38-2.38A2.39,2.39,0,0,1,357.83,321.72ZM465,49a2.38,2.38,0,1,1-2.37,2.38A2.39,2.39,0,0,1,465,49ZM330.26,50.65a2.38,2.38,0,1,1,2.38-2.37A2.38,2.38,0,0,1,330.26,50.65Zm62.79,176.12a2.38,2.38,0,1,1,2.38-2.38A2.38,2.38,0,0,1,393.05,226.77Zm34.6-103h0c.11.49.21,1,.3,1.51.16.87.29,1.73.39,2.57s.18,1.69.24,2.58.08,1.76.08,2.6,0,1.72-.08,2.61-.14,1.75-.24,2.59-.23,1.69-.39,2.56-.34,1.71-.54,2.53a.27.27,0,0,0,0,.2.35.35,0,0,0,.13.14c4,2.14,8.07,4.66,12,6.94l-.14.18.13.15a3.79,3.79,0,0,1,.75,2.84,3.72,3.72,0,0,1-.47,1.42l-8.29,14.36-.16-.09c-.08.08-.17.14-.25.21a4,4,0,0,1-2.84.77,4,4,0,0,1-1.38-.46c-3.63-1.93-7.37-4.25-10.95-6.32a.28.28,0,0,0-.18,0,.3.3,0,0,0-.18.08,43.64,43.64,0,0,1-3.95,3.37,42.17,42.17,0,0,1-4.33,2.87,43.42,43.42,0,0,1-4.63,2.31,41.76,41.76,0,0,1-4.89,1.74.27.27,0,0,0-.15.1.28.28,0,0,0-.07.19V186.9a3.89,3.89,0,0,1-2.37,3.55,3.77,3.77,0,0,1-1.46.29H378.32a3.77,3.77,0,0,1-1.46-.29,3.89,3.89,0,0,1-1.24-.84,3.76,3.76,0,0,1-1.13-2.71V174.33a.29.29,0,0,0-.24-.3l0,0a39.71,39.71,0,0,1-4.85-1.72,40.42,40.42,0,0,1-4.61-2.3,42.17,42.17,0,0,1-4.33-2.87,43.64,43.64,0,0,1-3.95-3.37.31.31,0,0,0-.18-.09.35.35,0,0,0-.2.05L345.2,170a4.14,4.14,0,0,1-1.41.48,4,4,0,0,1-2.85-.77,3.61,3.61,0,0,1-1-1.09c-2.86-4.6-5.57-9.64-8.3-14.36l.15-.09a2.25,2.25,0,0,1-.06-.36,4,4,0,0,1,.09-1.5,4,4,0,0,1,.67-1.34,3.82,3.82,0,0,1,1.12-1l10.89-6.29a.24.24,0,0,0,.12-.14.31.31,0,0,0,0-.19l-.28-1.16h0l-.27-1.36c-.16-.87-.29-1.74-.4-2.57s-.18-1.7-.23-2.59-.08-1.76-.08-2.61,0-1.71.08-2.6.13-1.75.23-2.59.24-1.69.4-2.57.34-1.7.54-2.52a.28.28,0,0,0,0-.2.24.24,0,0,0-.14-.14l-10.88-6.28a3.66,3.66,0,0,1-1.11-1,4,4,0,0,1-.67-1.34,3.93,3.93,0,0,1-.09-1.49,3.74,3.74,0,0,1,.46-1.39c2.59-4.81,5.56-9.65,8.3-14.4l.16.09.25-.21a4,4,0,0,1,1.35-.66,3.74,3.74,0,0,1,1.49-.1,3.78,3.78,0,0,1,1.42.47l.81.46h0l10.1,5.83a.29.29,0,0,0,.2,0,.28.28,0,0,0,.17-.09l0,0a43.06,43.06,0,0,1,8.25-6.22,42.23,42.23,0,0,1,9.52-4,.28.28,0,0,0,.15-.11.27.27,0,0,0,.07-.18V79.25a3.77,3.77,0,0,1,.29-1.46,3.72,3.72,0,0,1,.84-1.25,4.06,4.06,0,0,1,1.24-.84,4,4,0,0,1,1.46-.29h15.44a4,4,0,0,1,1.46.29,4.1,4.1,0,0,1,1.25.84,3.82,3.82,0,0,1,1.12,2.71V91.83a.34.34,0,0,0,.07.19.25.25,0,0,0,.16.1l.05,0a42.28,42.28,0,0,1,4.86,1.72,44.84,44.84,0,0,1,4.6,2.3A42.17,42.17,0,0,1,411.66,99a41,41,0,0,1,3.95,3.38.37.37,0,0,0,.18.08.43.43,0,0,0,.19,0c3.66-2.12,7.33-4.22,11-6.35a3.76,3.76,0,0,1,1.38-.43,3.69,3.69,0,0,1,1.44.11,3.79,3.79,0,0,1,2.33,1.78c2.66,4.3,5.18,9,7.72,13.36a3.72,3.72,0,0,1,.47,1.42,3.79,3.79,0,0,1-.75,2.84,3.86,3.86,0,0,1-1.13,1c-3.5,2.16-7.3,4.22-10.89,6.29a.24.24,0,0,0-.12.14.31.31,0,0,0,0,.19Zm75.45-9.36a20.08,20.08,0,0,1,0,4.9,20.75,20.75,0,0,1-.44,2.4.69.69,0,0,0,.37.79l5.23,3h0a1.32,1.32,0,0,1,.61.8,1.28,1.28,0,0,1-.13,1L505,133.83h0a1.25,1.25,0,0,1-.79.6,1.32,1.32,0,0,1-1-.12l0,0-5.25-3a.68.68,0,0,0-.82.1,20.42,20.42,0,0,1-3.91,2.94,19.64,19.64,0,0,1-4.49,1.91.71.71,0,0,0-.51.67V143a1.31,1.31,0,0,1-.38.93,1.34,1.34,0,0,1-.92.38h-7.48a1.31,1.31,0,0,1-1.31-1.31v-6.09a.7.7,0,0,0-.53-.68,19.83,19.83,0,0,1-4.46-1.9,20.05,20.05,0,0,1-3.9-2.94.7.7,0,0,0-.87-.08l-5.25,3a1.34,1.34,0,0,1-1.79-.48l0,0-3.72-6.44h0a1.32,1.32,0,0,1-.12-1,1.27,1.27,0,0,1,.6-.8l5.28-3a.71.71,0,0,0,.33-.77,20.75,20.75,0,0,1-.44-2.4,20.08,20.08,0,0,1,0-4.9,20.36,20.36,0,0,1,.44-2.4.71.71,0,0,0-.37-.8l-5.24-3a1.27,1.27,0,0,1-.6-.79,1.35,1.35,0,0,1,.12-1l0,0,3.71-6.44h0a1.35,1.35,0,0,1,.8-.61,1.29,1.29,0,0,1,1,.13h0l5.28,3.05a.69.69,0,0,0,.85-.12,20.66,20.66,0,0,1,3.89-2.93,20.06,20.06,0,0,1,4.49-1.9.71.71,0,0,0,.5-.67v-6.1a1.31,1.31,0,0,1,1.31-1.3h7.48a1.3,1.3,0,0,1,.92.38,1.28,1.28,0,0,1,.38.92v6.1a.69.69,0,0,0,.54.67,20.3,20.3,0,0,1,4.46,1.9,20.07,20.07,0,0,1,3.91,3,.69.69,0,0,0,.83.1l5.28-3.05,0,0a1.31,1.31,0,0,1,1.75.5l0,0,3.71,6.44a1.3,1.3,0,0,1,.13,1,1.33,1.33,0,0,1-.61.79l0,0-5.24,3a.69.69,0,0,0-.33.77A20.36,20.36,0,0,1,503.1,114.45Zm37-62.48a5.23,5.23,0,1,1,5.23-5.23A5.23,5.23,0,0,1,540.07,52Zm9.19,73.72a2.38,2.38,0,1,1,2.38-2.37A2.37,2.37,0,0,1,549.26,125.69ZM925.92,604.5a1.67,1.67,0,0,1,0,3.33H861.48a1.67,1.67,0,0,1,0-3.33Zm-59.24-10.25a1.68,1.68,0,0,1-1.67,1.67h-43.4a1.67,1.67,0,0,1,0-3.33H865A1.66,1.66,0,0,1,866.68,594.25Zm-10.95,11.91a1.67,1.67,0,0,1-1.67,1.67h-17.5a1.67,1.67,0,1,1,0-3.33h17.5A1.67,1.67,0,0,1,855.73,606.16ZM860.58,548a1.67,1.67,0,0,1-1.66,1.67h-102a1.67,1.67,0,0,1,0-3.33h102A1.67,1.67,0,0,1,860.58,548ZM702,561a1.67,1.67,0,0,1,0-3.33H804a1.67,1.67,0,0,1,0,3.33Zm37.67,9.42a1.67,1.67,0,0,1-1.66,1.66h-3.88a1.67,1.67,0,0,1,0-3.33H738A1.67,1.67,0,0,1,739.66,570.43ZM700.33,548a1.66,1.66,0,0,1,1.66-1.66h23a1.67,1.67,0,0,1,0,3.33H702A1.66,1.66,0,0,1,700.33,548Zm32.13,0a1.67,1.67,0,0,1,1.66-1.66h14.59a1.67,1.67,0,0,1,0,3.33H734.12A1.67,1.67,0,0,1,732.46,548Zm14.32,20.77h71.83a1.67,1.67,0,0,1,0,3.33H746.78a1.67,1.67,0,1,1,0-3.33Zm16.44-32.68a1.67,1.67,0,0,1,1.66-1.67h17.51a1.67,1.67,0,1,1,0,3.33H764.88A1.67,1.67,0,0,1,763.22,536.08Zm92.69,0a1.67,1.67,0,0,1-1.67,1.66H789.81a1.67,1.67,0,0,1,0-3.33h64.43A1.67,1.67,0,0,1,855.91,536.08Zm-63.15-55.25a2.38,2.38,0,1,1-2.37,2.37A2.38,2.38,0,0,1,792.76,480.83Zm-47.33,39.05H790.2a1.67,1.67,0,0,1,0,3.33H745.43a1.67,1.67,0,0,1,0-3.33ZM724,508.67a1.66,1.66,0,0,1,0,3.32h-2.71a1.66,1.66,0,1,1,0-3.32Zm65.68-302a2.38,2.38,0,1,1-2.38,2.38A2.39,2.39,0,0,1,789.7,206.7ZM625.83,75a2.38,2.38,0,1,1-2.37,2.37A2.38,2.38,0,0,1,625.83,75ZM603.45,201.65,582,223.12a1.4,1.4,0,0,1-2.4-1v-2.74l-.37.38a1.4,1.4,0,0,1-2.4-1v-97.1a12.64,12.64,0,0,1,12.59-12.61h95.41a12.6,12.6,0,0,1,10.92,6.38,12.55,12.55,0,0,1,4.45,9.58v64a12.64,12.64,0,0,1-12.6,12.6Zm13.19,176.73A2.38,2.38,0,1,1,619,376,2.38,2.38,0,0,1,616.64,378.38Zm29.77-76.15a1.88,1.88,0,0,1-1.88,1.87h-5.64a1.88,1.88,0,0,1-1.88-1.87v-5.65a1.88,1.88,0,0,1,1.88-1.87h5.64a1.88,1.88,0,0,1,1.88,1.87ZM635.22,286a23,23,0,1,1,7.27-44.8,22.38,22.38,0,0,1,34.73-9.27,35.6,35.6,0,0,1,60.85-.18A27.57,27.57,0,0,1,769.34,244a17.36,17.36,0,0,1,27,7.2,17.55,17.55,0,0,1,5.64-.92,17.85,17.85,0,1,1,0,35.69H635.22Zm69,10.59v5.65a1.88,1.88,0,0,1-1.88,1.87h-5.64a1.88,1.88,0,0,1-1.88-1.87v-5.65a1.88,1.88,0,0,1,1.88-1.87h5.64A1.88,1.88,0,0,1,704.2,296.58ZM681,435.1a5.23,5.23,0,1,1-5.23,5.23A5.23,5.23,0,0,1,681,435.1Zm-5.43-132.87v-5.65a1.88,1.88,0,0,1,1.88-1.87h5.64a1.88,1.88,0,0,1,1.88,1.87v5.65a1.88,1.88,0,0,1-1.88,1.87h-5.64A1.88,1.88,0,0,1,675.54,302.23Zm-9.87,0a1.88,1.88,0,0,1-1.88,1.87h-5.64a1.88,1.88,0,0,1-1.88-1.87v-5.65a1.88,1.88,0,0,1,1.88-1.87h5.64a1.88,1.88,0,0,1,1.88,1.87ZM670.77,512h-.71a1.66,1.66,0,1,1,0-3.32h42.66a1.66,1.66,0,0,1,0,3.32h-42Zm8.8,9.56a1.67,1.67,0,0,1,1.66-1.67h50.45a1.67,1.67,0,1,1,0,3.33H681.23A1.67,1.67,0,0,1,679.57,521.55Zm14.24,16.19a1.67,1.67,0,0,1,0-3.33h64.44a1.67,1.67,0,0,1,0,3.33ZM702,572.09a1.67,1.67,0,0,1,0-3.33h23a1.67,1.67,0,0,1,0,3.33ZM722.18,584a1.67,1.67,0,1,1,0-3.33H835.09a1.67,1.67,0,1,1,0,3.33Zm15.31,11.92a1.67,1.67,0,0,1,0-3.33h73.39a1.67,1.67,0,1,1,0,3.33Zm26.33,10.24a1.67,1.67,0,0,1,1.67-1.66h64.43a1.67,1.67,0,0,1,0,3.33H765.49A1.67,1.67,0,0,1,763.82,606.16Zm9.84,24.94a1.67,1.67,0,0,1,0-3.33h102a1.67,1.67,0,0,1,0,3.33Zm37.68,9.42a1.68,1.68,0,0,1-1.67,1.66h-3.88a1.67,1.67,0,0,1,0-3.33h3.88A1.68,1.68,0,0,1,811.34,640.52Zm-13.05,0a1.67,1.67,0,0,1-1.67,1.66h-23a1.67,1.67,0,0,1,0-3.33h23A1.67,1.67,0,0,1,798.29,640.52ZM772,618.08a1.67,1.67,0,0,1,1.66-1.66h23a1.67,1.67,0,1,1,0,3.33h-23A1.67,1.67,0,0,1,772,618.08Zm48.38,1.67H805.79a1.67,1.67,0,0,1,0-3.33h14.59a1.67,1.67,0,0,1,0,3.33Zm-57.62,31H875.68a1.67,1.67,0,0,1,0,3.33H762.76a1.67,1.67,0,0,1,0-3.33Zm71.35,50.76a2.38,2.38,0,1,1,2.37-2.38A2.39,2.39,0,0,1,834.11,701.52Zm2-35.52H762.76a1.67,1.67,0,0,1,0-3.33h73.39a1.67,1.67,0,1,1,0,3.33Zm54.13,0h-43.4a1.67,1.67,0,0,1,0-3.33h43.4a1.67,1.67,0,1,1,0,3.33Zm0-23.82H818.45a1.67,1.67,0,1,1,0-3.33h71.83a1.67,1.67,0,1,1,0,3.33Zm40.31-22.43h-102a1.67,1.67,0,0,1,0-3.33h102a1.67,1.67,0,0,1,0,3.33Z"/><path class="cls-2" d="M508.23,108.25l0,0a1.33,1.33,0,0,0,.61-.79,1.3,1.3,0,0,0-.13-1L505,100l0,0a1.31,1.31,0,0,0-1.75-.5l0,0-5.28,3.05a.69.69,0,0,1-.83-.1,20.07,20.07,0,0,0-3.91-3,20.3,20.3,0,0,0-4.46-1.9.69.69,0,0,1-.54-.67v-6.1a1.28,1.28,0,0,0-.38-.92,1.3,1.3,0,0,0-.92-.38h-7.48a1.31,1.31,0,0,0-1.31,1.3v6.1a.71.71,0,0,1-.5.67,20.06,20.06,0,0,0-4.49,1.9,20.66,20.66,0,0,0-3.89,2.93.69.69,0,0,1-.85.12l-5.28-3.05h0a1.29,1.29,0,0,0-1-.13,1.35,1.35,0,0,0-.8.61h0l-3.71,6.44,0,0a1.35,1.35,0,0,0-.12,1,1.27,1.27,0,0,0,.6.79l5.24,3a.71.71,0,0,1,.37.8,20.36,20.36,0,0,0-.44,2.4,20.08,20.08,0,0,0,0,4.9,20.75,20.75,0,0,0,.44,2.4.71.71,0,0,1-.33.77l-5.28,3a1.27,1.27,0,0,0-.6.8,1.32,1.32,0,0,0,.12,1h0l3.72,6.44,0,0a1.34,1.34,0,0,0,1.79.48l5.25-3a.7.7,0,0,1,.87.08,20.05,20.05,0,0,0,3.9,2.94,19.83,19.83,0,0,0,4.46,1.9.7.7,0,0,1,.53.68V143a1.31,1.31,0,0,0,1.31,1.31h7.48a1.34,1.34,0,0,0,.92-.38,1.31,1.31,0,0,0,.38-.93v-6.09a.71.71,0,0,1,.51-.67,19.64,19.64,0,0,0,4.49-1.91,20.42,20.42,0,0,0,3.91-2.94.68.68,0,0,1,.82-.1l5.25,3,0,0a1.32,1.32,0,0,0,1,.12,1.25,1.25,0,0,0,.79-.6h0l3.73-6.48a1.28,1.28,0,0,0,.13-1,1.32,1.32,0,0,0-.61-.8h0l-5.23-3a.69.69,0,0,1-.37-.79,20.75,20.75,0,0,0,.44-2.4,20.08,20.08,0,0,0,0-4.9,20.36,20.36,0,0,0-.44-2.4.69.69,0,0,1,.33-.77Zm-17,16.68a11.36,11.36,0,1,1,3.33-8A11.33,11.33,0,0,1,491.2,124.93Z"/><path class="cls-2" d="M403.44,115.68a24.78,24.78,0,0,0-8-5.34,24.56,24.56,0,0,0-18.8,0,24.6,24.6,0,0,0,0,45.47,24.62,24.62,0,0,0,26.81-5.34,24.59,24.59,0,0,0,0-34.79Zm3.24,25.94A22.32,22.32,0,0,1,386,155.4a22.31,22.31,0,0,1-15.78-38.11,22.34,22.34,0,0,1,36.42,24.33Z"/><path class="cls-2" d="M427.54,122.46c3.59-2.07,7.39-4.13,10.89-6.29a3.86,3.86,0,0,0,1.13-1,3.79,3.79,0,0,0,.75-2.84,3.72,3.72,0,0,0-.47-1.42c-2.54-4.4-5.06-9.06-7.72-13.36a3.79,3.79,0,0,0-2.33-1.78,3.69,3.69,0,0,0-1.44-.11,3.76,3.76,0,0,0-1.38.43c-3.66,2.13-7.33,4.23-11,6.35a.43.43,0,0,1-.19,0,.37.37,0,0,1-.18-.08A41,41,0,0,0,411.66,99a42.17,42.17,0,0,0-4.33-2.87,44.84,44.84,0,0,0-4.6-2.3,42.28,42.28,0,0,0-4.86-1.72l-.05,0a.25.25,0,0,1-.16-.1.34.34,0,0,1-.07-.19V79.25a3.82,3.82,0,0,0-1.12-2.71,4.1,4.1,0,0,0-1.25-.84,4,4,0,0,0-1.46-.29H378.32a4,4,0,0,0-1.46.29,4.06,4.06,0,0,0-1.24.84,3.72,3.72,0,0,0-.84,1.25,3.77,3.77,0,0,0-.29,1.46V91.83a.27.27,0,0,1-.07.18.28.28,0,0,1-.15.11,42.23,42.23,0,0,0-9.52,4,43.06,43.06,0,0,0-8.25,6.22l0,0a.28.28,0,0,1-.17.09.29.29,0,0,1-.2,0L346,96.62h0l-.81-.46a3.78,3.78,0,0,0-1.42-.47,3.74,3.74,0,0,0-1.49.1,4,4,0,0,0-1.35.66l-.25.21-.16-.09c-2.74,4.75-5.71,9.59-8.3,14.4a3.74,3.74,0,0,0-.46,1.39,3.93,3.93,0,0,0,.09,1.49,4,4,0,0,0,.67,1.34,3.66,3.66,0,0,0,1.11,1l10.88,6.28a.24.24,0,0,1,.14.14.28.28,0,0,1,0,.2q-.3,1.23-.54,2.52c-.16.88-.29,1.74-.4,2.57s-.18,1.7-.23,2.59-.08,1.76-.08,2.6,0,1.72.08,2.61.13,1.75.23,2.59.24,1.7.4,2.57l.27,1.36h0l.28,1.16a.31.31,0,0,1,0,.19.24.24,0,0,1-.12.14L333.65,150a3.82,3.82,0,0,0-1.12,1,4,4,0,0,0-.67,1.34,4,4,0,0,0-.09,1.5,2.25,2.25,0,0,0,.06.36l-.15.09c2.73,4.72,5.44,9.76,8.3,14.36a3.61,3.61,0,0,0,1,1.09,4,4,0,0,0,2.85.77,4.14,4.14,0,0,0,1.41-.48l10.89-6.29a.35.35,0,0,1,.2-.05.31.31,0,0,1,.18.09,43.64,43.64,0,0,0,3.95,3.37,42.17,42.17,0,0,0,4.33,2.87,40.42,40.42,0,0,0,4.61,2.3,39.71,39.71,0,0,0,4.85,1.72l0,0a.29.29,0,0,1,.24.3V186.9a3.76,3.76,0,0,0,1.13,2.71,3.89,3.89,0,0,0,1.24.84,3.77,3.77,0,0,0,1.46.29h15.44a3.89,3.89,0,0,0,3.54-2.37,3.82,3.82,0,0,0,.29-1.47V174.33a.28.28,0,0,1,.07-.19.27.27,0,0,1,.15-.1,41.76,41.76,0,0,0,4.89-1.74,43.42,43.42,0,0,0,4.63-2.31,42.17,42.17,0,0,0,4.33-2.87,43.64,43.64,0,0,0,3.95-3.37.3.3,0,0,1,.18-.08.28.28,0,0,1,.18,0c3.58,2.07,7.32,4.39,10.95,6.32a4,4,0,0,0,1.38.46,4,4,0,0,0,2.84-.77c.08-.07.17-.13.25-.21l.16.09,8.29-14.36a3.72,3.72,0,0,0,.47-1.42,3.79,3.79,0,0,0-.75-2.84l-.13-.15.14-.18c-3.95-2.28-8-4.8-12-6.94a.35.35,0,0,1-.13-.14.27.27,0,0,1,0-.2c.2-.82.38-1.66.54-2.53s.29-1.73.39-2.56.18-1.7.24-2.59.08-1.76.08-2.61,0-1.71-.08-2.6-.14-1.75-.24-2.58-.23-1.7-.39-2.57c-.09-.51-.19-1-.3-1.51h0l-.25-1a.31.31,0,0,1,0-.19A.24.24,0,0,1,427.54,122.46Zm-1.13-2a2.62,2.62,0,0,0-1.09,1.22,3.08,3.08,0,0,0-.16.54l-.22.07.25,1c.2.79.37,1.59.52,2.39s.26,1.58.36,2.42.18,1.65.23,2.45.07,1.62.07,2.47,0,1.69-.07,2.48-.13,1.62-.23,2.45-.22,1.65-.36,2.42-.32,1.6-.52,2.4a2.54,2.54,0,0,0,1.33,2.9l9.63,5.57h0l1.14.66a1.62,1.62,0,0,1,.46.4,1.76,1.76,0,0,1,.27.55,1.64,1.64,0,0,1,0,.62,1.33,1.33,0,0,1-.19.57l-7.13,12.37h0l-.58,1a1.59,1.59,0,0,1-.39.46,1.68,1.68,0,0,1-.56.26,1.44,1.44,0,0,1-.62.05A1.49,1.49,0,0,1,428,168c-3.45-2.17-7.35-4.24-10.91-6.29a2.58,2.58,0,0,0-3.07.36h0a42.72,42.72,0,0,1-3.75,3.2,41.51,41.51,0,0,1-4.1,2.71,38.21,38.21,0,0,1-4.39,2.19,40.54,40.54,0,0,1-4.61,1.64,2.56,2.56,0,0,0-1.87,2.48V186.9a1.45,1.45,0,0,1-.12.59,1.75,1.75,0,0,1-.34.51,1.43,1.43,0,0,1-.51.34,1.45,1.45,0,0,1-.59.12H378.32a1.45,1.45,0,0,1-.59-.12,1.43,1.43,0,0,1-.51-.34,1.75,1.75,0,0,1-.34-.51,1.63,1.63,0,0,1-.11-.59V174.33a2.59,2.59,0,0,0-2-2.51,40.71,40.71,0,0,1-4.53-1.62,39.4,39.4,0,0,1-4.36-2.18,41.51,41.51,0,0,1-4.1-2.71,42.72,42.72,0,0,1-3.75-3.2,2.56,2.56,0,0,0-3.2-.29L344.07,168a1.53,1.53,0,0,1-1.19.14,1.55,1.55,0,0,1-.55-.26,1.65,1.65,0,0,1-.41-.46c-2.55-4.46-5.15-8.9-7.71-13.36a1.53,1.53,0,0,1-.14-1.19,1.55,1.55,0,0,1,.26-.55,1.44,1.44,0,0,1,.45-.4l10.89-6.29a2.57,2.57,0,0,0,1.09-1.22,2.8,2.8,0,0,0,.13-.41l.29-.06-.29-1.15c-.2-.8-.37-1.6-.51-2.39s-.27-1.59-.37-2.43-.18-1.64-.23-2.45-.07-1.61-.07-2.48,0-1.68.07-2.47.13-1.62.23-2.44.22-1.67.37-2.44.31-1.59.51-2.38a2.56,2.56,0,0,0-.16-1.71,2.69,2.69,0,0,0-1.16-1.2l-10.79-6.23a1.41,1.41,0,0,1-.45-.39,1.52,1.52,0,0,1-.26-.56,1.45,1.45,0,0,1-.05-.62,1.54,1.54,0,0,1,.19-.57c2.63-3.91,5.27-9.15,7.71-13.36a1.61,1.61,0,0,1,.41-.45,1.42,1.42,0,0,1,.55-.27,1.65,1.65,0,0,1,.62,0,1.45,1.45,0,0,1,.57.2l10.9,6.29a2.57,2.57,0,0,0,3.1-.41,43.33,43.33,0,0,1,3.74-3.18,40.57,40.57,0,0,1,4.08-2.7,39.91,39.91,0,0,1,4.39-2.19,38.65,38.65,0,0,1,4.61-1.63,2.59,2.59,0,0,0,1.87-2.48V79.25a1.63,1.63,0,0,1,.11-.59,1.6,1.6,0,0,1,.35-.51,1.58,1.58,0,0,1,.5-.34,1.45,1.45,0,0,1,.59-.12h15.44a1.45,1.45,0,0,1,.59.12,1.75,1.75,0,0,1,.51.34,1.58,1.58,0,0,1,.46,1.1V91.83a2.53,2.53,0,0,0,.55,1.59,2.64,2.64,0,0,0,1.43.92A38.73,38.73,0,0,1,401.83,96a39.4,39.4,0,0,1,4.36,2.18,40.84,40.84,0,0,1,7.85,5.92,2.57,2.57,0,0,0,3.08.37c3.61-2.09,7.41-4.15,10.95-6.33a1.7,1.7,0,0,1,.53-.16,1.68,1.68,0,0,1,1.16.32,1.55,1.55,0,0,1,.39.45c2.64,4,5.28,9.14,7.72,13.36a1.37,1.37,0,0,1,.19.57,1.64,1.64,0,0,1,0,.62,1.76,1.76,0,0,1-.27.55,1.48,1.48,0,0,1-.46.4C434,116.35,429.86,118.5,426.41,120.49Z"/><path class="cls-3" d="M741,650.92h8.17a44.75,44.75,0,0,0,1.93-14.65c25.22-3.44,10.52-32.72-6.53-16.33a22.16,22.16,0,0,0-16-6.7C737,613.24,745.37,625.81,741,650.92Zm2.2-22.34c.3-1.65,1.55-3.55,3.94-5.38a21,21,0,0,1,2.14-1.45c12.77-7.46,18.42,3.44,4.88,9.67a19.11,19.11,0,0,1-3.45,1.21,8.58,8.58,0,0,1-5.45-.14A3.39,3.39,0,0,1,743.2,628.58Z"/><path class="cls-3" d="M728.54,613.24a22.35,22.35,0,0,0-14,4.88c-9.47-12.82-24,4.61-7.5,11.67-1.56,5.61-1.52,12.66.92,21.13h8.17C711.72,625.81,720.12,613.24,728.54,613.24Zm-16,15.07a7,7,0,0,1-4.58-1.2,14.46,14.46,0,0,1-1.75-1.2c-8.78-7-2.67-14,5.32-6.19.23.22.41.44.61.66,1.92,2.07,2.7,4,2.61,5.43A2.55,2.55,0,0,1,712.5,628.31Z"/><path class="cls-4" d="M716.09,650.92H741c4.37-25.11-4-37.68-12.46-37.68h0C720.12,613.24,711.72,625.81,716.09,650.92Z"/><polygon class="cls-5" points="737.39 698.02 745.16 698.02 751.62 669.63 750.29 675.22 706.79 675.22 705.47 669.63 711.93 698.02 728.54 698.02 737.39 698.02"/><path class="cls-5" d="M751.27,669.62h.35l0,0a2.85,2.85,0,0,0,2.54-2.83v-13a2.86,2.86,0,0,0-2.86-2.86H705.82a2.87,2.87,0,0,0-2.87,2.86v13a2.86,2.86,0,0,0,2.55,2.83l0,0h45.81Z"/><polygon class="cls-6" points="750.29 675.22 751.62 669.63 751.27 669.63 705.82 669.63 705.47 669.63 706.79 675.22 750.29 675.22"/><path class="cls-4" d="M745.26,632.49a8.58,8.58,0,0,0,5.45.14,19.11,19.11,0,0,0,3.45-1.21c13.54-6.23,7.89-17.13-4.88-9.67a21,21,0,0,0-2.14,1.45c-2.39,1.83-3.64,3.73-3.94,5.38A3.39,3.39,0,0,0,745.26,632.49Z"/><path class="cls-4" d="M711.49,619.72c-8-7.78-14.1-.83-5.32,6.19a14.46,14.46,0,0,0,1.75,1.2,7,7,0,0,0,4.58,1.2,2.55,2.55,0,0,0,2.21-2.5c.09-1.44-.69-3.36-2.61-5.43C711.9,620.16,711.72,619.94,711.49,619.72Z"/><path class="cls-7" d="M707.72,286h94.22a17.85,17.85,0,1,0,0-35.69,17.55,17.55,0,0,0-5.64.92,17.36,17.36,0,0,0-27-7.2,27.57,27.57,0,0,0-31.27-12.28A35.58,35.58,0,0,1,707.72,286Z"/><path class="cls-8" d="M707.72,286a35.64,35.64,0,1,0-30.5-54.07,22.38,22.38,0,0,0-34.73,9.27,23,23,0,1,0-7.27,44.8h72.5Z"/><rect class="cls-7" x="637.01" y="294.71" width="9.4" height="9.4" rx="1.88"/><rect class="cls-7" x="656.27" y="294.71" width="9.4" height="9.4" rx="1.88"/><rect class="cls-7" x="675.54" y="294.71" width="9.39" height="9.4" rx="1.88"/><rect class="cls-7" x="694.8" y="294.71" width="9.4" height="9.4" rx="1.88"/><path class="cls-8" d="M719.64,510.33a1.67,1.67,0,0,0,1.67,1.66H724a1.66,1.66,0,0,0,0-3.32h-2.71A1.66,1.66,0,0,0,719.64,510.33Z"/><path class="cls-8" d="M782.39,537.74a1.67,1.67,0,1,0,0-3.33H764.88a1.67,1.67,0,0,0,0,3.33Z"/><path class="cls-8" d="M748.71,549.66a1.67,1.67,0,0,0,0-3.33H734.12a1.67,1.67,0,0,0,0,3.33Z"/><path class="cls-8" d="M734.12,568.76a1.67,1.67,0,0,0,0,3.33H738a1.67,1.67,0,0,0,0-3.33Z"/><path class="cls-8" d="M820,594.25a1.68,1.68,0,0,0,1.66,1.67H865a1.67,1.67,0,1,0,0-3.33h-43.4A1.66,1.66,0,0,0,820,594.25Z"/><path class="cls-8" d="M836.56,604.5a1.67,1.67,0,1,0,0,3.33h17.5a1.67,1.67,0,1,0,0-3.33Z"/><path class="cls-8" d="M820.38,616.42H805.79a1.67,1.67,0,0,0,0,3.33h14.59a1.67,1.67,0,0,0,0-3.33Z"/><path class="cls-8" d="M805.79,638.85a1.67,1.67,0,0,0,0,3.33h3.88a1.67,1.67,0,1,0,0-3.33Z"/><path class="cls-8" d="M890.28,662.67h-43.4a1.67,1.67,0,0,0,0,3.33h43.4a1.67,1.67,0,1,0,0-3.33Z"/><path class="cls-9" d="M745.43,523.21H790.2a1.67,1.67,0,0,0,0-3.33H745.43a1.67,1.67,0,0,0,0,3.33Z"/><path class="cls-9" d="M733.35,521.55a1.67,1.67,0,0,0-1.67-1.67H681.23a1.67,1.67,0,0,0,0,3.33h50.45A1.67,1.67,0,0,0,733.35,521.55Z"/><path class="cls-9" d="M712.72,512a1.66,1.66,0,0,0,0-3.32H670.06a1.66,1.66,0,1,0,0,3.32h42.66Z"/><path class="cls-9" d="M788.15,536.08a1.66,1.66,0,0,0,1.66,1.66h64.43a1.67,1.67,0,1,0,0-3.33H789.81A1.66,1.66,0,0,0,788.15,536.08Z"/><path class="cls-9" d="M759.91,536.08a1.67,1.67,0,0,0-1.66-1.67H693.81a1.67,1.67,0,0,0,0,3.33h64.44A1.67,1.67,0,0,0,759.91,536.08Z"/><path class="cls-9" d="M702,549.66h23a1.67,1.67,0,0,0,0-3.33H702a1.67,1.67,0,0,0,0,3.33Z"/><path class="cls-9" d="M755.24,548a1.67,1.67,0,0,0,1.66,1.67h102a1.67,1.67,0,0,0,0-3.33h-102A1.67,1.67,0,0,0,755.24,548Z"/><path class="cls-9" d="M805.67,559.35a1.67,1.67,0,0,0-1.66-1.67H702a1.67,1.67,0,0,0,0,3.33H804A1.67,1.67,0,0,0,805.67,559.35Z"/><path class="cls-9" d="M726.61,570.43a1.66,1.66,0,0,0-1.66-1.67H702a1.67,1.67,0,0,0,0,3.33h23A1.66,1.66,0,0,0,726.61,570.43Z"/><path class="cls-9" d="M746.78,572.09h71.83a1.67,1.67,0,0,0,0-3.33H746.78a1.67,1.67,0,1,0,0,3.33Z"/><path class="cls-9" d="M836.76,582.34a1.67,1.67,0,0,0-1.67-1.67H722.18a1.67,1.67,0,1,0,0,3.33H835.09A1.67,1.67,0,0,0,836.76,582.34Z"/><path class="cls-9" d="M812.55,594.25a1.66,1.66,0,0,0-1.67-1.66H737.49a1.67,1.67,0,0,0,0,3.33h73.39A1.68,1.68,0,0,0,812.55,594.25Z"/><path class="cls-9" d="M859.82,606.16a1.67,1.67,0,0,0,1.66,1.67h64.44a1.67,1.67,0,0,0,0-3.33H861.48A1.67,1.67,0,0,0,859.82,606.16Z"/><path class="cls-9" d="M829.92,607.83a1.67,1.67,0,0,0,0-3.33H765.49a1.67,1.67,0,1,0,0,3.33Z"/><path class="cls-9" d="M773.66,619.75h23a1.67,1.67,0,1,0,0-3.33h-23a1.67,1.67,0,0,0,0,3.33Z"/><path class="cls-9" d="M930.59,616.42h-102a1.67,1.67,0,0,0,0,3.33h102a1.67,1.67,0,0,0,0-3.33Z"/><path class="cls-9" d="M877.34,629.44a1.67,1.67,0,0,0-1.66-1.67h-102a1.67,1.67,0,0,0,0,3.33h102A1.67,1.67,0,0,0,877.34,629.44Z"/><path class="cls-9" d="M773.66,638.85a1.67,1.67,0,0,0,0,3.33h23a1.67,1.67,0,1,0,0-3.33Z"/><path class="cls-9" d="M890.28,638.85H818.45a1.67,1.67,0,1,0,0,3.33h71.83a1.67,1.67,0,1,0,0-3.33Z"/><path class="cls-9" d="M762.76,654.09H875.68a1.67,1.67,0,0,0,0-3.33H762.76a1.67,1.67,0,0,0,0,3.33Z"/><path class="cls-9" d="M836.15,662.67H762.76a1.67,1.67,0,0,0,0,3.33h73.39a1.67,1.67,0,1,0,0-3.33Z"/><polygon class="cls-8" points="229.75 342.12 212.98 333.75 212.98 337.8 224.53 343.16 212.98 347.9 212.98 351.94 229.75 344.54 229.75 342.12"/><path class="cls-8" d="M116.7,330.33a16,16,0,0,0-8,2.11l1.84,3.69a13,13,0,0,1,5.77-1.65,3.87,3.87,0,0,1,2.26.57,1.93,1.93,0,0,1,.81,1.67,3.06,3.06,0,0,1-.56,1.78,10.89,10.89,0,0,1-2.34,2.05A9,9,0,0,0,114,343.1a5.56,5.56,0,0,0-.69,2.82v1.25h4.47v-1a2.8,2.8,0,0,1,.43-1.63,10.18,10.18,0,0,1,2-1.83,12,12,0,0,0,3.21-3,6,6,0,0,0,.84-3.21,5.44,5.44,0,0,0-2-4.45A8.52,8.52,0,0,0,116.7,330.33Z"/><path class="cls-8" d="M136.1,330.67h-7.88v24.69h5.23v-8.78h2.25c3.06,0,5.42-.71,7.08-2.11a7.54,7.54,0,0,0,2.49-6.1,7.05,7.05,0,0,0-2.33-5.76C141.37,331.32,139.1,330.67,136.1,330.67Zm2.68,10.66a5.66,5.66,0,0,1-3.61,1h-1.72V335h2.38a4.74,4.74,0,0,1,3.15.88,3.43,3.43,0,0,1,1,2.72A3.29,3.29,0,0,1,138.78,341.33Z"/><path class="cls-8" d="M115.7,350.07a3,3,0,0,0-2.2.73,2.81,2.81,0,0,0-.76,2.14,2.84,2.84,0,0,0,.77,2.12,3,3,0,0,0,2.19.75,2.92,2.92,0,0,0,2.17-.77,2.84,2.84,0,0,0,.77-2.1,2.81,2.81,0,0,0-.76-2.12A3,3,0,0,0,115.7,350.07Z"/><polygon class="cls-8" points="164.94 340.36 155.16 340.36 155.16 330.67 149.93 330.67 149.93 355.36 155.16 355.36 155.16 344.71 164.94 344.71 164.94 355.36 170.15 355.36 170.15 330.67 164.94 330.67 164.94 340.36"/><path class="cls-8" d="M191.11,332.61q-2.34-1.94-6.84-1.94h-7.88v24.69h5.23v-8.78h2.25c3.06,0,5.42-.71,7.08-2.11a7.54,7.54,0,0,0,2.49-6.1A7.05,7.05,0,0,0,191.11,332.61ZM187,341.33a5.71,5.71,0,0,1-3.62,1h-1.72V335H184a4.7,4.7,0,0,1,3.15.88,3.43,3.43,0,0,1,1,2.72A3.32,3.32,0,0,1,187,341.33Z"/><polygon class="cls-8" points="90.37 344.54 107.14 351.94 107.14 347.9 95.58 343.16 107.14 337.8 107.14 333.75 90.37 342.12 90.37 344.54"/><path class="cls-8" d="M202.71,334.48a3.93,3.93,0,0,1,2.27.57,2,2,0,0,1,.81,1.67,3,3,0,0,1-.57,1.78,10.89,10.89,0,0,1-2.34,2.05,9,9,0,0,0-2.53,2.55,5.56,5.56,0,0,0-.69,2.82v1.25h4.47v-1a2.8,2.8,0,0,1,.43-1.63,10.18,10.18,0,0,1,2.05-1.83,12,12,0,0,0,3.21-3,6,6,0,0,0,.84-3.21,5.44,5.44,0,0,0-2-4.45,8.52,8.52,0,0,0-5.53-1.67,16,16,0,0,0-8,2.11l1.84,3.69A13,13,0,0,1,202.71,334.48Z"/><path class="cls-8" d="M202.08,350.07a3,3,0,0,0-2.2.73,3.33,3.33,0,0,0,0,4.26,3.49,3.49,0,0,0,4.35,0,2.84,2.84,0,0,0,.77-2.1,2.81,2.81,0,0,0-.76-2.12A3,3,0,0,0,202.08,350.07Z"/><path class="cls-10" d="M240.67,242.06v63.86a7.59,7.59,0,0,1-7.57,7.57H87a7.52,7.52,0,0,1-3.07-.67,7.61,7.61,0,0,0,7,4.71H237A7.6,7.6,0,0,0,244.6,310V235.63a7.58,7.58,0,0,0-4.5-6.9,7.57,7.57,0,0,1,.57,2.87Z"/><path class="cls-8" d="M87,224a7.6,7.6,0,0,0-7.57,7.58A7.6,7.6,0,0,1,87,224Z"/><path class="cls-8" d="M233.1,313.49a7.59,7.59,0,0,0,7.57-7.57V242.06a2.13,2.13,0,0,1-2.12,2.12h-157a2.13,2.13,0,0,1-2.12-2.12v63.86A7.63,7.63,0,0,0,87,313.49Zm-74.25-60.87h69.28a1.58,1.58,0,0,1,0,3.15H158.85a1.58,1.58,0,0,1,0-3.15Zm70.85,8.52h0a1.57,1.57,0,0,1-1.57,1.57H196.06a1.57,1.57,0,0,1-1.57-1.57h0a1.58,1.58,0,0,1,1.57-1.57h32.07A1.57,1.57,0,0,1,229.7,261.14Zm-40.76,0h0a1.57,1.57,0,0,1-1.58,1.57H183a1.57,1.57,0,0,1-1.58-1.57h0a1.58,1.58,0,0,1,1.58-1.57h4.4A1.58,1.58,0,0,1,188.94,261.14Zm-31.66,0a1.57,1.57,0,0,1,1.57-1.57h17.07a1.58,1.58,0,0,1,1.58,1.57h0a1.57,1.57,0,0,1-1.58,1.57H158.85a1.57,1.57,0,0,1-1.57-1.57Zm1.57,6.66h69.28a1.58,1.58,0,0,1,0,3.15H158.85a1.58,1.58,0,0,1,0-3.15Zm70.85,8.52a1.57,1.57,0,0,1-1.57,1.57H211.06a1.57,1.57,0,1,1,0-3.14h17.07A1.57,1.57,0,0,1,229.7,276.32Zm-24.1,0a1.57,1.57,0,0,1-1.58,1.57h-4.4a1.57,1.57,0,1,1,0-3.14H204A1.57,1.57,0,0,1,205.6,276.32Zm-46.75-1.57h32.07a1.57,1.57,0,1,1,0,3.14H158.85a1.57,1.57,0,0,1,0-3.14Zm0,8.23h69.28a1.58,1.58,0,0,1,0,3.15H158.85a1.58,1.58,0,0,1,0-3.15Zm70.85,8.52h0a1.57,1.57,0,0,1-1.57,1.57H196.06a1.58,1.58,0,0,1-1.57-1.57h0a1.58,1.58,0,0,1,1.57-1.58h32.07A1.57,1.57,0,0,1,229.7,291.5Zm-40.76,0h0a1.58,1.58,0,0,1-1.58,1.57H183a1.58,1.58,0,0,1-1.58-1.57h0a1.58,1.58,0,0,1,1.58-1.58h4.4A1.58,1.58,0,0,1,188.94,291.5Zm-31.66,0a1.57,1.57,0,0,1,1.57-1.58h17.07a1.58,1.58,0,0,1,1.58,1.58h0a1.58,1.58,0,0,1-1.58,1.57H158.85a1.57,1.57,0,0,1-1.57-1.57Zm1.57,6.66h69.28a1.58,1.58,0,0,1,0,3.15H158.85a1.58,1.58,0,0,1,0-3.15ZM91.69,252.62h41a1.58,1.58,0,0,1,0,3.15h-41a1.58,1.58,0,0,1,0-3.15Zm42.53,8.52h0a1.57,1.57,0,0,1-1.57,1.57h-18.3a1.57,1.57,0,0,1-1.57-1.57h0a1.58,1.58,0,0,1,1.57-1.57h18.3A1.58,1.58,0,0,1,134.22,261.14Zm-24.82,0h0a1.57,1.57,0,0,1-1.58,1.57h-1.45a1.57,1.57,0,0,1-1.57-1.57h0a1.58,1.58,0,0,1,1.57-1.57h1.45A1.58,1.58,0,0,1,109.4,261.14Zm-19.28,0a1.58,1.58,0,0,1,1.57-1.57h9.17a1.58,1.58,0,0,1,1.57,1.57h0a1.57,1.57,0,0,1-1.57,1.57H91.69a1.57,1.57,0,0,1-1.57-1.57Zm1.57,6.66h41a1.58,1.58,0,0,1,0,3.15h-41a1.58,1.58,0,0,1,0-3.15Zm42.53,8.52a1.57,1.57,0,0,1-1.57,1.57h-9.17a1.57,1.57,0,0,1,0-3.14h9.17A1.57,1.57,0,0,1,134.22,276.32Zm-14.68,0a1.57,1.57,0,0,1-1.57,1.57h-1.45a1.57,1.57,0,1,1,0-3.14H118A1.57,1.57,0,0,1,119.54,276.32Zm-27.85-1.57H110a1.57,1.57,0,1,1,0,3.14H91.69a1.57,1.57,0,0,1,0-3.14Zm0,8.23h41a1.58,1.58,0,0,1,0,3.15h-41a1.58,1.58,0,0,1,0-3.15Zm42.53,8.52h0a1.58,1.58,0,0,1-1.57,1.57h-18.3a1.58,1.58,0,0,1-1.57-1.57h0a1.58,1.58,0,0,1,1.57-1.58h18.3A1.58,1.58,0,0,1,134.22,291.5Zm-24.82,0h0a1.58,1.58,0,0,1-1.58,1.57h-1.45a1.58,1.58,0,0,1-1.57-1.57h0a1.58,1.58,0,0,1,1.57-1.58h1.45A1.58,1.58,0,0,1,109.4,291.5Zm-19.28,0a1.58,1.58,0,0,1,1.57-1.58h9.17a1.58,1.58,0,0,1,1.57,1.58h0a1.58,1.58,0,0,1-1.57,1.57H91.69a1.58,1.58,0,0,1-1.57-1.57Zm1.57,6.66h41a1.58,1.58,0,0,1,0,3.15h-41a1.58,1.58,0,0,1,0-3.15Z"/><path class="cls-11" d="M81.56,244.18h157a2.13,2.13,0,0,0,2.12-2.12V231.6A7.6,7.6,0,0,0,233.1,224H87a7.6,7.6,0,0,0-7.57,7.58v10.46A2.13,2.13,0,0,0,81.56,244.18ZM228,230.46a3.64,3.64,0,1,1-3.63,3.64A3.65,3.65,0,0,1,228,230.46Zm-13.11,0a3.64,3.64,0,1,1-3.64,3.64A3.65,3.65,0,0,1,214.91,230.46Zm-13.11,0a3.64,3.64,0,1,1-3.64,3.64A3.64,3.64,0,0,1,201.8,230.46Z"/><path class="cls-12" d="M91.69,255.77h41a1.58,1.58,0,0,0,0-3.15h-41a1.58,1.58,0,0,0,0,3.15Z"/><rect class="cls-12" x="112.78" y="259.57" width="21.44" height="3.15" rx="1.57"/><rect class="cls-12" x="104.8" y="259.57" width="4.6" height="3.15" rx="1.57"/><rect class="cls-12" x="90.12" y="259.57" width="12.31" height="3.15" rx="1.57"/><path class="cls-12" d="M91.69,271h41a1.58,1.58,0,0,0,0-3.15h-41a1.58,1.58,0,0,0,0,3.15Z"/><path class="cls-12" d="M91.69,277.89H110a1.57,1.57,0,1,0,0-3.14H91.69a1.57,1.57,0,0,0,0,3.14Z"/><path class="cls-12" d="M116.52,274.75a1.57,1.57,0,1,0,0,3.14H118a1.57,1.57,0,1,0,0-3.14Z"/><path class="cls-12" d="M132.65,274.75h-9.17a1.57,1.57,0,0,0,0,3.14h9.17a1.57,1.57,0,0,0,0-3.14Z"/><path class="cls-12" d="M91.69,286.13h41a1.58,1.58,0,0,0,0-3.15h-41a1.58,1.58,0,0,0,0,3.15Z"/><rect class="cls-12" x="112.78" y="289.92" width="21.44" height="3.15" rx="1.57"/><rect class="cls-12" x="104.8" y="289.92" width="4.6" height="3.15" rx="1.57"/><path class="cls-12" d="M91.69,293.07h9.17a1.58,1.58,0,0,0,1.57-1.57h0a1.58,1.58,0,0,0-1.57-1.58H91.69a1.58,1.58,0,0,0-1.57,1.58h0A1.58,1.58,0,0,0,91.69,293.07Z"/><path class="cls-12" d="M91.69,301.31h41a1.58,1.58,0,0,0,0-3.15h-41a1.58,1.58,0,0,0,0,3.15Z"/><path class="cls-13" d="M158.85,255.77h69.28a1.58,1.58,0,0,0,0-3.15H158.85a1.58,1.58,0,0,0,0,3.15Z"/><rect class="cls-13" x="194.49" y="259.57" width="35.21" height="3.15" rx="1.57"/><path class="cls-13" d="M183,259.57h4.41a1.57,1.57,0,0,1,1.57,1.57v0a1.57,1.57,0,0,1-1.57,1.57H183a1.58,1.58,0,0,1-1.58-1.58v0A1.57,1.57,0,0,1,183,259.57Z"/><rect class="cls-13" x="157.28" y="259.57" width="20.22" height="3.15" rx="1.57"/><path class="cls-13" d="M158.85,271h69.28a1.58,1.58,0,0,0,0-3.15H158.85a1.58,1.58,0,0,0,0,3.15Z"/><path class="cls-13" d="M158.85,277.89h32.07a1.57,1.57,0,1,0,0-3.14H158.85a1.57,1.57,0,0,0,0,3.14Z"/><path class="cls-13" d="M199.62,274.75a1.57,1.57,0,1,0,0,3.14H204a1.57,1.57,0,1,0,0-3.14Z"/><path class="cls-13" d="M228.13,274.75H211.06a1.57,1.57,0,1,0,0,3.14h17.07a1.57,1.57,0,0,0,0-3.14Z"/><path class="cls-13" d="M158.85,286.13h69.28a1.58,1.58,0,0,0,0-3.15H158.85a1.58,1.58,0,0,0,0,3.15Z"/><path class="cls-13" d="M228.13,289.92H196.06a1.58,1.58,0,0,0-1.57,1.58h0a1.58,1.58,0,0,0,1.57,1.57h32.07a1.57,1.57,0,0,0,1.57-1.57h0A1.57,1.57,0,0,0,228.13,289.92Z"/><rect class="cls-13" x="181.38" y="289.92" width="7.55" height="3.15" rx="1.57"/><rect class="cls-13" x="157.28" y="289.92" width="20.22" height="3.15" rx="1.57"/><path class="cls-13" d="M158.85,301.31h69.28a1.58,1.58,0,0,0,0-3.15H158.85a1.58,1.58,0,0,0,0,3.15Z"/><path class="cls-8" d="M201.8,237.73a3.64,3.64,0,1,0-3.64-3.63A3.64,3.64,0,0,0,201.8,237.73Z"/><path class="cls-8" d="M214.91,237.73a3.64,3.64,0,1,0-3.64-3.63A3.64,3.64,0,0,0,214.91,237.73Z"/><path class="cls-8" d="M228,237.73a3.64,3.64,0,1,0-3.63-3.63A3.64,3.64,0,0,0,228,237.73Z"/><rect class="cls-7" x="190.89" y="147.21" width="9.4" height="9.4" rx="1.88"/><rect class="cls-7" x="210.15" y="147.21" width="9.4" height="9.4" rx="1.88"/><rect class="cls-7" x="229.41" y="147.21" width="9.4" height="9.4" rx="1.88"/><rect class="cls-7" x="248.68" y="147.21" width="9.4" height="9.4" rx="1.88"/><rect class="cls-7" x="66.84" y="674.03" width="9.4" height="9.4" rx="1.88"/><rect class="cls-7" x="86.1" y="674.03" width="9.4" height="9.4" rx="1.88"/><rect class="cls-7" x="105.36" y="674.03" width="9.4" height="9.4" rx="1.88"/><rect class="cls-7" x="124.63" y="674.03" width="9.4" height="9.4" rx="1.88"/><path class="cls-14" d="M276.5,640.37l.54,0a13.7,13.7,0,0,1,0,27.39c-.31,0-.61,0-.91-.05-.09.6-.17,1.2-.29,1.78-.08.42-.18.83-.28,1.25-.15.66-.31,1.31-.5,2-.12.41-.26.83-.4,1.24s-.18.61-.29.91-.27.64-.4,1l-.18.45-.3.72c.11-.24.22-.47.32-.72a21.65,21.65,0,0,0,3.23.26,22.46,22.46,0,0,0,0-44.91l-.54,0v8.77Z"/><path class="cls-14" d="M260.4,674.73a36.13,36.13,0,0,0,1.73-3.92c.21-.54.43-1.07.61-1.62a35.06,35.06,0,0,0,1.66-9.86c0-.32,0-.62,0-.94V623H209.17a3.13,3.13,0,0,0-3.12,3.12v36.71a35.09,35.09,0,0,0,11.4,25.83h29.73A35.6,35.6,0,0,0,260.4,674.73Zm-37.13-17.89a5.94,5.94,0,0,1-11.87,0V635.59a5.94,5.94,0,0,1,11.87,0Z"/><path class="cls-15" d="M271.8,698a4.7,4.7,0,0,0,0-9.4h-6.64c.16-.14.3-.31.46-.46.47-.46.92-.93,1.37-1.41s.7-.74,1-1.13.84-1,1.24-1.56.62-.8.91-1.21c.39-.56.74-1.14,1.1-1.72.2-.33.43-.63.62-1l.17-.34c.19-.34.37-.7.55-1.06.31-.6.61-1.2.88-1.82l.3-.72.18-.45c.13-.32.28-.63.4-1s.19-.61.29-.91.28-.83.4-1.24c.19-.65.35-1.3.5-2,.1-.42.2-.83.28-1.25.12-.58.2-1.18.29-1.78,0-.14,0-.28.05-.42.05-.37.11-.72.15-1.09.11-1.11.17-2.24.17-3.38V626.08a3.12,3.12,0,0,0-3.12-3.12h-8.94v35.43c0,.32,0,.62,0,.94a35.06,35.06,0,0,1-1.66,9.86c-.18.55-.4,1.08-.61,1.62a36.13,36.13,0,0,1-1.73,3.92,35.6,35.6,0,0,1-13.22,13.89H210.75a4.7,4.7,0,0,0,0,9.4H271.8Z"/><path class="cls-15" d="M217.34,629.66a6,6,0,0,0-5.94,5.93v21.25a5.94,5.94,0,0,0,11.87,0V635.59A6,6,0,0,0,217.34,629.66Z"/><path class="cls-8" d="M192.25,562.46a9.7,9.7,0,0,0,9.67,9.67H238a3.7,3.7,0,1,1,0,7.4H211.19a7.47,7.47,0,0,0,0,14.93h13.12a8.73,8.73,0,0,1,8.7,8.7v12.93a3.51,3.51,0,1,0,7,0v-6.8a14.87,14.87,0,0,1,14.83-14.83H275.7a7.47,7.47,0,0,0,0-14.93H263.09a3.7,3.7,0,0,1,0-7.4h32.77a9.67,9.67,0,0,0,0-19.34H201.92A9.7,9.7,0,0,0,192.25,562.46Z"/><path class="cls-14" d="M700.18,189.05V125a12.55,12.55,0,0,0-4.45-9.58,12.6,12.6,0,0,0-10.92-6.38H589.4a12.64,12.64,0,0,0-12.59,12.61v97.1a1.4,1.4,0,0,0,2.4,1l.37-.38v2.74a1.4,1.4,0,0,0,2.4,1l21.47-21.47h84.13A12.64,12.64,0,0,0,700.18,189.05ZM614,165.82q-3.51,2.82-9.76,2.81a22.87,22.87,0,0,1-10.2-2.17v-7.09a42.38,42.38,0,0,0,6.17,2.3,18.34,18.34,0,0,0,4.61.66,6.57,6.57,0,0,0,3.86-1,3.27,3.27,0,0,0,1.34-2.86,3.17,3.17,0,0,0-.58-1.88,6.52,6.52,0,0,0-1.75-1.58,40.5,40.5,0,0,0-4.66-2.44,22.42,22.42,0,0,1-5-3,11,11,0,0,1-2.63-3.33,9.43,9.43,0,0,1-1-4.43,9.31,9.31,0,0,1,3.25-7.51q3.24-2.73,9-2.73a21.39,21.39,0,0,1,5.36.66,37.1,37.1,0,0,1,5.32,1.88l-2.46,5.93a35.69,35.69,0,0,0-4.76-1.65,15.53,15.53,0,0,0-3.71-.47,4.92,4.92,0,0,0-3.32,1,3.3,3.3,0,0,0-1.16,2.64,3.14,3.14,0,0,0,.47,1.75,5,5,0,0,0,1.48,1.46,46.45,46.45,0,0,0,4.84,2.52q5.05,2.41,6.93,4.84a9.48,9.48,0,0,1,1.87,6A9.31,9.31,0,0,1,614,165.82Zm42.5,10.88h-9.78l-6.59-8.07h-.57q-8.26,0-12.71-4.79t-4.43-13.79q0-9,4.45-13.73t12.73-4.74q8.31,0,12.69,4.77t4.4,13.74a22.65,22.65,0,0,1-2.26,10.65,13.71,13.71,0,0,1-6.6,6.29Zm29.87-8.57H664.1v-36h7.63v29.69h14.6Z"/><path class="cls-14" d="M639.56,137.93a8.1,8.1,0,0,0-6.87,3.07c-1.53,2-2.31,5.07-2.31,9.09s.77,7,2.29,9.09a8,8,0,0,0,6.85,3q9.13,0,9.13-12.14T639.56,137.93Z"/><path class="cls-16" d="M654.39,160.74a22.65,22.65,0,0,0,2.26-10.65q0-9-4.4-13.74t-12.69-4.77q-8.28,0-12.73,4.74t-4.45,13.73q0,9,4.43,13.79t12.71,4.79h.57l6.59,8.07h9.78L647.79,167A13.71,13.71,0,0,0,654.39,160.74Zm-14.87,1.49a8,8,0,0,1-6.85-3c-1.52-2-2.29-5.07-2.29-9.09s.78-7.05,2.31-9.09a8.1,8.1,0,0,1,6.87-3.07q9.11,0,9.09,12.16T639.52,162.23Z"/><polygon class="cls-16" points="671.73 132.13 664.1 132.13 664.1 168.13 686.33 168.13 686.33 161.82 671.73 161.82 671.73 132.13"/><path class="cls-16" d="M608.67,147.36a46.45,46.45,0,0,1-4.84-2.52,5,5,0,0,1-1.48-1.46,3.14,3.14,0,0,1-.47-1.75A3.3,3.3,0,0,1,603,139a4.92,4.92,0,0,1,3.32-1,15.53,15.53,0,0,1,3.71.47,35.69,35.69,0,0,1,4.76,1.65l2.46-5.93a37.1,37.1,0,0,0-5.32-1.88,21.39,21.39,0,0,0-5.36-.66q-5.72,0-9,2.73a9.31,9.31,0,0,0-3.25,7.51,9.43,9.43,0,0,0,1,4.43,11,11,0,0,0,2.63,3.33,22.42,22.42,0,0,0,5,3,40.5,40.5,0,0,1,4.66,2.44,6.52,6.52,0,0,1,1.75,1.58,3.17,3.17,0,0,1,.58,1.88,3.27,3.27,0,0,1-1.34,2.86,6.57,6.57,0,0,1-3.86,1,18.34,18.34,0,0,1-4.61-.66,42.38,42.38,0,0,1-6.17-2.3v7.09a22.87,22.87,0,0,0,10.2,2.17q6.24,0,9.76-2.81a9.31,9.31,0,0,0,3.51-7.67,9.48,9.48,0,0,0-1.87-6Q613.73,149.77,608.67,147.36Z"/><path class="cls-8" d="M337.65,374.76a5.23,5.23,0,1,0,5.23,5.22A5.22,5.22,0,0,0,337.65,374.76Z"/><path class="cls-8" d="M681,445.56a5.23,5.23,0,1,0-5.23-5.23A5.24,5.24,0,0,0,681,445.56Z"/><path class="cls-8" d="M540.07,41.52a5.23,5.23,0,1,0,5.23,5.22A5.23,5.23,0,0,0,540.07,41.52Z"/><path class="cls-8" d="M129.64,620.4a5.23,5.23,0,1,0,5.23,5.23A5.24,5.24,0,0,0,129.64,620.4Z"/><path class="cls-8" d="M292,162.5a5.23,5.23,0,1,0,5.22,5.23A5.24,5.24,0,0,0,292,162.5Z"/><path class="cls-8" d="M332.64,48.28a2.38,2.38,0,1,0-2.38,2.37A2.39,2.39,0,0,0,332.64,48.28Z"/><path class="cls-8" d="M393.05,222a2.38,2.38,0,1,0,2.38,2.37A2.38,2.38,0,0,0,393.05,222Z"/><path class="cls-8" d="M549.26,120.94a2.38,2.38,0,1,0,2.38,2.38A2.38,2.38,0,0,0,549.26,120.94Z"/><path class="cls-8" d="M616.64,373.63A2.38,2.38,0,1,0,619,376,2.38,2.38,0,0,0,616.64,373.63Z"/><path class="cls-8" d="M789.7,211.45a2.38,2.38,0,1,0-2.38-2.37A2.38,2.38,0,0,0,789.7,211.45Z"/><path class="cls-8" d="M357.83,317a2.38,2.38,0,1,0,2.38,2.37A2.38,2.38,0,0,0,357.83,317Z"/><path class="cls-8" d="M232.25,497.83a2.38,2.38,0,1,0-2.38-2.37A2.38,2.38,0,0,0,232.25,497.83Z"/><path class="cls-8" d="M71.45,629.54a2.38,2.38,0,1,0-2.38-2.38A2.38,2.38,0,0,0,71.45,629.54Z"/><path class="cls-8" d="M792.76,485.58a2.38,2.38,0,1,0-2.37-2.38A2.38,2.38,0,0,0,792.76,485.58Z"/><path class="cls-8" d="M834.11,696.76a2.38,2.38,0,1,0,2.37,2.38A2.39,2.39,0,0,0,834.11,696.76Z"/><path class="cls-8" d="M54.6,330.75A2.38,2.38,0,1,0,57,333.12,2.38,2.38,0,0,0,54.6,330.75Z"/><path class="cls-8" d="M206.22,192.92a2.38,2.38,0,1,0,2.37,2.37A2.38,2.38,0,0,0,206.22,192.92Z"/><path class="cls-8" d="M465,53.71a2.38,2.38,0,1,0-2.37-2.37A2.38,2.38,0,0,0,465,53.71Z"/><path class="cls-8" d="M625.83,79.75a2.38,2.38,0,1,0-2.37-2.38A2.39,2.39,0,0,0,625.83,79.75Z"/><path class="cls-16" d="M371.64,491.35h0l0-.05Z"/><path class="cls-16" d="M323.14,461.61c23.94.65,41.91-.8,55.13-2.94h0c-1.2,5.87-2.44,12.1-3.65,18.4,0,.17-.07.33-.1.49s-.09.42-.13.63l.12-.55c.72-3.43,1.46-6.83,2.19-10.17a4.32,4.32,0,0,1,1.85,2.3c7.63-23.49,14.78-41.2,26.63-53.55a59.56,59.56,0,0,1,5.25-4.92l3.1-.28a60.29,60.29,0,0,0-4.76,4.28C395.92,428,388,447.13,379.38,473.17a85.82,85.82,0,0,1,.23,12c-.13,5.52-.35,12.21-.21,19.91H480.68V459.87L477,450.5s-16.56,13.21-19.15,15.12-6.41.95-7.17-1.73c-.47-1.63-3.36-15.17-5.55-25.52,2.37,9.36,5.65,20.49,6.57,22.4,1.44,3,3.35,1.63,3.35,1.63s23-18.86,23.45-19.52a2.38,2.38,0,0,0,0-1.89v0h0s-1.74-1.64-4.13-3.95c-3.19-3.09-7.51-7.39-10.47-10.72a26,26,0,0,1-3-3.87c-.05-.09-.12-.22-.17-.33-2.46-4.6-9-20.34-9-20.34h0l-.22-4.53-.24.23-6.8,6.18s-.12.87-.3,2.23c-44.31,6.72-67.14,6.81-90.62,8.58-58.46,4.41-66.77.91-39.71-73.58,3.52-9.68,8.2-28.59,13.09-43.62a5.25,5.25,0,0,0,.19-2.59q-.9.47-1.83.84l-.09,0c-5.15,2-4.86,6.15-9.84,6.05-12.55-.26-27.53-9.95-21.44-20.59-3,.16-6,.43-6.74,2.27-12.2,28.53-38.7,75.24-47.88,114.66C236.17,445.42,267.75,460.09,323.14,461.61Z"/><path class="cls-17" d="M294.28,280.31a22.65,22.65,0,0,1-1.6-4.43A22.65,22.65,0,0,0,294.28,280.31Z"/><path class="cls-17" d="M298.92,275.57a30.27,30.27,0,0,0,3.81,4.41,20,20,0,0,0,14.91,5.83c7.5-.19,15.3-3.82,22.66-7.15,9.51-4.29,19.76-6.73,21.9-5.93-1-3.89-5.6-8.8-14.2-4.69,0,0-6.84.52-7.67-2.37s23.88-34.3,26.59-37.74-.71-7.17-2.53-7.22-5.67,5-11,11-11.36,12.74-12.4,12.84-2.38-1.17-.75-5.61S351.75,210.39,351,208s-5.1-3.53-7.66-.36-11.6,27.9-13.76,30.7-4.57.26-4.36-2.21,6.22-30.65,5.63-32.88S325.77,200,324,204s-8.69,30.71-10.16,32.1-4.44.66-5.46-4.71-1.86-16.7-3-17.91-6.2.93-6.17,6.59-.37,19.7-.69,21.77a98,98,0,0,1-2.82,12C294.61,259.1,295.79,271.23,298.92,275.57Z"/><path class="cls-17" d="M325.25,295.48q.93-.37,1.83-.84l.17-.1-.17.08C326.48,294.93,325.87,295.23,325.25,295.48Z"/><path class="cls-18" d="M315.32,301.57c5,.1,4.69-4,9.84-6.05l.09,0c.62-.25,1.23-.55,1.83-.86l.17-.08.6-.34c.46-.26.92-.53,1.36-.82.25-.15.5-.32.74-.48q.62-.42,1.23-.87l.7-.52c.47-.35.94-.72,1.41-1.09l.86-.7,1.45-1.19,1.91-1.59.62-.5,1.53-1.23.65-.51c.72-.55,1.45-1.1,2.2-1.64A36.3,36.3,0,0,1,361,276.55a1.3,1.3,0,0,0,.41-.09l.11,0a1.4,1.4,0,0,0,.26-.16l.07-.06a1.64,1.64,0,0,0,.26-.33l0-.06a2.57,2.57,0,0,0,.16-.37.93.93,0,0,1,0-.13c0-.13.06-.27.08-.42s0-.06,0-.09a5.49,5.49,0,0,0,0-.58s0-.08,0-.12a5,5,0,0,0-.05-.53c0-.05,0-.11,0-.16,0-.22-.08-.44-.14-.66h0c-2.14-.8-12.39,1.64-21.9,5.93-7.36,3.33-15.16,7-22.66,7.15A20,20,0,0,1,302.73,280a30.27,30.27,0,0,1-3.81-4.41c-3.13-4.34-4.31-16.47-3.26-21.71h0l-1,3.58c-.31,1.09-.61,2.17-.89,3.23l-.06.27c-.26,1-.49,2-.7,2.94,0,.16-.07.33-.11.49q-.3,1.51-.51,3l-.06.52c-.12,1-.21,2-.23,3a18.79,18.79,0,0,0,.61,5,22.65,22.65,0,0,0,1.6,4.43c-.15.22-.27.45-.4.67C287.79,291.62,302.77,301.31,315.32,301.57Z"/><path class="cls-16" d="M601.08,470.5c2.49,11.52,5,23.64,7.08,34.54h37.58c-15-33.33-30.3-58.57-35.06-64.13-11-12.9-21-18.15-22.39-18.83.34.24,1.21.86,2.49,1.93C594.46,434.69,598.14,449.65,601.08,470.5Z"/><path class="cls-16" d="M588.42,422.45c0-.12-.09-.26-.14-.38l-.16-.08,0,.26a2,2,0,0,1,.26.18Z"/><path class="cls-16" d="M630.38,685.07c31.21-31.35,47.93-79.29,45.16-92.48-4.77-22.72-12.46-45.74-20.95-66.79L630.91,683.1A9.73,9.73,0,0,1,630.38,685.07Z"/><path class="cls-16" d="M595.51,504.78c-5.15-30-8.82-57.73-13.79-60.79s-36.57-14.36-46-16.66-10.72,4.6-10.72,4.6-6.89,23.73-8,28.43-3.54,6.79-6.41,5.45-17.51-12.73-18.47-12.15S485,465.14,485,465.14V505H595.54c0-.05,0-.1,0-.15A.41.41,0,0,0,595.51,504.78Z"/><path class="cls-19" d="M379.4,505c-.14-7.7.08-14.39.21-19.91a85.82,85.82,0,0,0-.23-12c8.57-26,16.54-45.15,29.39-57.87a60.29,60.29,0,0,1,4.76-4.28l-3.1.28a59.56,59.56,0,0,0-5.25,4.92c-11.85,12.35-19,30.06-26.63,53.55a4.32,4.32,0,0,0-1.85-2.3c-.73,3.34-1.47,6.74-2.19,10.17l-.12.55c0-.21.09-.42.13-.63s.06-.32.1-.49c1.21-6.3,2.45-12.53,3.65-18.4h0c-13.22,2.14-31.19,3.59-55.13,2.94-55.39-1.52-87-16.19-83.88-63.7v0c0,.13,0,.26-.08.38-.31,1.38-.62,2.74-.89,4.1,0,.08,0,.16,0,.24-.26,1.28-.49,2.54-.7,3.8-.05.27-.1.54-.14.82-.21,1.31-.41,2.62-.57,3.91l-.06.45c-.14,1.17-.26,2.33-.37,3.48l-.06.78c-.11,1.25-.18,2.48-.23,3.71,0,.19,0,.38,0,.58,0,1.08,0,2.15,0,3.2v.72c0,1.17.08,2.34.16,3.48,0,.22,0,.44.05.66.08,1,.19,2,.32,3,0,.21.05.42.08.62.15,1.1.34,2.18.56,3.24,0,.23.11.46.16.69.21.93.44,1.85.7,2.76.05.17.09.34.14.51.3,1,.65,2,1,3l.27.68c.35.87.73,1.72,1.14,2.56l.18.37c.46.92,1,1.81,1.52,2.69l.39.63c.53.81,1.09,1.61,1.68,2.39l.15.2c.64.82,1.33,1.6,2,2.37l.54.56c.75.77,1.53,1.52,2.36,2.23s1.62,1.13,2.47,1.69c.4.27.83.52,1.25.78s.92.59,1.4.88l1.53.89,1.29.74c.57.32,1.17.63,1.77.94l1.2.64c.63.33,1.29.65,1.95,1l1.18.58c.68.33,1.39.65,2.09,1l1.18.54c.73.33,1.48.65,2.24,1l1.15.5,2.4,1,1.12.45c.83.33,1.68.65,2.52,1l1.12.43,2.63.95,1.11.41,2.72.93,1.13.39,2.78.91,1.15.37c.93.3,1.88.59,2.83.88l1.18.36,2.9.86L297,477l2.95.83,1.19.33,3,.79c.42.11.83.23,1.25.33l2.95.76,1.29.33,2.93.71c.45.11.91.23,1.37.33l2.86.67,1.46.34,2.8.62,1.54.34,2.72.58,1.64.34,2.59.53,1.79.36,2.44.47,1.92.36c.76.15,1.53.29,2.29.42l2.07.38,2.1.37,2.24.38,1.9.32,2.42.39,1.68.27,2.58.39,1.47.22,2.76.4,1.23.18,3,.4.94.12,3.16.41.69.08,3.33.39.44.05,1.72.2h0l0-.05,0,.05c-.95,4.69-1.88,9.29-2.74,13.69h10.5Z"/><path class="cls-19" d="M604.73,505h3.43c-2.11-10.9-4.59-23-7.08-34.54C602.5,480.56,603.74,492,604.73,505Z"/><path class="cls-19" d="M482.85,447.84,478.52,441h0a2.38,2.38,0,0,1,0,1.89c-.48.66-23.45,19.52-23.45,19.52s-1.91,1.34-3.35-1.63c-.92-1.91-4.2-13-6.57-22.4,2.19,10.35,5.08,23.89,5.55,25.52.76,2.68,4.59,3.64,7.17,1.73S477,450.5,477,450.5l3.68,9.37V444.41Z"/><path class="cls-19" d="M523.08,426.4c-.57,6.32-7.65,31.41-9.09,34.37s-3.35,1.63-3.35,1.63-23-18.86-23.45-19.52,0-1.8,0-1.89h0l-4.33,6.85,2.17-3.43v20.73s6.15-10.91,7.11-11.48,15.6,10.82,18.47,12.15,5.27-.76,6.41-5.45,8-28.43,8-28.43,1.34-6.9,10.72-4.6,41,13.59,46,16.66,8.64,30.83,13.79,60.79a.41.41,0,0,1,0,.11c0,.05,0,.1,0,.15H603c-3.21-42.05-9-67.39-14.57-82.59l0,0a2,2,0,0,0-.26-.18c-4-2.76-38.89-11.78-67.45-18.85,0,.32.1.66.16,1C521.82,410.43,523.5,421.84,523.08,426.4Z"/><polygon class="cls-20" points="485.02 444.4 482.85 447.84 480.68 444.4 480.68 459.87 480.68 505.04 485.02 505.04 485.02 465.14 485.02 444.4"/><path class="cls-21" d="M451.69,401.74h0s6.56,15.74,9,20.34c.05.11.12.24.17.33a26,26,0,0,0,3,3.87c3,3.33,7.28,7.63,10.47,10.72,2.39,2.31,4.13,3.95,4.13,3.95h0v0h0l4.33,6.85,4.33-6.85h0v0h0s1.38-1.29,3.35-3.19l.78-.76c4.71-4.57,12-11.81,13.5-14.59,2-3.66,7.53-16.74,8.88-19.95l.3-.72h0l.13-2.6,0-4a68.6,68.6,0,0,1-13.51,3.33c-.39.06-.77.09-1.16.14-1.46.18-2.94.31-4.42.4s-3,.12-4.47.11h-.25l-.48,0a67.3,67.3,0,0,1-9.93-.92c-1.1-.18-2.19-.39-3.26-.63l-1-.23-.42-.1-1.78-.44-.61-.17-.58-.17c-.65-.19-1.3-.38-1.94-.59l-1.22-.4-.87-.29h.09a67.85,67.85,0,0,1-17.16-9l.1,11.29.24-.23Z"/><path class="cls-22" d="M394,363.1a47.94,47.94,0,0,0,5.43,5.51A47.94,47.94,0,0,1,394,363.1Z"/><path class="cls-22" d="M422.59,328a20.14,20.14,0,0,1-18.19-17.13l-1.84-.67,1.84.64c.55.2,1.13.42,1.68.6l.57.2c2,.67,4,1.28,6,1.84l.83.24q2.82.79,5.53,1.42l.93.21c1.38.31,2.72.57,4.06.82l1.16.24.91.15c1.7.29,3.36.53,5,.72l.79.09c1.65.17,3.28.31,4.86.4l.58,0h.2l1.26,0c.88,0,1.76.05,2.61.05h1c.69,0,1.36-.06,2-.1.83,0,1.67,0,2.47-.12l.47,0c1.43-.12,2.83-.3,4.21-.51l.65-.1c1.07-.17,2.1-.39,3.13-.61.25-.06.51-.09.75-.15l.72-.17c1.24-.3,2.45-.63,3.64-1l.69-.22c.79-.25,1.55-.55,2.31-.84.38-.14.78-.26,1.15-.41l.61-.25c.31-.13.61-.28.92-.42.82-.36,1.64-.71,2.42-1.09-.79.39-1.59.76-2.41,1.12a6.38,6.38,0,0,1,.27,3.07,2.25,2.25,0,0,0,0,.86,2.2,2.2,0,0,0,4.32-.13,10.17,10.17,0,0,0,.13-1.91A10.71,10.71,0,0,0,470,311l-1.12.58c.38-.19.74-.41,1.11-.61.74-.39,1.48-.77,2.19-1.19l.19-.12c1.06-.64,2.09-1.31,3.1-2l.28-.19c.5-.36,1-.74,1.47-1.11s.94-.69,1.39-1.05a.1.1,0,0,1,.05,0l-.05,0c-.46.36-.91.72-1.38,1.07a18.89,18.89,0,0,1,1.64,3.84,19.18,19.18,0,0,1,.84,5.42,18.84,18.84,0,0,1-.25,3.41,19.86,19.86,0,0,1-.87,3.31,19.2,19.2,0,0,1-18,12.76c-.43,0-.86,0-1.3,0a17.26,17.26,0,0,1-2-.23c-.42-.07-.82-.17-1.24-.27a19.19,19.19,0,0,1-10.39-6.43c-.26-.31-.52-.63-.76-1l-.12-.16c-.35-.49-.67-1-1-1.51A19.39,19.39,0,0,1,442.6,323a19.14,19.14,0,0,1-1-3.07c-.1-.5-.2-1-.27-1.5,0-.18,0-.36-.05-.54l-2.6,0-1.27-.05a23.31,23.31,0,0,0,.83,4.51c.11.36.19.72.32,1.07a22.88,22.88,0,0,0,3,5.92,24.49,24.49,0,0,0,1.77,2.16c.19.21.39.41.59.61a23,23,0,0,0,12.66,6.61l.34,0c.37.06.74.09,1.1.13a23.06,23.06,0,0,0,24.65-16.72,24,24,0,0,0,.55-2.44c.05-.35.1-.69.14-1,3.62-.27,13.16-.49,22,3.68-.07.35-.14.69-.2,1A23.12,23.12,0,0,0,535.82,349a22.42,22.42,0,0,0,3.35-1.51,21.82,21.82,0,0,0,2.35-1.45,23.49,23.49,0,0,0,3.25-2.81c.22-.23.41-.47.62-.7A22.93,22.93,0,0,0,550.9,331a23.33,23.33,0,0,0,.24-5.82l1.08-.54,6.4-3.19,1.48-.74a4.78,4.78,0,0,0,2.22,1l.43-2.57h0a1.91,1.91,0,0,0,.27-1.66h0l.91-5.44h0a8.05,8.05,0,0,1,3.79-.17c.48.15,1,.31,1.41.49h0A20.1,20.1,0,0,1,581.69,334c8.11-5.16,12.4-12.72,14-21.48-11-1.16-19.22-7.5-24.55-16.16a46.39,46.39,0,0,1-3.42-6.79c-5.17-12.76-5.32-28.36-.36-40.27.34-.81.7-1.61,1.09-2.39a34.13,34.13,0,0,1,3.39-5.52c-1.89-2.49-3.78-4.81-5.65-6.89a16.85,16.85,0,0,1-1.6,4.92h0s-.26.25-.73.67c-3.16,2.92-15.7,14.32-17.25,13.71h0s-3.81,27.43,13.52,38.31l-3,18.05a14.67,14.67,0,0,0,.78,7.38l-6.68,3.33-.75.38a23.06,23.06,0,0,0-2.05-5.1,24.3,24.3,0,0,0-1.47-2.39c-.16-.22-.33-.42-.5-.63a23,23,0,0,0-14.52-8.76,25.15,25.15,0,0,0-2.71-.28,23.12,23.12,0,0,0-22.6,14.52c-9.11-4.12-18.76-4.09-23-3.82a22.58,22.58,0,0,0-1.39-6.87,23.17,23.17,0,0,0-1.9-4c-.4.34-.8.69-1.21,1,.41-.34.8-.7,1.2-1s1-.85,1.48-1.29l.43-.4c.86-.8,1.69-1.62,2.51-2.47l.4-.43c.81-.86,1.61-1.75,2.38-2.65l.33-.4c.78-.93,1.55-1.89,2.29-2.87l.21-.27c.78-1,1.54-2.08,2.27-3.16h0c.77-1.14,1.52-2.29,2.25-3.46h0c.71-1.15,1.4-2.31,2.06-3.49l.09-.16c.65-1.16,1.28-2.33,1.9-3.52a2.12,2.12,0,0,1,.11-.21c.61-1.19,1.2-2.39,1.78-3.6l.08-.18c.59-1.24,1.15-2.49,1.7-3.75l0,0c.93-2.11,1.79-4.25,2.63-6.4.3-.79.59-1.59.88-2.38.51-1.36,1-2.71,1.48-4.07.34-1,.66-1.94,1-2.92.39-1.17.78-2.34,1.15-3.51s.68-2.14,1-3.21l.4-1.25,0,0c-11.36,19.25-24.14,31.5-37.17,38.92q-2.26,1.29-4.54,2.39a73.51,73.51,0,0,1-8.81,3.6,74.75,74.75,0,0,1-11.14,2.8,77.82,77.82,0,0,1-8.73,1l-1.67.08c-1.26,0-2.53.06-3.78.05-1.41,0-2.81-.06-4.2-.14l-.65,0-1.09-.07c-.68-.05-1.36-.11-2-.18h0a99.55,99.55,0,0,1-13.9-2.43l-2.61-.68A118.94,118.94,0,0,1,387.53,284h0l-.06.13c-.25.53-.49,1.07-.73,1.6-.51,1.1-1,2.2-1.49,3.29q-.44,1-.84,2c-.45,1.05-.88,2.09-1.3,3.14-.24.59-.48,1.19-.71,1.78-.55,1.4-1.07,2.8-1.57,4.2l-.24.63h0l18.95,8.36-18.95-8.36a54.36,54.36,0,0,0-2.1,11.82C394,318.4,430,336.69,420.3,378a44.1,44.1,0,0,0,19.28-2.36A68.81,68.81,0,0,1,422.59,328Zm86.48-4a19.26,19.26,0,0,1,20.68-16c.51.05,1,.1,1.52.18s1.14.23,1.69.37a19.19,19.19,0,0,1,5.89,2.66,19.66,19.66,0,0,1,2.57,2.06,19.26,19.26,0,0,1,2.37,2.73,20.53,20.53,0,0,1,1.75,3,1.51,1.51,0,0,0,.11.22,19.45,19.45,0,0,1,1.35,4.31,18.9,18.9,0,0,1,.1,6.84,19.12,19.12,0,0,1-3.7,8.53,18.66,18.66,0,0,1-2.21,2.4l-.36.35a18.17,18.17,0,0,1-1.55,1.23,19.15,19.15,0,0,1-18.9,2c-.53-.24-1-.49-1.56-.76a19.39,19.39,0,0,1-6.43-5.7c-.29-.4-.55-.83-.8-1.25a19.21,19.21,0,0,1-1.45-2.95,19,19,0,0,1-1.32-6.32A19.41,19.41,0,0,1,509.07,324Z"/><path class="cls-22" d="M420.24,378a36.32,36.32,0,0,1-5.07-1A36.32,36.32,0,0,0,420.24,378Z"/><path class="cls-22" d="M403.54,371.72a42.65,42.65,0,0,1-4-3.08A42.65,42.65,0,0,0,403.54,371.72Z"/><path class="cls-22" d="M415.07,377a37.8,37.8,0,0,1-11.5-5.26A37.8,37.8,0,0,0,415.07,377Z"/><path class="cls-12" d="M378.48,312.56h0c-.06.86-.11,1.72-.14,2.59v0q0,1.27,0,2.58v.05c0,1.72.08,3.46.21,5.21,0,.07,0,.14,0,.21.14,1.72.34,3.46.6,5.2l0,.22c.27,1.75.6,3.5,1,5.23l0,.12c.19.83.39,1.65.6,2.47a1.6,1.6,0,0,1,.05.21q.68,2.56,1.52,5.07l.09.26c.57,1.68,1.2,3.32,1.88,4.94a1.67,1.67,0,0,1,.08.2c.35.8.7,1.59,1.07,2.37v0q1.15,2.43,2.46,4.74l.08.13c.87,1.53,1.81,3,2.79,4.43l.08.12q1.5,2.16,3.17,4.14h0a47.94,47.94,0,0,0,5.43,5.51l0,0a42.65,42.65,0,0,0,4,3.08l0,0a37.8,37.8,0,0,0,11.5,5.26l.1,0a36.32,36.32,0,0,0,5.07,1h.06C430,336.69,394,318.4,378.48,312.56Z"/><path class="cls-23" d="M603,505h1.74c-1-13-2.23-24.48-3.65-34.54-2.94-20.85-6.62-35.81-10.3-46.49-1.28-1.07-2.15-1.69-2.49-1.93h0c.05.12.09.26.14.38C594,437.65,599.78,463,603,505Z"/><path class="cls-21" d="M422.92,323.17c.14-1.36.32-2.72.55-4.08l.48-2.89c-1.33-.25-2.68-.54-4.05-.85l-.93-.21q-2.72-.63-5.53-1.42l-.83-.24c-1.95-.56-3.93-1.17-6-1.84l-.57-.2-1.68-.57A20.14,20.14,0,0,0,422.59,328c.05-1.52.15-3.05.31-4.58h0Z"/><path class="cls-21" d="M569.16,312.37h0c-.46-.18-.93-.34-1.41-.49a8.05,8.05,0,0,0-3.79.17l-.92,5.44a1.91,1.91,0,0,1-.27,1.66L559,341.79c-.22,1.35-.5,2.68-.8,4-.37,1.59-.8,3.16-1.27,4.7.66.17,1.33.3,2,.41a20.07,20.07,0,0,0,10.26-38.54Z"/><path class="cls-17" d="M529.7,320.1a6.5,6.5,0,0,0-2,0l-5.15,4.12a6.75,6.75,0,0,0-.32,1.17,2.2,2.2,0,0,1-2.54,1.82,2.49,2.49,0,0,1-.59-.23l-9,7.2a19.21,19.21,0,0,0,1.45,2.95l20.28-16.24A6.82,6.82,0,0,0,529.7,320.1Z"/><path class="cls-17" d="M448,322.19q-2.7.48-5.43.8a19.39,19.39,0,0,0,1.22,2.56c.3.52.62,1,1,1.51l.12.16a8.9,8.9,0,0,1,6.74-3.82,8.75,8.75,0,0,1,2.22.1,8.86,8.86,0,0,1,7.09,7.19,8.69,8.69,0,0,1,.1,2.17,5.92,5.92,0,0,1-.46,2.27,19.2,19.2,0,0,0,18-12.76,19.86,19.86,0,0,0,.87-3.31,18.84,18.84,0,0,0,.25-3.41,19.18,19.18,0,0,0-.84-5.42,75.35,75.35,0,0,1-8.11,4.62,10.17,10.17,0,0,1-.13,1.91,2.2,2.2,0,0,1-4.32.13,83.22,83.22,0,0,1-11.27,3.76Q451.6,321.57,448,322.19Z"/><path class="cls-17" d="M472.23,396.44l.58.17.61.17-.59-.17Z"/><path class="cls-17" d="M514,385.16a64.27,64.27,0,0,0,16.15-17c3.61-5.44,6.58-12.68,9-20.64a22.42,22.42,0,0,1-3.35,1.51,8.85,8.85,0,0,1-17.07-.65,23.09,23.09,0,0,1-13.48-25c.06-.35.13-.69.2-1-8.86-4.17-18.4-3.95-22-3.68,0,.35-.09.69-.14,1a24,24,0,0,1-.55,2.44,23.06,23.06,0,0,1-24.65,16.72,8.43,8.43,0,0,1-1.89,1.29,8.83,8.83,0,0,1-12.8-8.68,24.49,24.49,0,0,1-1.77-2.16,22.88,22.88,0,0,1-3-5.92c-.54.05-1.08.08-1.62.11a105.21,105.21,0,0,1-14.09-.07c-.16,1.53-.26,3.06-.31,4.58a69,69,0,0,0,28.54,58.15,67.85,67.85,0,0,0,17.16,9C488,397.47,502.82,393.13,514,385.16Zm-27.94-54.87c.86-1.23,1.94-.85,2.12-.33s.55,4.91-.19,7.08-4.54,2.91-4.94.24S486.06,330.29,486.06,330.29Zm-15.75,13.82h0a3.32,3.32,0,0,1,3.87-2.65l5.21,1,25.15,4.69h0l.82.15a3.32,3.32,0,0,1,2.64,3.87h0a19.15,19.15,0,0,1-9.78,13.38h0c-.41.22-.85.43-1.28.62l-.61.25c-.38.16-.76.31-1.15.44l-.66.19c-.34.1-.68.2-1,.28s-.47.1-.71.15l-1,.17-.73.09-1.08.07-.71,0c-.39,0-.8,0-1.2,0l-.6,0c-.61-.06-1.22-.13-1.83-.25a18.89,18.89,0,0,1-2.38-.62l-.64-.22a18.77,18.77,0,0,1-1.79-.75c-.15-.07-.3-.13-.44-.21a17.82,17.82,0,0,1-2-1.21l-.38-.27c-.53-.39-1.05-.8-1.54-1.23-.08-.07-.17-.13-.24-.2h0A19.17,19.17,0,0,1,470.31,344.11Z"/><path class="cls-17" d="M533,308.55c-.55-.14-1.11-.27-1.69-.37s-1-.13-1.52-.18a19.25,19.25,0,0,0-20.93,19.87l21.36-17.09Z"/><path class="cls-17" d="M531,261.52c-1-.27-2.89-.64-5.06-1-6.24-1.13-15.14-2.48-15.14-2.48-3.52,22.76-14.16,39.18-28.62,49.92a22.58,22.58,0,0,1,1.39,6.87c4.24-.27,13.89-.3,23,3.82a23.12,23.12,0,0,1,22.6-14.52,25.15,25.15,0,0,1,2.71.28,23,23,0,0,1,14.52,8.76c1-7,1.71-13.54,2.16-18.78C550.26,275,535.07,262.57,531,261.52Zm13.2,40.65a2.2,2.2,0,0,1-3.07.48,19.12,19.12,0,0,0-12.59-3.71,13.89,13.89,0,0,0-3.85.88,2.2,2.2,0,1,1-1.61-4.09,18.18,18.18,0,0,1,5-1.15,23.42,23.42,0,0,1,15.63,4.52A2.21,2.21,0,0,1,544.23,302.17Z"/><path class="cls-17" d="M542.31,335.63c.77-3.32,1.46-6.67,2.08-10l-2.26,1.81-6.48,5.19-6.29,5a8.87,8.87,0,0,1,6.76,7.06,19.1,19.1,0,0,0,3.16-1.83,18.17,18.17,0,0,0,1.55-1.23c0-.18.09-.36.14-.54C541.44,339.3,541.89,337.48,542.31,335.63Z"/><path class="cls-17" d="M535.43,318.06l6-4.79a19.66,19.66,0,0,0-2.57-2.06l-6.37,5.1A10.61,10.61,0,0,1,535.43,318.06Z"/><path class="cls-17" d="M559,341.79c-.22,1.35-.5,2.68-.8,4-.37,1.59-.8,3.16-1.27,4.7a69.1,69.1,0,0,1-56.31,48c-.39.06-.77.09-1.16.14-1.46.18-2.94.31-4.42.4,1.48-.09,3-.22,4.42-.4.39-.05.77-.08,1.16-.14a69.1,69.1,0,0,0,56.31-48c.47-1.54.9-3.11,1.27-4.7C558.46,344.47,558.74,343.14,559,341.79Z"/><path class="cls-24" d="M500.58,398.47a69.1,69.1,0,0,0,56.31-48c.47-1.54.9-3.11,1.27-4.7.3-1.33.58-2.66.8-4l3.8-22.64h0l-.43,2.57a4.78,4.78,0,0,1-2.22-1l-1.48.74-6.4,3.19-1.08.54a23.33,23.33,0,0,1-.24,5.82,22.93,22.93,0,0,1-5.51,11.5c-.21.23-.4.47-.62.7a23.49,23.49,0,0,1-3.25,2.81,21.82,21.82,0,0,1-2.35,1.45c-2.44,8-5.41,15.2-9,20.64a64.27,64.27,0,0,1-16.15,17c-11.18,8-26,12.31-45.71,10h-.09l.87.29,1.22.4c.64.21,1.29.4,1.94.59l.6.17.59.17,1.78.44.42.1,1,.23c1.07.24,2.16.45,3.26.63a67.3,67.3,0,0,0,9.93.92l.48,0h.25c1.5,0,3,0,4.47-.11s3-.22,4.42-.4C499.81,398.56,500.19,398.53,500.58,398.47Z"/><path class="cls-24" d="M477.27,306.39c-.49.37-1,.74-1.48,1.09l-.28.19c-1,.7-2,1.37-3.1,2l-.19.12c-.72.42-1.44.83-2.18,1.22a10.71,10.71,0,0,1,.76,3.83,75.35,75.35,0,0,0,8.11-4.62A18.89,18.89,0,0,0,477.27,306.39Z"/><polygon class="cls-24" points="563.95 312.04 563.94 312.05 563.94 312.05 563.03 317.49 563.03 317.49 563.95 312.05 563.95 312.04"/><path class="cls-24" d="M540.61,247.21s-7.21-.29-15-1.08a99,99,0,0,1-13.41-2.1c-.37,1.27-.77,2.55-1.15,3.82l0,0-.4,1.25c-.32,1.07-.66,2.14-1,3.21s-.76,2.34-1.15,3.51c-.33,1-.65,2-1,2.92-.47,1.36-1,2.71-1.48,4.07-.29.79-.58,1.59-.88,2.38-.84,2.15-1.7,4.29-2.63,6.4l0,0c-.55,1.26-1.11,2.51-1.7,3.75l-.08.18c-.58,1.21-1.17,2.41-1.78,3.6a2.12,2.12,0,0,0-.11.21c-.62,1.19-1.25,2.36-1.9,3.52l-.09.16c-.66,1.18-1.35,2.34-2.06,3.49h0c-.73,1.17-1.48,2.32-2.25,3.46h0c-.73,1.08-1.49,2.12-2.27,3.16l-.21.27c-.74,1-1.51,1.94-2.29,2.87l-.33.4c-.77.9-1.57,1.79-2.38,2.65l-.4.43c-.82.85-1.65,1.67-2.51,2.47l-.43.4c-.48.44-1,.88-1.47,1.31a23.17,23.17,0,0,1,1.9,4c14.46-10.74,25.1-27.16,28.62-49.92,0,0,8.9,1.35,15.14,2.48,2.17.39,4,.76,5.06,1,4,1.05,19.23,13.43,17.56,32.84-.45,5.24-1.15,11.75-2.16,18.78.17.21.34.41.5.63a24.3,24.3,0,0,1,1.47,2.39,23.06,23.06,0,0,1,2.05,5.1l.75-.38,6.68-3.33a14.67,14.67,0,0,1-.78-7.38l3-18.05c-17.33-10.88-13.52-38.31-13.52-38.31h0C544.82,253.11,540.61,247.21,540.61,247.21Z"/><path class="cls-24" d="M441.33,317.88c0,.18,0,.36.05.54.07.5.17,1,.27,1.5a19.14,19.14,0,0,0,1,3.07q2.73-.32,5.43-.8,3.57-.63,7.05-1.54a83.22,83.22,0,0,0,11.27-3.76,2.25,2.25,0,0,1,0-.86,6.38,6.38,0,0,0-.27-3.07l-.93.39-.61.25-1.21.46c-.74.28-1.49.54-2.25.79l-.69.22c-1.19.38-2.4.71-3.64,1l-.72.17c-.26.06-.52.13-.79.18-1,.22-2,.41-3.09.58l-.65.1c-1.38.21-2.78.39-4.21.51l-.47,0c-.83.07-1.66.12-2.51.16-.66,0-1.33.05-2,.06h-1Z"/><path class="cls-24" d="M437.46,317.8h-.2l-.58,0c-1.58-.09-3.21-.23-4.86-.4l-.79-.09c-1.64-.19-3.3-.43-5-.72l-.91-.15L424,316.2h0l-.48,2.89c-.23,1.36-.41,2.72-.55,4.08l0,.25h0a105.21,105.21,0,0,0,14.09.07c.54,0,1.08-.06,1.62-.11-.13-.35-.21-.71-.32-1.07A23.31,23.31,0,0,1,437.46,317.8Z"/><path class="cls-24" d="M542.31,335.63c-.42,1.85-.87,3.67-1.34,5.49-.05.18-.09.36-.14.54l.36-.35a18.66,18.66,0,0,0,2.21-2.4,19.12,19.12,0,0,0,3.7-8.53,18.9,18.9,0,0,0-.1-6.84l-2.61,2.09C543.77,329,543.08,332.31,542.31,335.63Z"/><path class="cls-22" d="M540.61,247.21c1.41-8.21.6-14.71-1.47-19.25-5.42-11.88-19.52-10.15-25.3,10.49q-.76,2.76-1.59,5.58a99,99,0,0,0,13.41,2.1C533.4,246.92,540.61,247.21,540.61,247.21Z"/><path class="cls-25" d="M519.13,327a2.19,2.19,0,0,1-1.22-2.31,10.88,10.88,0,0,1,12.52-8.93c.22,0,.43.13.66.18a11,11,0,0,1,1.39.38l6.37-5.1a19.19,19.19,0,0,0-5.89-2.66l-2.78,2.23-21.36,17.09a19,19,0,0,0,1.32,6.32Z"/><path class="cls-25" d="M522.58,324.23l5.15-4.12a6.38,6.38,0,0,0-5.15,4.12Z"/><path class="cls-25" d="M537.48,320.16a10.83,10.83,0,0,1,1.87,8.11,2.21,2.21,0,1,1-4.35-.73,6.41,6.41,0,0,0-2.83-6.46l-.3-.18-20.28,16.24c.25.42.51.85.8,1.25a19.39,19.39,0,0,0,6.43,5.7A8.86,8.86,0,0,1,529,337.57c.11,0,.21.07.33.09l6.29-5,6.48-5.19,2.26-1.81,2.61-2.09a19.45,19.45,0,0,0-1.35-4.31,1.51,1.51,0,0,1-.11-.22,20.53,20.53,0,0,0-1.75-3,19.26,19.26,0,0,0-2.37-2.73l-6,4.79A10.74,10.74,0,0,1,537.48,320.16Z"/><path class="cls-21" d="M524.26,350a23,23,0,0,1-5.51-1.67,8.85,8.85,0,0,0,17.07.65A22.91,22.91,0,0,1,524.26,350Z"/><path class="cls-21" d="M529.36,337.66c-.12,0-.22-.07-.33-.09a8.86,8.86,0,0,0-10.21,6.52c.51.27,1,.52,1.56.76a19.12,19.12,0,0,0,15.74-.13A8.87,8.87,0,0,0,529.36,337.66Z"/><path class="cls-21" d="M456.67,338.68A23,23,0,0,1,444,332.07c-.2-.2-.4-.4-.59-.61a8.81,8.81,0,0,0,12.8,8.68,8.43,8.43,0,0,0,1.89-1.29c-.36,0-.73-.07-1.1-.13Z"/><path class="cls-21" d="M461.06,332.86a8.69,8.69,0,0,0-.1-2.17,8.86,8.86,0,0,0-7.09-7.19,8.75,8.75,0,0,0-2.22-.1,8.9,8.9,0,0,0-6.74,3.82c.24.33.5.65.76,1a19.19,19.19,0,0,0,10.39,6.43c.42.1.82.2,1.24.27a17.26,17.26,0,0,0,2,.23c.44,0,.87,0,1.3,0a5.92,5.92,0,0,0,.46-2.27Z"/><path class="cls-22" d="M522.26,325.4a6.75,6.75,0,0,1,.32-1.17,6.38,6.38,0,0,1,5.15-4.12,6.5,6.5,0,0,1,2,0,6.82,6.82,0,0,1,2.17.8l.3.18a6.41,6.41,0,0,1,2.83,6.46,2.21,2.21,0,1,0,4.35.73,10.52,10.52,0,0,0-3.92-10.21,10.61,10.61,0,0,0-2.95-1.75,11,11,0,0,0-1.39-.38c-.23-.05-.44-.14-.66-.18a10.88,10.88,0,0,0-12.52,8.93,2.19,2.19,0,0,0,1.22,2.31,2.49,2.49,0,0,0,.59.23A2.2,2.2,0,0,0,522.26,325.4Z"/><path class="cls-22" d="M528.11,294.58a18.18,18.18,0,0,0-5,1.15,2.2,2.2,0,1,0,1.61,4.09,13.89,13.89,0,0,1,3.85-.88,19.12,19.12,0,0,1,12.59,3.71,2.19,2.19,0,1,0,2.58-3.55A23.42,23.42,0,0,0,528.11,294.58Z"/><path class="cls-12" d="M547.07,698H664.43a9.67,9.67,0,0,0-9.38-7.47H625.82a11.13,11.13,0,0,0,4.56-5.48,9.73,9.73,0,0,0,.53-2l23.68-157.3L656.36,514a7.57,7.57,0,0,0-7.64-9h-333a7.57,7.57,0,0,0-7.65,9L333.49,683.1a10.88,10.88,0,0,0,5.09,7.45H309.35A9.68,9.68,0,0,0,300,698h247.1Zm-45.4-63.28a29.52,29.52,0,0,1-19.47,7,33.19,33.19,0,0,1-11.12-2l20.61-14.15,12.36,6.8A25.27,25.27,0,0,1,501.67,634.74ZM464.27,636c-5.5-4.11-9-10.08-9-16.74,0-12.39,12-22.45,26.89-22.45,9.9,0,18.55,4.47,23.22,11.12Zm-130.4,5.72-18.09-120.1a7.25,7.25,0,0,1,7.31-8.61H641.31a7.73,7.73,0,0,1,2.58.47A300.77,300.77,0,0,1,611.6,559q-4.86,5.64-10.24,11.25-2.1,2.17-4.27,4.35a265.26,265.26,0,0,1-23.9,21.1,249.46,249.46,0,0,1-57.83,33.85,25.06,25.06,0,0,0,2.24-10.23c0-16.27-15.9-29.54-35.4-29.54S446.81,603,446.81,619.28c0,10.82,7,20.28,17.47,25.43-25.1,4.76-53,6.39-84.11,3.75A400.19,400.19,0,0,1,333.87,641.74Z"/><path class="cls-22" d="M488.31,356.85c4.9.73,8.73,3.86,10,7.69a19.15,19.15,0,0,0,9.78-13.38h0a3.32,3.32,0,0,0-2.64-3.87l-.82-.15c-.15,3.32-2.26,6.31-4.58,6.62-2.81.37-23.9-4.14-25.09-6.09-.57-.94-.19-3.56.36-6l4.16.78-5.21-1a3.32,3.32,0,0,0-3.87,2.65h0a19.17,19.17,0,0,0,5.92,17.68C478.4,358.19,483.17,356.09,488.31,356.85Z"/><path class="cls-26" d="M488.31,356.85c-5.14-.76-9.91,1.34-12.08,4.94h0c.07.07.16.13.24.2.49.43,1,.84,1.54,1.23l.38.27a17.82,17.82,0,0,0,2,1.21c.14.08.29.14.44.21a18.77,18.77,0,0,0,1.79.75l.64.22a18.89,18.89,0,0,0,2.38.62c.61.12,1.22.19,1.83.25l.6,0c.4,0,.81,0,1.2,0l.71,0,1.08-.07.73-.09,1-.17c.24-.05.48-.09.71-.15s.69-.18,1-.28l.66-.19c.39-.13.77-.28,1.15-.44l.61-.25c.43-.19.87-.4,1.28-.62h0C497,360.71,493.21,357.58,488.31,356.85Z"/><path class="cls-8" d="M474.9,347.67c1.19,1.95,22.28,6.46,25.09,6.09,2.32-.31,4.43-3.3,4.58-6.62h0l-25.15-4.69-4.16-.78C474.71,344.11,474.33,346.73,474.9,347.67Z"/><path class="cls-27" d="M488,337c.74-2.17.37-6.55.19-7.08s-1.26-.9-2.12.33c0,0-3.4,4.33-3,7S487.24,339.21,488,337Z"/><path class="cls-12" d="M380.58,300.74h0l.24-.63c-.08.21-.17.42-.24.63l18.95,8.36Z"/><path class="cls-12" d="M413.39,293.83a99.55,99.55,0,0,0,13.9,2.43h0c.67.07,1.35.13,2,.18l1.09.07.65,0c1.39.08,2.79.13,4.2.14,1.25,0,2.52,0,3.78-.05l1.67-.08a77.82,77.82,0,0,0,8.73-1,74.75,74.75,0,0,0,11.14-2.8,73.51,73.51,0,0,0,8.81-3.6q2.28-1.1,4.54-2.39c13-7.42,25.81-19.67,37.17-38.92.38-1.27.78-2.55,1.15-3.82q.82-2.82,1.59-5.58c5.78-20.64,19.88-22.37,25.3-10.49,2.07,4.54,2.88,11,1.47,19.25,0,0,4.21,5.9,6,6.59,1.55.61,14.09-10.79,17.25-13.71.47-.42.73-.67.73-.67h0a16.85,16.85,0,0,0,1.6-4.92c1.32-5.95,2.35-15.32,1.24-18.93-1.55-5-24.74-36.72-44.41-36-2.82.1-5.63.36-8.43.68a176.51,176.51,0,0,1-3.5,20.6C500,248.41,470,280.09,429.86,281h0c-11.58.25-24-2-37-7.26-1.87,3.41-3.67,6.85-5.3,10.3a118.94,118.94,0,0,0,23.25,9.16Z"/><path class="cls-12" d="M404.4,310.84l-1.84-.64,1.84.67,1.68.57C405.53,311.26,405,311,404.4,310.84Z"/><path class="cls-12" d="M433.65,258.3c27.44,3.31,61.69-14.78,70.94-58.09a110.72,110.72,0,0,0,2.3-18.83c-38,7.13-72.78,33.85-97.4,66.48a43.62,43.62,0,0,0,24.16,10.44Z"/><path class="cls-12" d="M424,316.2l1.17.21-1.16-.24c-1.34-.25-2.68-.51-4.06-.82,1.37.31,2.72.6,4.05.85Z"/><path class="cls-12" d="M480.3,303.92c-.4.34-.79.7-1.2,1,.41-.33.81-.68,1.21-1s1-.87,1.47-1.31C481.3,303.07,480.79,303.49,480.3,303.92Z"/><path class="cls-12" d="M456,316.25c-.24.06-.5.09-.75.15-1,.22-2.06.44-3.13.61,1.05-.17,2.08-.36,3.09-.58C455.49,316.38,455.75,316.31,456,316.25Z"/><path class="cls-12" d="M464.52,313.6c-.37.15-.77.27-1.15.41-.76.29-1.52.59-2.31.84.76-.25,1.51-.51,2.25-.79Z"/><path class="cls-12" d="M470,311c-.37.2-.73.42-1.11.61L470,311c.74-.39,1.46-.8,2.18-1.22C471.51,310.22,470.77,310.6,470,311Z"/><path class="cls-12" d="M446.8,317.65c-.8.07-1.64.09-2.47.12-.68,0-1.35.09-2,.1.67,0,1.34,0,2-.06C445.14,317.77,446,317.72,446.8,317.65Z"/><path class="cls-12" d="M468.47,311.84c-.78.38-1.6.73-2.42,1.09-.31.14-.61.29-.92.42l.93-.39C466.88,312.6,467.68,312.23,468.47,311.84Z"/><path class="cls-12" d="M478.65,305.32l.05,0a.1.1,0,0,0-.05,0c-.45.36-.93.7-1.39,1.05s-1,.75-1.47,1.11c.5-.35,1-.72,1.48-1.09S478.19,305.68,478.65,305.32Z"/><path class="cls-12" d="M438.73,317.85l2.6,0h0c-.85,0-1.73,0-2.61-.05l-1.26,0h0Z"/><path class="cls-11" d="M429.86,281c40.14-.86,70.14-32.54,81.22-80.13a176.51,176.51,0,0,0,3.5-20.6v0c-.8.09-1.6.21-2.4.32l-1.45.19q-1.92.3-3.84.66v0a110.72,110.72,0,0,1-2.3,18.83c-9.25,43.31-43.5,61.4-70.94,58.09h0a43.62,43.62,0,0,1-24.16-10.44h0l-.3.42c-1.32,1.75-2.6,3.52-3.86,5.3-.39.55-.77,1.11-1.15,1.67q-1.49,2.14-2.91,4.32c-.41.62-.81,1.24-1.21,1.87q-1.43,2.24-2.79,4.49l-1,1.59c-.68,1.14-1.33,2.29-2,3.45-.51.9-1.05,1.79-1.54,2.7l0,0c13.05,5.24,25.45,7.51,37,7.26Z"/><path class="cls-16" d="M514,401.75l-.3.72c-1.35,3.21-6.86,16.29-8.88,19.95-1.54,2.78-8.79,10-13.5,14.59l-.78.76c-2,1.9-3.35,3.19-3.35,3.19h0v0c0,.09-.45,1.24,0,1.89s23.45,19.52,23.45,19.52,1.91,1.34,3.35-1.63,8.52-28,9.09-34.37c.42-4.56-1.26-16-2.23-22-.06-.36-.11-.7-.16-1-.29-1.73-.48-2.84-.48-2.84l-6-3.35-.09,1.94-.13,2.6Z"/><path class="cls-12" d="M567.35,249.3c-5,11.91-4.81,27.51.36,40.27a46.39,46.39,0,0,0,3.42,6.79c5.33,8.66,13.52,15,24.55,16.16h0c0-.19,0-.39.08-.59.16-.95.28-1.92.37-2.91,0-.36.08-.71.11-1.07.1-1.29.15-2.59.15-3.91v-.18c0-1.44-.08-2.91-.19-4.39,0-.2-.05-.4-.07-.6-.11-1.24-.25-2.48-.43-3.74l-.18-1.16c-.18-1.1-.38-2.19-.6-3.3-.09-.42-.17-.84-.27-1.26-.24-1.12-.52-2.25-.81-3.38-.09-.37-.18-.73-.28-1.1-.38-1.37-.78-2.74-1.22-4.12,0-.11-.06-.22-.1-.33-.5-1.56-1-3.11-1.61-4.66,0-.07,0-.13-.07-.19-.53-1.42-1.08-2.83-1.67-4.23-.14-.35-.29-.7-.44-1-.48-1.13-1-2.26-1.48-3.37l-.56-1.2c-.51-1.09-1-2.17-1.57-3.24l-.54-1.08c-.62-1.22-1.26-2.41-1.91-3.6-.1-.19-.2-.38-.31-.57-1.54-2.78-3.16-5.48-4.81-8.05l-.56-.85c-.64-1-1.28-1.93-1.92-2.86-.24-.34-.47-.68-.71-1-.62-.88-1.24-1.73-1.86-2.57l-.42-.58h0a34.13,34.13,0,0,0-3.39,5.52C568.05,247.69,567.69,248.49,567.35,249.3Z"/><path class="cls-28" d="M464.28,644.71c-10.43-5.15-17.47-14.61-17.47-25.43,0-16.27,15.9-29.54,35.39-29.54s35.4,13.27,35.4,29.54a25.06,25.06,0,0,1-2.24,10.23,249.46,249.46,0,0,0,57.83-33.85,265.26,265.26,0,0,0,23.9-21.1q2.17-2.17,4.27-4.35,5.37-5.6,10.24-11.25a300.77,300.77,0,0,0,32.29-45.46,7.73,7.73,0,0,0-2.58-.47H323.09a7.25,7.25,0,0,0-7.31,8.61l18.09,120.1a400.19,400.19,0,0,0,46.3,6.72C411.24,651.1,439.18,649.47,464.28,644.71Z"/><path class="cls-14" d="M482.2,596.83c-14.85,0-26.89,10.06-26.89,22.45,0,6.66,3.46,12.63,9,16.74L505.42,608C500.75,601.3,492.1,596.83,482.2,596.83Z"/><path class="cls-14" d="M471.08,639.73a33.19,33.19,0,0,0,11.12,2,29.52,29.52,0,0,0,19.47-7,25.27,25.27,0,0,0,2.38-2.36l-12.36-6.8Z"/><path class="cls-12" d="M756.08,730.13H194.69a12.65,12.65,0,0,0,12.59,12.59H758.5a12.65,12.65,0,0,0,12.59-12.59Z"/><polygon class="cls-29" points="597.85 709.86 597.85 698.57 597.85 698.02 597.38 698.02 592.4 698.02 582.88 698.02 580.49 698.02 580.49 709.86 580.49 717.54 580.49 730.13 597.85 730.13 597.85 717.54 597.85 709.86"/><polygon class="cls-29" points="633.43 709.86 633.43 701.95 633.43 701.55 633.43 698.02 615.21 698.02 615.21 700.01 615.21 709.86 615.21 717.54 615.21 730.13 633.43 730.13 633.43 717.54 633.43 709.86"/><polygon class="cls-29" points="642.11 702.63 642.11 703.83 642.11 709.86 642.11 717.54 642.11 730.13 671.83 730.13 671.83 717.54 671.83 698.02 664.43 698.02 642.11 698.02 642.11 702.63"/><polygon class="cls-29" points="709.21 730.13 737.39 730.13 737.39 717.54 737.39 698.02 728.54 698.02 711.93 698.02 709.21 698.02 709.21 717.54 709.21 730.13"/><path class="cls-29" d="M756.08,730.13H785.3a16.06,16.06,0,1,0,0-32.11H756.08v32.11Z"/><path class="cls-29" d="M547.07,717.54V698H180.48a16.06,16.06,0,1,0,0,32.11H547.07Zm-61.92-3.47a9.59,9.59,0,0,1-9.42,8.25h-294a9.55,9.55,0,1,1,0-19.09h294a9.55,9.55,0,0,1,9,6.63,9.41,9.41,0,0,1,.51,2.91A9.23,9.23,0,0,1,485.15,714.07Z"/><polygon class="cls-30" points="580.49 709.86 580.49 698.02 578.17 698.02 547.07 698.02 547.07 709.86 547.07 714.07 547.07 717.54 547.07 730.13 580.49 730.13 580.49 717.54 580.49 709.86"/><polygon class="cls-30" points="615.21 709.86 615.21 700.01 615.21 698.02 597.85 698.02 597.85 698.57 597.85 709.86 597.85 717.54 597.85 730.13 615.21 730.13 615.21 717.54 615.21 709.86"/><polygon class="cls-30" points="642.11 709.86 642.11 703.83 642.11 702.63 642.11 698.02 633.43 698.02 633.43 701.55 633.43 701.95 633.43 709.86 633.43 717.54 633.43 730.13 642.11 730.13 642.11 717.54 642.11 709.86"/><polygon class="cls-30" points="671.83 730.13 709.21 730.13 709.21 717.54 709.21 698.02 671.83 698.02 671.83 717.54 671.83 730.13"/><polygon class="cls-30" points="737.39 717.54 737.39 730.13 756.08 730.13 756.08 717.54 756.08 698.02 745.16 698.02 737.39 698.02 737.39 717.54"/><path class="cls-31" d="M475.73,703.23h-294a9.55,9.55,0,1,0,0,19.09h294a9.59,9.59,0,0,0,9.42-8.25,9.23,9.23,0,0,0,.13-1.3,9.41,9.41,0,0,0-.51-2.91A9.55,9.55,0,0,0,475.73,703.23Z"/></g></g></svg>