<svg xmlns="http://www.w3.org/2000/svg" viewBox="0 0 224.63 137.59"><defs><style>.cls-1{fill:#2b296f;}.cls-2{fill:#ebedf1;}.cls-3{fill:#6455a4;opacity:0.79;}</style></defs><g id="Layer_2" data-name="Layer 2"><g id="Layer_1-2" data-name="Layer 1"><path class="cls-1" d="M66.14,84.4H28.92a3.73,3.73,0,0,1-3.73-3.73h0a3.73,3.73,0,0,1,3.73-3.73H62.37A45.24,45.24,0,0,1,59.26,64.5h-10a3.73,3.73,0,0,1,0-7.46h9.88a44.93,44.93,0,0,1,2.66-12.43H31.84a3.73,3.73,0,0,1,0-7.46H65.27C73,23.49,87.56,12.36,105.82,6a112.44,112.44,0,0,0-23-2.35C37.07,3.61,0,30.48,0,63.64s37.07,60,82.8,60a108.91,108.91,0,0,0,36-6C95.22,112.76,76,100.43,66.14,84.4Z"/><path class="cls-1" d="M141.82,120.06a98.73,98.73,0,0,1,10.87,7.42l12.91,10.11-1.16-5.15a129.69,129.69,0,0,0-4-13.91,113.14,113.14,0,0,1-18.63,1.53Z"/><path class="cls-2" d="M31.84,37.15a3.73,3.73,0,0,0,0,7.46h30a49,49,0,0,1,3.48-7.46Z"/><path class="cls-2" d="M59.13,57H49.25a3.73,3.73,0,0,0,0,7.46h10A44,44,0,0,1,59,60C59,59,59.07,58,59.13,57Z"/><path class="cls-2" d="M28.92,76.94a3.73,3.73,0,0,0-3.73,3.73h0a3.73,3.73,0,0,0,3.73,3.73H66.14a50.67,50.67,0,0,1-3.77-7.46Z"/><path class="cls-3" d="M210.34,93.75c9-9.61,14.29-21.22,14.29-33.72,0-33.15-37.07-60-82.8-60a109.08,109.08,0,0,0-36,6c22.25,4.66,40.65,15.91,50.92,30.64h44.93a3.73,3.73,0,1,1,0,7.46H161.09c.39.82.76,1.65,1.1,2.49h39.48a3.73,3.73,0,1,1,0,7.46H164.54c.18.82.34,1.65.48,2.48h36.65a3.74,3.74,0,0,1,0,7.47H165.6c0,.83,0,1.66-.09,2.48h36.16a3.73,3.73,0,1,1,0,7.46H164.39c-.19.84-.42,1.67-.66,2.49h37.94a3.73,3.73,0,0,1,3.73,3.73h0a3.73,3.73,0,0,1-3.73,3.73H160.79a56.22,56.22,0,0,1-9.48,13.51,156.11,156.11,0,0,1,9.15,21.17,101,101,0,0,0,27-8.41,89,89,0,0,1,24.24,13.75L224.63,134l-1.16-5.15A146.18,146.18,0,0,0,210.34,93.75Z"/><path class="cls-3" d="M118.79,117.7a111.83,111.83,0,0,0,23,2.36,82.6,82.6,0,0,0-13.37-6.34A93.48,93.48,0,0,1,118.79,117.7Z"/><path class="cls-1" d="M160.79,83.85H145.05a3.66,3.66,0,0,1-1.94.55h-77c9.84,16,29.08,28.36,52.65,33.3a93.48,93.48,0,0,0,9.66-4,82.6,82.6,0,0,1,13.37,6.34h0a113.14,113.14,0,0,0,18.63-1.53,156.11,156.11,0,0,0-9.15-21.17A56.22,56.22,0,0,0,160.79,83.85Z"/><path class="cls-3" d="M160.79,83.85H145.05a3.66,3.66,0,0,1-1.94.55h-77c9.84,16,29.08,28.36,52.65,33.3a93.48,93.48,0,0,0,9.66-4,82.6,82.6,0,0,1,13.37,6.34h0a113.14,113.14,0,0,0,18.63-1.53,156.11,156.11,0,0,0-9.15-21.17A56.22,56.22,0,0,0,160.79,83.85Z"/><path class="cls-1" d="M143.11,44.61H61.79A44.93,44.93,0,0,0,59.13,57h45.92a3.72,3.72,0,0,1,1.94-.55h58c-.14-.83-.3-1.66-.48-2.48h-3.27a3.73,3.73,0,0,1,0-7.46h.92c-.34-.84-.71-1.67-1.1-2.49h-16A3.75,3.75,0,0,1,143.11,44.61Zm0,10H103.53a3.74,3.74,0,0,1,0-7.47h39.58a3.74,3.74,0,0,1,0,7.47Z"/><path class="cls-3" d="M143.11,44.61H61.79A44.93,44.93,0,0,0,59.13,57h45.92a3.72,3.72,0,0,1,1.94-.55h58c-.14-.83-.3-1.66-.48-2.48h-3.27a3.73,3.73,0,0,1,0-7.46h.92c-.34-.84-.71-1.67-1.1-2.49h-16A3.75,3.75,0,0,1,143.11,44.61Zm0,10H103.53a3.74,3.74,0,0,1,0-7.47h39.58a3.74,3.74,0,0,1,0,7.47Z"/><path class="cls-1" d="M65.27,37.15H87.64a3.63,3.63,0,0,1,1.94-.55h67.16c-10.27-14.73-28.67-26-50.92-30.64C87.56,12.36,73,23.49,65.27,37.15Z"/><path class="cls-3" d="M65.27,37.15H87.64a3.63,3.63,0,0,1,1.94-.55h67.16c-10.27-14.73-28.67-26-50.92-30.64C87.56,12.36,73,23.49,65.27,37.15Z"/><path class="cls-1" d="M143.11,64.5H59.26a45.24,45.24,0,0,0,3.11,12.44H84.72a3.66,3.66,0,0,1,1.94-.55h77.07c.24-.82.47-1.65.66-2.49h-10a3.73,3.73,0,1,1,0-7.46h11.16c.05-.82.08-1.65.09-2.48H145.05A3.74,3.74,0,0,1,143.11,64.5Zm0,10H96.61a3.73,3.73,0,0,1,0-7.46h46.5a3.73,3.73,0,0,1,0,7.46Z"/><path class="cls-3" d="M143.11,64.5H59.26a45.24,45.24,0,0,0,3.11,12.44H84.72a3.66,3.66,0,0,1,1.94-.55h77.07c.24-.82.47-1.65.66-2.49h-10a3.73,3.73,0,1,1,0-7.46h11.16c.05-.82.08-1.65.09-2.48H145.05A3.74,3.74,0,0,1,143.11,64.5Zm0,10H96.61a3.73,3.73,0,0,1,0-7.46h46.5a3.73,3.73,0,0,1,0,7.46Z"/><path class="cls-2" d="M145.05,44.06H89.58a3.73,3.73,0,0,1-1.94-6.91H65.27a49,49,0,0,0-3.48,7.46h81.32A3.75,3.75,0,0,0,145.05,44.06Z"/><path class="cls-3" d="M145.05,44.06H89.58a3.73,3.73,0,0,1-1.94-6.91H65.27a49,49,0,0,0-3.48,7.46h81.32A3.75,3.75,0,0,0,145.05,44.06Z"/><path class="cls-2" d="M143.11,47.09H103.53a3.74,3.74,0,0,0,0,7.47h39.58a3.74,3.74,0,0,0,0-7.47Z"/><path class="cls-3" d="M143.11,47.09H103.53a3.74,3.74,0,0,0,0,7.47h39.58a3.74,3.74,0,0,0,0-7.47Z"/><path class="cls-2" d="M145.05,64H107A3.73,3.73,0,0,1,105.05,57H59.13c-.06,1-.1,2-.1,3a44,44,0,0,0,.23,4.47h83.85A3.74,3.74,0,0,0,145.05,64Z"/><path class="cls-3" d="M145.05,64H107A3.73,3.73,0,0,1,105.05,57H59.13c-.06,1-.1,2-.1,3a44,44,0,0,0,.23,4.47h83.85A3.74,3.74,0,0,0,145.05,64Z"/><path class="cls-2" d="M143.11,67H96.61a3.73,3.73,0,0,0,0,7.46h46.5a3.73,3.73,0,0,0,0-7.46Z"/><path class="cls-3" d="M143.11,67H96.61a3.73,3.73,0,0,0,0,7.46h46.5a3.73,3.73,0,0,0,0-7.46Z"/><path class="cls-2" d="M86.66,83.85a3.73,3.73,0,0,1-3.73-3.73h0a3.7,3.7,0,0,1,1.79-3.18H62.37a50.67,50.67,0,0,0,3.77,7.46h77a3.66,3.66,0,0,0,1.94-.55H86.66Z"/><path class="cls-3" d="M86.66,83.85a3.73,3.73,0,0,1-3.73-3.73h0a3.7,3.7,0,0,1,1.79-3.18H62.37a50.67,50.67,0,0,0,3.77,7.46h77a3.66,3.66,0,0,0,1.94-.55H86.66Z"/><path class="cls-2" d="M89.58,36.6a3.63,3.63,0,0,0-1.94.55,3.73,3.73,0,0,0,1.94,6.91H201.67a3.73,3.73,0,1,0,0-7.46H89.58Z"/><path class="cls-2" d="M161.27,46.55a3.73,3.73,0,0,0,0,7.46h40.4a3.73,3.73,0,1,0,0-7.46h-40.4Z"/><path class="cls-2" d="M107,56.49A3.74,3.74,0,0,0,107,64h94.68a3.74,3.74,0,0,0,0-7.47H107Z"/><path class="cls-2" d="M154.35,66.44a3.73,3.73,0,1,0,0,7.46h47.32a3.73,3.73,0,1,0,0-7.46H154.35Z"/><path class="cls-2" d="M86.66,76.39a3.66,3.66,0,0,0-1.94.55,3.7,3.7,0,0,0-1.79,3.18h0a3.73,3.73,0,0,0,3.73,3.73h115a3.73,3.73,0,0,0,3.73-3.73h0a3.73,3.73,0,0,0-3.73-3.73h-115Z"/></g></g></svg>