<?xml version="1.0" encoding="utf-8"?>
<!-- Generator: Adobe Illustrator 26.0.3, SVG Export Plug-In . SVG Version: 6.00 Build 0)  -->
<svg version="1.1" id="Capa_1" xmlns="http://www.w3.org/2000/svg" xmlns:xlink="http://www.w3.org/1999/xlink" x="0px" y="0px"
	 viewBox="0 0 952.3 952.3" style="enable-background:new 0 0 952.3 952.3;" xml:space="preserve">
<style type="text/css">
	.st0{fill:#EBEDF2;}
</style>
<g>
	<path class="st0" d="M750.8,110.2h-41.1c0,0.9,0.1,1.8,0.1,2.7v27.9c0,10.9-2.2,21.3-6.2,30.8h9.6c16.6,0,30,13.4,30,30v476.6
		h-80.9c-46.4,0-84.2,37.8-84.2,84.2v83H476.3H239.2c-16.6,0-30-13.4-30-30V201.6c0-16.6,13.4-30,30-30h9.6
		c-4-9.5-6.2-19.9-6.2-30.8v-27.9c0-0.9,0-1.8,0.1-2.7h-41.1c-29.4,0-53.3,23.9-53.3,53.3V899c0,29.4,23.9,53.3,53.3,53.3h549.2
		c29.4,0,53.3-23.9,53.3-53.3V163.5C804.2,134,780.2,110.2,750.8,110.2z M628.2,832.1v-69.7c0-18.9,15.3-34.2,34.2-34.2h68.1
		L628.2,832.1z"/>
	<path class="st0" d="M516.8,0h-81.2c-27.6,0-50,22.4-50,50v12.9h-63c-26.7,0-48.5,20.9-49.9,47.3c0,0.9-0.1,1.8-0.1,2.7v27.9
		c0,11.6,4,22.3,10.6,30.8c9.2,11.7,23.4,19.2,39.4,19.2h307.2c16,0,30.2-7.5,39.4-19.2c6.7-8.5,10.6-19.2,10.6-30.8v-27.9
		c0-0.9,0-1.8-0.1-2.7c-1.4-26.4-23.2-47.3-49.9-47.3h-63V50C566.8,22.4,544.5,0,516.8,0z M476.2,43.6c18.2,0,33,14.8,33,33
		s-14.8,33-33,33s-33-14.8-33-33S458,43.6,476.2,43.6z"/>
	<path class="st0" d="M615,353.9H337.4c-13.8,0-25,11.2-25,25s11.2,25,25,25H615c13.8,0,25-11.2,25-25S628.8,353.9,615,353.9z"/>
	<path class="st0" d="M615,506.2H337.4c-13.8,0-25,11.2-25,25s11.2,25,25,25H615c13.8,0,25-11.2,25-25S628.8,506.2,615,506.2z"/>
</g>
</svg>
