<svg id="Layer_1" data-name="Layer 1" xmlns="http://www.w3.org/2000/svg" viewBox="0 0 720 829.28"><defs><style>.cls-1{fill:#2b296f;}.cls-2{fill:#ecedf2;}</style></defs><path class="cls-1" d="M625.35,280.56H408.28a9.64,9.64,0,0,1-9.61-9.6V63.79s.16-8.72-8.43-8.72H79.71A15.92,15.92,0,0,0,63.83,71V760.21a15.93,15.93,0,0,0,15.88,15.88h538.9a15.93,15.93,0,0,0,15.88-15.88V290.08S634.49,280.56,625.35,280.56Zm-370.06,419c10.28,0,19-4.11,25.85-12.19l15.27,14.1c-9.69,11.9-24.52,18.36-42.44,18.36-31.88,0-55.67-22.18-55.67-53.17s23.79-53.17,55.81-53.17c17.78,0,32.61,6.46,42.3,18.21l-15.27,14.1c-6.9-7.93-15.57-12-25.85-12-19.24,0-32.9,13.51-32.9,32.9S236.05,699.54,255.29,699.54Zm91.65,20.27c-16.3,0-32.75-4.85-41.86-11.9L313.16,690c8.66,6.32,21.59,10.72,33.93,10.72,14.1,0,19.83-4.7,19.83-11,0-19.24-59.79-6-59.79-44.21,0-17.48,14.11-32,43.33-32,12.93,0,26.15,3.08,35.7,9.1l-7.35,18.07c-9.54-5.43-19.39-8.08-28.49-8.08-14.1,0-19.54,5.29-19.54,11.75,0,19,59.78,5.88,59.78,43.63C390.56,705.12,376.32,719.81,346.94,719.81Zm95.32,0c-16.3,0-32.75-4.85-41.86-11.9L408.48,690c8.67,6.32,21.59,10.72,33.93,10.72,14.1,0,19.83-4.7,19.83-11,0-19.24-59.78-6-59.78-44.21,0-17.48,14.1-32,43.33-32,12.92,0,26.14,3.08,35.69,9.1l-7.34,18.07c-9.55-5.43-19.39-8.08-28.5-8.08-14.1,0-19.53,5.29-19.53,11.75,0,19,59.78,5.88,59.78,43.63C485.89,705.12,471.64,719.81,442.26,719.81Z"/><path class="cls-1" d="M441.63,250.23H627.84c6.72,0,8.24-3.84,3.37-8.52l-193-184c-4.87-4.69-8.85-3-8.85,3.83V237.88A12.32,12.32,0,0,0,441.63,250.23Z"/><path class="cls-2" d="M255.29,633.74c10.28,0,19,4.11,25.85,12l15.27-14.1c-9.69-11.75-24.52-18.21-42.3-18.21-32,0-55.81,22.18-55.81,53.17s23.79,53.17,55.67,53.17c17.92,0,32.75-6.46,42.44-18.36l-15.27-14.1c-6.9,8.08-15.57,12.19-25.85,12.19-19.24,0-32.9-13.51-32.9-32.9S236.05,633.74,255.29,633.74Z"/><path class="cls-2" d="M330.78,644.31c0-6.46,5.44-11.75,19.54-11.75,9.1,0,18.95,2.65,28.49,8.08l7.35-18.07c-9.55-6-22.77-9.1-35.7-9.1-29.22,0-43.33,14.54-43.33,32,0,38.19,59.79,25,59.79,44.21,0,6.31-5.73,11-19.83,11-12.34,0-25.27-4.4-33.93-10.72l-8.08,17.92c9.11,7.05,25.56,11.9,41.86,11.9,29.38,0,43.62-14.69,43.62-31.87C390.56,650.19,330.78,663.26,330.78,644.31Z"/><path class="cls-2" d="M426.11,644.31c0-6.46,5.43-11.75,19.53-11.75,9.11,0,18.95,2.65,28.5,8.08l7.34-18.07c-9.55-6-22.77-9.1-35.69-9.1-29.23,0-43.33,14.54-43.33,32,0,38.19,59.78,25,59.78,44.21,0,6.31-5.73,11-19.83,11-12.34,0-25.26-4.4-33.93-10.72l-8.08,17.92c9.11,7.05,25.56,11.9,41.86,11.9,29.38,0,43.63-14.69,43.63-31.87C485.89,650.19,426.11,663.26,426.11,644.31Z"/></svg>