<?xml version="1.0" encoding="utf-8"?>
<!-- Generator: Adobe Illustrator 26.0.3, SVG Export Plug-In . SVG Version: 6.00 Build 0)  -->
<svg version="1.1" id="Layer_1" xmlns="http://www.w3.org/2000/svg" xmlns:xlink="http://www.w3.org/1999/xlink" x="0px" y="0px"
	 viewBox="0 0 720 829.3" style="enable-background:new 0 0 720 829.3;" xml:space="preserve">
<style type="text/css">
	.st0{fill:#EBEDF2;}
	.st1{fill:#2B296F;}
</style>
<path class="st0" d="M625.3,280.6H408.3c-5.3,0-9.6-4.3-9.6-9.6V63.8c0,0,0.2-8.7-8.4-8.7H79.7c-8.8,0-15.9,7.1-15.9,15.9v689.2
	c0,8.8,7.1,15.9,15.9,15.9h538.9c8.8,0,15.9-7.1,15.9-15.9V290.1C634.5,290.1,634.5,280.6,625.3,280.6z M255.3,699.6
	c10.3,0,19-4.1,25.9-12.2l15.3,14.1c-9.7,11.9-24.5,18.4-42.4,18.4c-31.9,0-55.7-22.2-55.7-53.2s23.8-53.2,55.8-53.2
	c17.8,0,32.6,6.5,42.3,18.2l-15.3,14.1c-6.9-7.9-15.6-12-25.9-12c-19.2,0-32.9,13.5-32.9,32.9S236.1,699.5,255.3,699.6L255.3,699.6z
	 M346.9,719.8c-16.3,0-32.8-4.8-41.9-11.9l8.1-17.9c8.7,6.3,21.6,10.7,33.9,10.7c14.1,0,19.8-4.7,19.8-11c0-19.2-59.8-6-59.8-44.2
	c0-17.5,14.1-32,43.3-32c12.9,0,26.1,3.1,35.7,9.1l-7.4,18.1c-9.5-5.4-19.4-8.1-28.5-8.1c-14.1,0-19.5,5.3-19.5,11.8
	c0,19,59.8,5.9,59.8,43.6C390.6,705.1,376.3,719.8,346.9,719.8L346.9,719.8z M442.3,719.8c-16.3,0-32.8-4.8-41.9-11.9l8.1-17.9
	c8.7,6.3,21.6,10.7,33.9,10.7c14.1,0,19.8-4.7,19.8-11c0-19.2-59.8-6-59.8-44.2c0-17.5,14.1-32,43.3-32c12.9,0,26.1,3.1,35.7,9.1
	l-7.3,18.1c-9.5-5.4-19.4-8.1-28.5-8.1c-14.1,0-19.5,5.3-19.5,11.8c0,19,59.8,5.9,59.8,43.6C485.9,705.1,471.6,719.8,442.3,719.8
	L442.3,719.8z"/>
<path class="st0" d="M441.6,250.2h186.2c6.7,0,8.2-3.8,3.4-8.5l-193-184c-4.9-4.7-8.9-3-8.9,3.8v176.3
	C429.3,244.7,434.8,250.2,441.6,250.2z"/>
<path class="st1" d="M255.3,633.7c10.3,0,19,4.1,25.8,12l15.3-14.1c-9.7-11.8-24.5-18.2-42.3-18.2c-32,0-55.8,22.2-55.8,53.2
	s23.8,53.2,55.7,53.2c17.9,0,32.8-6.5,42.4-18.4l-15.3-14.1c-6.9,8.1-15.6,12.2-25.9,12.2c-19.2,0-32.9-13.5-32.9-32.9
	S236.1,633.7,255.3,633.7z"/>
<path class="st1" d="M330.8,644.3c0-6.5,5.4-11.8,19.5-11.8c9.1,0,19,2.7,28.5,8.1l7.4-18.1c-9.5-6-22.8-9.1-35.7-9.1
	c-29.2,0-43.3,14.5-43.3,32c0,38.2,59.8,25,59.8,44.2c0,6.3-5.7,11-19.8,11c-12.3,0-25.3-4.4-33.9-10.7l-8.1,17.9
	c9.1,7,25.6,11.9,41.9,11.9c29.4,0,43.6-14.7,43.6-31.9C390.6,650.2,330.8,663.3,330.8,644.3z"/>
<path class="st1" d="M426.1,644.3c0-6.5,5.4-11.8,19.5-11.8c9.1,0,19,2.7,28.5,8.1l7.3-18.1c-9.5-6-22.8-9.1-35.7-9.1
	c-29.2,0-43.3,14.5-43.3,32c0,38.2,59.8,25,59.8,44.2c0,6.3-5.7,11-19.8,11c-12.3,0-25.3-4.4-33.9-10.7l-8.1,17.9
	c9.1,7,25.6,11.9,41.9,11.9c29.4,0,43.6-14.7,43.6-31.9C485.9,650.2,426.1,663.3,426.1,644.3z"/>
</svg>
