<svg xmlns="http://www.w3.org/2000/svg" viewBox="0 0 164.11 157.76"><defs><style>.cls-1{fill:#2b296f;}.cls-2{fill:#ebedf1;}.cls-3,.cls-4{fill:#6455a4;}.cls-3{opacity:0.79;}.cls-5{fill:none;}.cls-6{fill:#5157a6;}.cls-7{fill:#76bf6b;}.cls-8{fill:#32ace2;}.cls-9{fill:#ef4968;}.cls-10{fill:#28c3ec;}.cls-11{fill:#f3cb52;}.cls-12{fill:#afafd8;}</style></defs><g id="Layer_2" data-name="Layer 2"><g id="Layer_1-2" data-name="Layer 1"><path class="cls-1" d="M13.71,129.52H6A.78.78,0,1,1,6,128h6.93a9.5,9.5,0,0,1-.64-2.57H10.21a.77.77,0,0,1-.77-.78.76.76,0,0,1,.77-.77h2a9.43,9.43,0,0,1,.55-2.58H6.6a.78.78,0,0,1,0-1.55h6.93a15.31,15.31,0,0,1,8.41-6.46,23,23,0,0,0-4.77-.49C7.69,112.77,0,118.34,0,125.22s7.69,12.44,17.17,12.44a22.66,22.66,0,0,0,7.46-1.23C19.74,135.4,15.75,132.85,13.71,129.52Z"/><path class="cls-1" d="M29.41,136.91a22.48,22.48,0,0,1,2.25,1.54l2.68,2.1-.24-1.07a26.63,26.63,0,0,0-.83-2.88,24.23,24.23,0,0,1-3.86.31Z"/><path class="cls-2" d="M6.6,119.72a.78.78,0,0,0,0,1.55h6.21a11.44,11.44,0,0,1,.72-1.55Z"/><path class="cls-2" d="M12.26,123.85h-2a.76.76,0,0,0-.77.77.77.77,0,0,0,.77.78h2.08c0-.31,0-.62,0-.93S12.25,124.05,12.26,123.85Z"/><path class="cls-2" d="M6,128a.78.78,0,1,0,0,1.55h7.71a11.83,11.83,0,0,1-.78-1.55Z"/><path class="cls-3" d="M29.41,112a22.42,22.42,0,0,0-7.47,1.24c4.62,1,8.43,3.29,10.56,6.35h9.32a.78.78,0,0,1,0,1.55H33.4c.08.17.16.34.23.51h8.19a.78.78,0,0,1,0,1.55h-7.7c0,.17.07.34.1.51h7.6a.78.78,0,0,1,0,1.55H34.34c0,.17,0,.35,0,.52h7.5a.77.77,0,1,1,0,1.54H34.09c0,.18-.09.35-.14.52h7.87a.78.78,0,0,1,.77.77h0a.78.78,0,0,1-.77.78H33.34a11.67,11.67,0,0,1-2,2.8,31.48,31.48,0,0,1,1.9,4.39,20.84,20.84,0,0,0,5.6-1.75,18.66,18.66,0,0,1,5,2.85l2.68,2.1-.24-1.07a30.4,30.4,0,0,0-2.73-7.27,10.2,10.2,0,0,0,3-7C46.58,117.59,38.89,112,29.41,112Z"/><path class="cls-3" d="M24.63,136.43a23.91,23.91,0,0,0,4.78.48,17.9,17.9,0,0,0-2.78-1.31A19,19,0,0,1,24.63,136.43Z"/><path class="cls-1" d="M33.34,129.41H30.08a.81.81,0,0,1-.41.11h-16c2,3.33,6,5.88,10.92,6.91a19,19,0,0,0,2-.83,17.9,17.9,0,0,1,2.78,1.31h0a24.23,24.23,0,0,0,3.86-.31,31.48,31.48,0,0,0-1.9-4.39A11.67,11.67,0,0,0,33.34,129.41Z"/><path class="cls-3" d="M33.34,129.41H30.08a.81.81,0,0,1-.41.11h-16c2,3.33,6,5.88,10.92,6.91a19,19,0,0,0,2-.83,17.9,17.9,0,0,1,2.78,1.31h0a24.23,24.23,0,0,0,3.86-.31,31.48,31.48,0,0,0-1.9-4.39A11.67,11.67,0,0,0,33.34,129.41Z"/><path class="cls-1" d="M29.67,121.27H12.81a9.43,9.43,0,0,0-.55,2.58h9.52a.81.81,0,0,1,.4-.12h12c0-.17-.07-.34-.1-.51h-.68a.78.78,0,0,1,0-1.55h.19c-.07-.17-.15-.34-.23-.51H30.08A.81.81,0,0,1,29.67,121.27Zm.78,1.29a.77.77,0,0,1-.78.77h-8.2a.77.77,0,1,1,0-1.54h8.2A.77.77,0,0,1,30.45,122.56Z"/><path class="cls-3" d="M29.67,121.27H12.81a9.43,9.43,0,0,0-.55,2.58h9.52a.81.81,0,0,1,.4-.12h12c0-.17-.07-.34-.1-.51h-.68a.78.78,0,0,1,0-1.55h.19c-.07-.17-.15-.34-.23-.51H30.08A.81.81,0,0,1,29.67,121.27Zm.78,1.29a.77.77,0,0,1-.78.77h-8.2a.77.77,0,1,1,0-1.54h8.2A.77.77,0,0,1,30.45,122.56Z"/><path class="cls-1" d="M13.53,119.72h4.64a.8.8,0,0,1,.4-.11H32.5c-2.13-3.06-5.94-5.39-10.56-6.35A15.31,15.31,0,0,0,13.53,119.72Z"/><path class="cls-3" d="M13.53,119.72h4.64a.8.8,0,0,1,.4-.11H32.5c-2.13-3.06-5.94-5.39-10.56-6.35A15.31,15.31,0,0,0,13.53,119.72Z"/><path class="cls-1" d="M29.67,125.4H12.29a9.5,9.5,0,0,0,.64,2.57h4.64a.75.75,0,0,1,.4-.11H34c0-.17.1-.34.14-.52H32a.77.77,0,1,1,0-1.54h2.32c0-.17,0-.35,0-.52H30.08A.82.82,0,0,1,29.67,125.4Zm.78,1.28a.78.78,0,0,1-.78.78H20a.78.78,0,0,1,0-1.55h9.64A.78.78,0,0,1,30.45,126.68Z"/><path class="cls-3" d="M29.67,125.4H12.29a9.5,9.5,0,0,0,.64,2.57h4.64a.75.75,0,0,1,.4-.11H34c0-.17.1-.34.14-.52H32a.77.77,0,1,1,0-1.54h2.32c0-.17,0-.35,0-.52H30.08A.82.82,0,0,1,29.67,125.4Zm.78,1.28a.78.78,0,0,1-.78.78H20a.78.78,0,0,1,0-1.55h9.64A.78.78,0,0,1,30.45,126.68Z"/><path class="cls-2" d="M30.08,121.16H18.57a.78.78,0,0,1-.4-1.44H13.53a11.44,11.44,0,0,0-.72,1.55H29.67A.81.81,0,0,0,30.08,121.16Z"/><path class="cls-3" d="M30.08,121.16H18.57a.78.78,0,0,1-.4-1.44H13.53a11.44,11.44,0,0,0-.72,1.55H29.67A.81.81,0,0,0,30.08,121.16Z"/><path class="cls-2" d="M21.47,121.79a.77.77,0,1,0,0,1.54h8.2a.77.77,0,1,0,0-1.54Z"/><path class="cls-3" d="M21.47,121.79a.77.77,0,1,0,0,1.54h8.2a.77.77,0,1,0,0-1.54Z"/><path class="cls-2" d="M30.08,125.28h-7.9a.78.78,0,0,1-.77-.77.77.77,0,0,1,.37-.66H12.26c0,.2,0,.41,0,.62s0,.62,0,.93H29.67A.82.82,0,0,0,30.08,125.28Z"/><path class="cls-3" d="M30.08,125.28h-7.9a.78.78,0,0,1-.77-.77.77.77,0,0,1,.37-.66H12.26c0,.2,0,.41,0,.62s0,.62,0,.93H29.67A.82.82,0,0,0,30.08,125.28Z"/><path class="cls-2" d="M20,125.91a.78.78,0,0,0,0,1.55h9.64a.78.78,0,1,0,0-1.55Z"/><path class="cls-3" d="M20,125.91a.78.78,0,0,0,0,1.55h9.64a.78.78,0,1,0,0-1.55Z"/><path class="cls-2" d="M18,129.41a.78.78,0,0,1-.78-.78h0a.77.77,0,0,1,.38-.66H12.93a11.83,11.83,0,0,0,.78,1.55h16a.81.81,0,0,0,.41-.11H18Z"/><path class="cls-3" d="M18,129.41a.78.78,0,0,1-.78-.78h0a.77.77,0,0,1,.38-.66H12.93a11.83,11.83,0,0,0,.78,1.55h16a.81.81,0,0,0,.41-.11H18Z"/><path class="cls-2" d="M18.57,119.61a.8.8,0,0,0-.4.11.78.78,0,0,0,.4,1.44H41.82a.78.78,0,0,0,0-1.55H18.57Z"/><path class="cls-2" d="M33.44,121.67a.78.78,0,0,0,0,1.55h8.38a.78.78,0,0,0,0-1.55H33.44Z"/><path class="cls-2" d="M22.18,123.73a.81.81,0,0,0-.4.12.77.77,0,0,0-.37.66.78.78,0,0,0,.77.77H41.82a.78.78,0,0,0,0-1.55H22.18Z"/><path class="cls-2" d="M32,125.8a.77.77,0,1,0,0,1.54h9.82a.77.77,0,1,0,0-1.54H32Z"/><path class="cls-2" d="M18,127.86a.75.75,0,0,0-.4.11.77.77,0,0,0-.38.66h0a.78.78,0,0,0,.78.78H41.82a.78.78,0,0,0,.77-.78h0a.78.78,0,0,0-.77-.77H18Z"/><path class="cls-4" d="M5.71,42.07V56.46a2.86,2.86,0,0,0,2.36,2.77s0,0,0,0V44.79A2.87,2.87,0,0,1,11,42H25.85a2.67,2.67,0,0,1,.56.06,2.87,2.87,0,0,0-2.91-2.78H8.63A2.87,2.87,0,0,0,5.71,42.07Z"/><path class="cls-1" d="M5,55.87V41.43a2.86,2.86,0,0,1,2.91-2.82H22.73a3.43,3.43,0,0,1,.56,0,2.87,2.87,0,0,0-2.91-2.77H5.51A2.86,2.86,0,0,0,2.6,38.71V53.1A2.85,2.85,0,0,0,5,55.87Z"/><path class="cls-1" d="M8.89,45.71v14.4a2.87,2.87,0,0,0,2.91,2.82H26.67a2.87,2.87,0,0,0,2.91-2.82V45.71a2.86,2.86,0,0,0-2.91-2.81H11.8A2.86,2.86,0,0,0,8.89,45.71Z"/><rect class="cls-5" x="124.66" y="124.83" width="13.94" height="5.25"/><rect class="cls-5" x="124.66" y="118.28" width="13.94" height="5.25"/><rect class="cls-5" x="124.66" y="131.38" width="13.94" height="5.25"/><rect class="cls-5" x="124.66" y="144.47" width="13.94" height="5.25"/><rect class="cls-5" x="124.66" y="137.93" width="13.94" height="5.25"/><rect class="cls-6" x="124.66" y="116.98" width="13.94" height="1.3"/><rect class="cls-6" x="124.66" y="123.53" width="13.94" height="1.3"/><rect class="cls-6" x="124.66" y="130.08" width="13.94" height="1.3"/><rect class="cls-6" x="124.66" y="136.63" width="13.94" height="1.3"/><rect class="cls-6" x="124.66" y="143.17" width="13.94" height="1.3"/><rect class="cls-6" x="124.66" y="149.72" width="13.94" height="1.3"/><path class="cls-1" d="M123.69,149.72h1v-5.25h-1v-1.3h1v-5.24h-1v-1.3h1v-5.25h-1v-1.3h1v-5.25h-1v-1.3h1v-5.25h-1V117h1v-2.63a1,1,0,0,0-2,0v40a1,1,0,0,0,2,0V151h-1Z"/><rect class="cls-1" x="123.69" y="116.98" width="0.97" height="1.3"/><rect class="cls-1" x="123.69" y="123.53" width="0.97" height="1.3"/><rect class="cls-1" x="123.69" y="130.08" width="0.97" height="1.3"/><rect class="cls-1" x="123.69" y="136.63" width="0.97" height="1.3"/><rect class="cls-1" x="123.69" y="143.17" width="0.97" height="1.3"/><rect class="cls-1" x="123.69" y="149.72" width="0.97" height="1.3"/><path class="cls-1" d="M139.58,113.38a1,1,0,0,0-1,1V117h.67v1.3h-.67v5.25h.67v1.3h-.67v5.25h.67v1.3h-.67v5.25h.67v1.3h-.67v5.24h.67v1.3h-.67v5.25h.67V151h-.67v3.37a1,1,0,1,0,1.94,0v-40A1,1,0,0,0,139.58,113.38Z"/><rect class="cls-1" x="138.61" y="116.98" width="0.67" height="1.3"/><rect class="cls-1" x="138.61" y="123.53" width="0.67" height="1.3"/><rect class="cls-1" x="138.61" y="130.08" width="0.67" height="1.3"/><rect class="cls-1" x="138.61" y="136.63" width="0.67" height="1.3"/><rect class="cls-1" x="138.61" y="143.17" width="0.67" height="1.3"/><rect class="cls-1" x="138.61" y="149.72" width="0.67" height="1.3"/><path class="cls-1" d="M132.85,7h-25V43.37h25Zm-23.08,6h17.65a.58.58,0,0,1,0,1.15H109.77a.58.58,0,0,1,0-1.15Zm-.57-1.37a.56.56,0,0,1,.57-.57h8.55a.56.56,0,0,1,.57.57.57.57,0,0,1-.57.57h-8.55A.57.57,0,0,1,109.2,11.59Zm.57,3.32h1a.57.57,0,0,1,.57.57.56.56,0,0,1-.57.57h-1a.56.56,0,0,1-.57-.57A.57.57,0,0,1,109.77,14.91Zm0,1.95h13.72a.58.58,0,0,1,.57.57.57.57,0,0,1-.57.57H109.77a.56.56,0,0,1-.57-.57A.57.57,0,0,1,109.77,16.86Zm-.57,2.52a.57.57,0,0,1,.57-.57h19a.58.58,0,0,1,.57.57h0a.57.57,0,0,1-.57.57h-19a.56.56,0,0,1-.57-.57Zm0,5.85a.56.56,0,0,1,.57-.57h17.9a.56.56,0,0,1,.57.57.57.57,0,0,1-.57.57h-17.9A.57.57,0,0,1,109.2,25.23Zm0-1.95a.57.57,0,0,1,.57-.57h5.38a.57.57,0,0,1,.57.57.56.56,0,0,1-.57.57h-5.38A.56.56,0,0,1,109.2,23.28Zm21.86,4.47h-13a.58.58,0,0,1-.57-.57.57.57,0,0,1,.57-.57h13a.56.56,0,0,1,.57.57A.57.57,0,0,1,131.06,27.75Zm0-5.85H109.77a.56.56,0,0,1-.57-.57.57.57,0,0,1,.57-.57h21.29a.57.57,0,0,1,.57.57A.56.56,0,0,1,131.06,21.9Zm.57-12.26a.57.57,0,0,1-.57.57H109.77a.57.57,0,0,1-.57-.57h0a.56.56,0,0,1,.57-.57h21.29a.56.56,0,0,1,.57.57Z"/><path class="cls-1" d="M158.68,43.37V7H133.42V43.37Zm-11.8-23.61a.38.38,0,0,1,.38-.38h6.49a.38.38,0,0,1,.38.33.38.38,0,0,1,.29.37v6.5A.38.38,0,0,1,154,27h-6.5a.38.38,0,0,1-.37-.33.38.38,0,0,1-.29-.37Zm-8.69-6.41a.39.39,0,0,1,.38-.39h6.5a.4.4,0,0,1,.38.33.39.39,0,0,1,.29.37v6.5a.38.38,0,0,1-.38.38h-6.5a.39.39,0,0,1-.38-.33.39.39,0,0,1-.29-.37Z"/><polygon class="cls-4" points="133.13 43.37 133.37 43.37 133.42 43.37 133.42 7 133.37 7 133.13 7 132.85 7 132.85 43.37 133.13 43.37"/><rect class="cls-7" x="109.2" y="9.07" width="22.44" height="1.14" rx="0.57"/><path class="cls-8" d="M109.77,12.16h8.55a.57.57,0,0,0,.57-.57.56.56,0,0,0-.57-.57h-8.55a.56.56,0,0,0-.57.57A.57.57,0,0,0,109.77,12.16Z"/><path class="cls-9" d="M109.77,14.11h17.65a.58.58,0,0,0,0-1.15H109.77a.58.58,0,0,0,0,1.15Z"/><path class="cls-8" d="M109.77,16.05h1a.56.56,0,0,0,.57-.57.57.57,0,0,0-.57-.57h-1a.57.57,0,0,0-.57.57A.56.56,0,0,0,109.77,16.05Z"/><path class="cls-10" d="M109.77,18h13.72a.57.57,0,0,0,.57-.57.58.58,0,0,0-.57-.57H109.77a.57.57,0,0,0-.57.57A.56.56,0,0,0,109.77,18Z"/><rect class="cls-7" x="109.2" y="18.81" width="20.12" height="1.14" rx="0.57"/><path class="cls-11" d="M131.06,20.76H109.77a.57.57,0,0,0-.57.57.56.56,0,0,0,.57.57h21.29a.56.56,0,0,0,.57-.57A.57.57,0,0,0,131.06,20.76Z"/><path class="cls-9" d="M109.77,23.85h5.38a.56.56,0,0,0,.57-.57.57.57,0,0,0-.57-.57h-5.38a.57.57,0,0,0-.57.57A.56.56,0,0,0,109.77,23.85Z"/><path class="cls-8" d="M128.24,25.23a.56.56,0,0,0-.57-.57h-17.9a.56.56,0,0,0-.57.57.57.57,0,0,0,.57.57h17.9A.57.57,0,0,0,128.24,25.23Z"/><path class="cls-10" d="M131.06,26.61h-13a.57.57,0,0,0-.57.57.58.58,0,0,0,.57.57h13a.57.57,0,0,0,.57-.57A.56.56,0,0,0,131.06,26.61Z"/><path class="cls-2" d="M138.48,20.21V13.66a.38.38,0,0,1,.38-.38h6.59a.4.4,0,0,0-.38-.33h-6.5a.39.39,0,0,0-.38.39v6.49A.39.39,0,0,0,138.48,20.21Z"/><path class="cls-12" d="M145.45,19.84a.38.38,0,0,1-.38.38h-6.59a.39.39,0,0,0,.38.33h6.5a.38.38,0,0,0,.38-.38v-6.5a.39.39,0,0,0-.29-.37v6.55Z"/><path class="cls-12" d="M138.86,13.28a.38.38,0,0,0-.38.38v6.55h6.59a.38.38,0,0,0,.38-.38V13.29h-6.59Z"/><path class="cls-2" d="M147.17,26.63a.11.11,0,0,1,0-.05v-6.5a.38.38,0,0,1,.38-.38h6.59a.38.38,0,0,0-.38-.33h-6.49a.38.38,0,0,0-.38.38v6.5A.38.38,0,0,0,147.17,26.63Z"/><path class="cls-12" d="M147.54,19.7a.38.38,0,0,0-.38.38v6.5a.11.11,0,0,0,0,.05.38.38,0,0,0,.37.33H154a.38.38,0,0,0,.38-.38v-6.5a.38.38,0,0,0-.29-.37h-6.59Z"/><path class="cls-12" d="M163.33,59.71l-10.91,1a67.69,67.69,0,0,1,1.77,43l-2.93-1.36-.43,5.63-.43,5.63h0l-.3.64s.19-.3.53-.87l3.79-3.73,4-4-3-1.4C160.26,93.84,166.26,76.59,163.33,59.71Z"/><path class="cls-12" d="M33.79,31.15S50.87,10.9,81,5.83l.07,4,6.54-2.58L94.12,4.7H95l-1.27-.13L87.49,2.35,80.87,0l.07,4.16C66.58,4.41,44,7.05,26.69,19.5Z"/><path class="cls-12" d="M60.88,151.18l1-3.05-5.65.16-5.64.16h0l-.67-.24.92.44L55,152l4.37,3.59,1.08-3.16c10.91,3.73,28.69,7.9,45.17,3.22l-2.17-10.74A67.72,67.72,0,0,1,60.88,151.18Z"/><path class="cls-12" d="M11.69,107.82l6.77-3.46A47,47,0,0,1,6.37,77.1l2.23.13L7.45,73.49,6.29,69.75h0l0-.49s0,.25-.12.7L4.71,73.33,3.13,76.91l2.31.14C5,85,5.5,97.68,11.69,107.82Z"/></g></g></svg>