<svg xmlns="http://www.w3.org/2000/svg" viewBox="0 0 246.81 176.47"><defs><style>.cls-1{fill:#2b296f;}.cls-2{fill:#6455a4;}.cls-3{fill:#76bf6b;}.cls-4{fill:#32ace2;}.cls-5{fill:#ef4968;}.cls-6{fill:#28c3ec;}.cls-7{fill:#f3cb52;}.cls-8{fill:#ebedf1;}.cls-9{fill:#afafd8;}</style></defs><g id="Layer_2" data-name="Layer 2"><g id="Layer_1-2" data-name="Layer 1"><path class="cls-1" d="M0,0V176.47H121.45V0ZM9.46,29H95.12a2.77,2.77,0,0,1,0,5.54H9.46a2.77,2.77,0,1,1,0-5.54ZM6.69,22.26a2.77,2.77,0,0,1,2.77-2.77H51A2.77,2.77,0,1,1,51,25H9.46A2.77,2.77,0,0,1,6.69,22.26ZM9.46,38.41h5.07a2.77,2.77,0,1,1,0,5.53H9.46a2.77,2.77,0,1,1,0-5.53ZM6.69,50.63a2.77,2.77,0,0,1,2.77-2.76H76.05a2.77,2.77,0,0,1,2.77,2.76h0a2.77,2.77,0,0,1-2.77,2.77H9.46a2.77,2.77,0,0,1-2.77-2.77Zm0,9.46a2.77,2.77,0,0,1,2.77-2.77h92.12a2.76,2.76,0,0,1,2.76,2.77h0a2.76,2.76,0,0,1-2.76,2.77H9.46a2.77,2.77,0,0,1-2.77-2.77Zm0,28.38A2.77,2.77,0,0,1,9.46,85.7H96.35a2.77,2.77,0,1,1,0,5.53H9.46A2.77,2.77,0,0,1,6.69,88.47Zm0-9.46a2.77,2.77,0,0,1,2.77-2.77H35.6a2.77,2.77,0,0,1,0,5.54H9.46A2.77,2.77,0,0,1,6.69,79ZM115.57,97.92a2.77,2.77,0,0,1-2.77,2.77H49.9a2.77,2.77,0,0,1-2.76-2.77h0a2.77,2.77,0,0,1,2.76-2.76h62.9a2.77,2.77,0,0,1,2.77,2.76Zm-2.77-25.6H9.46a2.77,2.77,0,0,1,0-5.54H112.8a2.77,2.77,0,0,1,0,5.54Zm2.77-59.52a2.77,2.77,0,0,1-2.77,2.77H9.46A2.77,2.77,0,0,1,6.69,12.8h0A2.77,2.77,0,0,1,9.46,10H112.8a2.77,2.77,0,0,1,2.77,2.77Z"/><path class="cls-1" d="M124.22,0V176.47H246.81V0ZM184,63.86a1.85,1.85,0,0,1-1.85,1.85H150.63a1.84,1.84,0,0,1-1.82-1.6,1.84,1.84,0,0,1-1.41-1.79V30.8A1.85,1.85,0,0,1,149.25,29h31.53a1.83,1.83,0,0,1,1.82,1.59A1.85,1.85,0,0,1,184,32.33ZM226.14,95a1.84,1.84,0,0,1-1.84,1.85H192.77a1.84,1.84,0,0,1-1.82-1.6,1.84,1.84,0,0,1-1.41-1.79V61.94a1.85,1.85,0,0,1,1.85-1.85h31.52a1.85,1.85,0,0,1,1.83,1.6,1.83,1.83,0,0,1,1.4,1.79Z"/><polygon class="cls-2" points="123.97 0 122.84 0 121.45 0 121.45 176.47 122.84 176.47 123.97 176.47 124.22 176.47 124.22 0 123.97 0"/><rect class="cls-3" x="6.69" y="10.03" width="108.88" height="5.54" rx="2.77"/><path class="cls-4" d="M9.46,25H51a2.77,2.77,0,1,0,0-5.54H9.46a2.77,2.77,0,0,0,0,5.54Z"/><path class="cls-5" d="M9.46,34.49H95.12a2.77,2.77,0,0,0,0-5.54H9.46a2.77,2.77,0,1,0,0,5.54Z"/><path class="cls-4" d="M9.46,43.94h5.07a2.77,2.77,0,1,0,0-5.53H9.46a2.77,2.77,0,1,0,0,5.53Z"/><rect class="cls-6" x="6.69" y="47.87" width="72.13" height="5.54" rx="2.77"/><rect class="cls-3" x="6.69" y="57.32" width="97.65" height="5.54" rx="2.77"/><path class="cls-7" d="M112.8,66.78H9.46a2.77,2.77,0,0,0,0,5.54H112.8a2.77,2.77,0,0,0,0-5.54Z"/><path class="cls-5" d="M9.46,81.78H35.6a2.77,2.77,0,0,0,0-5.54H9.46a2.77,2.77,0,0,0,0,5.54Z"/><path class="cls-4" d="M99.12,88.47a2.77,2.77,0,0,0-2.77-2.77H9.46a2.77,2.77,0,1,0,0,5.53H96.35A2.77,2.77,0,0,0,99.12,88.47Z"/><rect class="cls-6" x="47.14" y="95.16" width="68.44" height="5.54" rx="2.77"/><path class="cls-8" d="M148.79,32.33a1.84,1.84,0,0,1,1.84-1.84h31.53a2.12,2.12,0,0,1,.44.05A1.83,1.83,0,0,0,180.78,29H149.25a1.85,1.85,0,0,0-1.85,1.85V62.32a1.84,1.84,0,0,0,1.41,1.79,2,2,0,0,1,0-.25Z"/><path class="cls-9" d="M182.6,30.54a2.28,2.28,0,0,1,0,.26V62.32a1.84,1.84,0,0,1-1.84,1.85H149.25a1.61,1.61,0,0,1-.44-.06,1.84,1.84,0,0,0,1.82,1.6h31.53A1.85,1.85,0,0,0,184,63.86V32.33A1.85,1.85,0,0,0,182.6,30.54Z"/><path class="cls-9" d="M180.78,64.17a1.84,1.84,0,0,0,1.84-1.85V30.8a2.28,2.28,0,0,0,0-.26,2.12,2.12,0,0,0-.44-.05H150.63a1.84,1.84,0,0,0-1.84,1.84V63.86a2,2,0,0,0,0,.25,1.61,1.61,0,0,0,.44.06Z"/><path class="cls-8" d="M190.93,63.48a1.84,1.84,0,0,1,1.84-1.85H224.3a1.61,1.61,0,0,1,.44.06,1.85,1.85,0,0,0-1.83-1.6H191.39a1.85,1.85,0,0,0-1.85,1.85V93.46A1.84,1.84,0,0,0,191,95.25a1,1,0,0,1,0-.25Z"/><path class="cls-9" d="M224.74,61.69a1.61,1.61,0,0,0-.44-.06H192.77a1.84,1.84,0,0,0-1.84,1.85V95a1,1,0,0,0,0,.25,1.84,1.84,0,0,0,1.82,1.6H224.3A1.84,1.84,0,0,0,226.14,95V63.48A1.83,1.83,0,0,0,224.74,61.69Z"/></g></g></svg>