<svg id="Layer_1" data-name="Layer 1" xmlns="http://www.w3.org/2000/svg" viewBox="0 0 677.65 835.76"><defs><style>.cls-1{fill:#2b296f;}.cls-2{fill:#ecedf2;}</style></defs><path class="cls-1" d="M621.89,268.69H404.81a9.63,9.63,0,0,1-9.6-9.6V51.92s.15-8.72-8.44-8.72H76.24A15.93,15.93,0,0,0,60.36,59.08V748.34a15.93,15.93,0,0,0,15.88,15.88h538.9A15.93,15.93,0,0,0,631,748.34V278.21S631,268.69,621.89,268.69Zm-381,437.49h-23.8V664h-46.7v42.16h-23.8V603.36h23.8V643.9h46.7V603.36h23.8Zm102.37-83.43h-32.9v83.43H286.53V622.75h-32.9V603.36h89.59Zm106.34,83.43-.14-61.69-30.26,50.82H408.44l-30.11-49.5v60.37H356V603.36h19.68l38.49,63.9,37.89-63.9H471.6l.29,102.82Zm122.06,0H496.27V603.36h23.79v83.43h51.56Z"/><path class="cls-1" d="M438.17,238.36h186.2c6.72,0,8.24-3.83,3.37-8.52l-192.95-184c-4.86-4.69-8.84-3-8.84,3.83V226A12.32,12.32,0,0,0,438.17,238.36Z"/><polygon class="cls-2" points="217.05 643.9 170.34 643.9 170.34 603.36 146.55 603.36 146.55 706.18 170.34 706.18 170.34 664.02 217.05 664.02 217.05 706.18 240.85 706.18 240.85 603.36 217.05 603.36 217.05 643.9"/><polygon class="cls-2" points="253.63 622.75 286.53 622.75 286.53 706.18 310.32 706.18 310.32 622.75 343.22 622.75 343.22 603.36 253.63 603.36 253.63 622.75"/><polygon class="cls-2" points="452.06 603.36 414.17 667.26 375.68 603.36 356 603.36 356 706.18 378.33 706.18 378.33 645.81 408.44 695.31 419.16 695.31 449.42 644.49 449.56 706.18 471.89 706.18 471.6 603.36 452.06 603.36"/><polygon class="cls-2" points="520.06 603.36 496.27 603.36 496.27 706.18 571.62 706.18 571.62 686.79 520.06 686.79 520.06 603.36"/></svg>