<?xml version="1.0" encoding="utf-8"?>
<!-- Generator: Adobe Illustrator 26.0.3, SVG Export Plug-In . SVG Version: 6.00 Build 0)  -->
<svg version="1.1" id="Layer_1" xmlns="http://www.w3.org/2000/svg" xmlns:xlink="http://www.w3.org/1999/xlink" x="0px" y="0px"
	 viewBox="0 0 677.7 835.8" style="enable-background:new 0 0 677.7 835.8;" xml:space="preserve">
<style type="text/css">
	.st0{fill:#EBEDF2;}
	.st1{fill:#2B296F;}
</style>
<path class="st0" d="M621.9,268.7H404.8c-5.3,0-9.6-4.3-9.6-9.6V51.9c0,0,0.1-8.7-8.4-8.7H76.2c-8.8,0-15.9,7.1-15.9,15.9v689.3
	c0,8.8,7.1,15.9,15.9,15.9h538.9c8.8,0,15.8-7.1,15.9-15.9V278.2C631,278.2,631,268.7,621.9,268.7z M240.9,706.2h-23.8V664h-46.7
	v42.2h-23.8V603.4h23.8v40.5h46.7v-40.5h23.8V706.2z M343.3,622.8h-32.9v83.4h-23.8v-83.4h-32.9v-19.4h89.6L343.3,622.8z
	 M449.6,706.2l-0.1-61.7l-30.3,50.8h-10.8l-30.1-49.5v60.4H356V603.4h19.7l38.5,63.9l37.9-63.9h19.5l0.3,102.8H449.6z M571.7,706.2
	h-75.4V603.4h23.8v83.4h51.6L571.7,706.2z"/>
<path class="st0" d="M438.2,238.4h186.2c6.7,0,8.2-3.8,3.4-8.5l-193-184c-4.9-4.7-8.8-3-8.8,3.8V226
	C425.9,232.8,431.4,238.3,438.2,238.4z"/>
<polygon class="st1" points="217.1,643.9 170.3,643.9 170.3,603.4 146.6,603.4 146.6,706.2 170.3,706.2 170.3,664 217.1,664 
	217.1,706.2 240.9,706.2 240.9,603.4 217.1,603.4 "/>
<polygon class="st1" points="253.6,622.8 286.5,622.8 286.5,706.2 310.3,706.2 310.3,622.8 343.2,622.8 343.2,603.4 253.6,603.4 "/>
<polygon class="st1" points="452.1,603.4 414.2,667.3 375.7,603.4 356,603.4 356,706.2 378.3,706.2 378.3,645.8 408.4,695.3 
	419.2,695.3 449.4,644.5 449.6,706.2 471.9,706.2 471.6,603.4 "/>
<polygon class="st1" points="520.1,603.4 496.3,603.4 496.3,706.2 571.6,706.2 571.6,686.8 520.1,686.8 "/>
</svg>
