<svg id="Layer_1" data-name="Layer 1" xmlns="http://www.w3.org/2000/svg" viewBox="0 0 698.82 829.27"><defs><style>.cls-1{fill:#2b296f;}.cls-2{fill:#ecedf2;}</style></defs><polygon class="cls-1" points="257.27 677.94 289.88 677.94 273.58 638.58 257.27 677.94"/><path class="cls-1" d="M606.05,280.56H389a9.63,9.63,0,0,1-9.6-9.6V63.78s.15-8.72-8.44-8.72H60.41A15.93,15.93,0,0,0,44.53,70.94V760.21a15.93,15.93,0,0,0,15.88,15.88h538.9a15.93,15.93,0,0,0,15.88-15.88V290.07S615.2,280.56,606.05,280.56ZM208.36,681.91c0,25.41-12.78,37.89-37,37.89-13.81,0-26-5.29-33.49-15L151.08,689c5.58,7.49,11.75,11.31,19.09,11.31,9.55,0,14.55-5.73,14.55-17V634.32H148.58v-19.1h59.78ZM306.48,718l-9.11-22H249.63l-9.1,22H216.15L262,615.22h23.5l46,102.82Zm60.95,0L323.07,615.22h25.71l31.28,73.44,31.73-73.44h23.65L390.93,718Zm150,0-9.1-22H460.55l-9.11,22H427.06l45.83-102.82h23.5l46,102.82Z"/><polygon class="cls-1" points="468.19 677.94 500.8 677.94 484.49 638.58 468.19 677.94"/><path class="cls-1" d="M422.34,250.22h186.2c6.72,0,8.24-3.83,3.37-8.51L419,57.7c-4.86-4.69-8.85-3-8.85,3.83V237.87A12.33,12.33,0,0,0,422.34,250.22Z"/><path class="cls-2" d="M148.58,634.32h36.14v48.91c0,11.31-5,17-14.55,17-7.34,0-13.51-3.82-19.09-11.31l-13.22,15.86c7.49,9.69,19.68,15,33.49,15,24.23,0,37-12.48,37-37.89V615.22H148.58Z"/><path class="cls-2" d="M262,615.22,216.15,718h24.38l9.1-22h47.74l9.11,22h25l-46-102.82Zm-4.7,62.72,16.31-39.36,16.3,39.36Z"/><polygon class="cls-2" points="411.79 615.22 380.06 688.66 348.78 615.22 323.07 615.22 367.43 718.04 390.93 718.04 435.44 615.22 411.79 615.22"/><path class="cls-2" d="M472.89,615.22,427.06,718h24.38l9.11-22h47.74l9.1,22h25l-46-102.82Zm-4.7,62.72,16.3-39.36,16.31,39.36Z"/></svg>