<?xml version="1.0" encoding="utf-8"?>
<!-- Generator: Adobe Illustrator 26.0.3, SVG Export Plug-In . SVG Version: 6.00 Build 0)  -->
<svg version="1.1" id="Layer_1" xmlns="http://www.w3.org/2000/svg" xmlns:xlink="http://www.w3.org/1999/xlink" x="0px" y="0px"
	 viewBox="0 0 698.8 829.3" style="enable-background:new 0 0 698.8 829.3;" xml:space="preserve">
<style type="text/css">
	.st0{fill:#EBEDF2;}
	.st1{fill:#2B296F;}
</style>
<polygon class="st0" points="257.3,677.9 289.9,677.9 273.6,638.6 "/>
<path class="st0" d="M606,280.6H389c-5.3,0-9.6-4.3-9.6-9.6V63.8c0,0,0.1-8.7-8.4-8.7H60.4c-8.8,0-15.9,7.1-15.9,15.9v689.3
	c0,8.8,7.1,15.9,15.9,15.9h538.9c8.8,0,15.9-7.1,15.9-15.9V290.1C615.2,290.1,615.2,280.6,606,280.6z M208.4,681.9
	c0,25.4-12.8,37.9-37,37.9c-13.8,0-26-5.3-33.5-15l13.2-15.8c5.6,7.5,11.8,11.3,19.1,11.3c9.6,0,14.6-5.7,14.6-17v-49h-36.1v-19.1
	h59.8V681.9z M306.5,718l-9.1-22h-47.7l-9.1,22h-24.4L262,615.2h23.5l46,102.8L306.5,718z M367.4,718l-44.4-102.8h25.7l31.3,73.4
	l31.7-73.4h23.6L390.9,718H367.4z M517.4,718l-9.1-22h-47.8l-9.1,22h-24.4l45.8-102.8h23.5l46,102.8H517.4z"/>
<polygon class="st0" points="468.2,677.9 500.8,677.9 484.5,638.6 "/>
<path class="st0" d="M422.3,250.2h186.2c6.7,0,8.2-3.8,3.4-8.5L419,57.7c-4.9-4.7-8.9-3-8.9,3.8v176.3
	C410.1,244.6,415.6,250.1,422.3,250.2z"/>
<path class="st1" d="M148.6,634.3h36.1v48.9c0,11.3-5,17-14.6,17c-7.3,0-13.5-3.8-19.1-11.3l-13.2,15.9c7.5,9.7,19.7,15,33.5,15
	c24.2,0,37-12.5,37-37.9v-66.7h-59.8V634.3z"/>
<path class="st1" d="M262,615.2L216.1,718h24.4l9.1-22h47.7l9.1,22h25l-46-102.8L262,615.2z M257.3,677.9l16.3-39.4l16.3,39.4H257.3
	z"/>
<polygon class="st1" points="411.8,615.2 380.1,688.7 348.8,615.2 323.1,615.2 367.4,718 390.9,718 435.4,615.2 "/>
<path class="st1" d="M472.9,615.2L427.1,718h24.4l9.1-22h47.7l9.1,22h25l-46-102.8L472.9,615.2z M468.2,677.9l16.3-39.4l16.3,39.4
	H468.2z"/>
</svg>
