<svg xmlns="http://www.w3.org/2000/svg" viewBox="0 0 86.68 203.95"><defs><style>.cls-1{fill:none;}.cls-2{fill:#5157a6;}.cls-3{fill:#2b296f;}</style></defs><g id="Layer_2" data-name="Layer 2"><g id="Layer_1-2" data-name="Layer 1"><rect class="cls-1" x="9.47" y="55.63" width="67.74" height="25.49"/><rect class="cls-1" x="9.47" y="23.83" width="67.74" height="25.49"/><rect class="cls-1" x="9.47" y="87.44" width="67.74" height="25.49"/><rect class="cls-1" x="9.47" y="151.05" width="67.74" height="25.49"/><rect class="cls-1" x="9.47" y="119.25" width="67.74" height="25.49"/><rect class="cls-2" x="9.47" y="17.51" width="67.74" height="6.31"/><rect class="cls-2" x="9.47" y="49.32" width="67.74" height="6.31"/><rect class="cls-2" x="9.47" y="81.13" width="67.74" height="6.31"/><rect class="cls-2" x="9.47" y="112.93" width="67.74" height="6.31"/><rect class="cls-2" x="9.47" y="144.74" width="67.74" height="6.31"/><rect class="cls-2" x="9.47" y="176.55" width="67.74" height="6.31"/><path class="cls-3" d="M4.73,176.55H9.47v-25.5H4.73v-6.31H9.47V119.25H4.73v-6.32H9.47V87.44H4.73V81.13H9.47V55.63H4.73V49.32H9.47V23.83H4.73V17.51H9.47V4.73A4.74,4.74,0,0,0,0,4.73V199.22a4.74,4.74,0,0,0,9.47,0V182.86H4.73Z"/><rect class="cls-3" x="4.73" y="17.51" width="4.73" height="6.31"/><rect class="cls-3" x="4.73" y="49.32" width="4.73" height="6.31"/><rect class="cls-3" x="4.73" y="81.13" width="4.73" height="6.31"/><rect class="cls-3" x="4.73" y="112.93" width="4.73" height="6.31"/><rect class="cls-3" x="4.73" y="144.74" width="4.73" height="6.31"/><rect class="cls-3" x="4.73" y="176.55" width="4.73" height="6.31"/><path class="cls-3" d="M82,0a4.74,4.74,0,0,0-4.74,4.73V17.51h3.28v6.32H77.21V49.32h3.28v6.31H77.21v25.5h3.28v6.31H77.21v25.49h3.28v6.32H77.21v25.49h3.28v6.31H77.21v25.5h3.28v6.31H77.21v16.36a4.74,4.74,0,0,0,9.47,0V4.73A4.73,4.73,0,0,0,82,0Z"/><rect class="cls-3" x="77.21" y="17.51" width="3.28" height="6.31"/><rect class="cls-3" x="77.21" y="49.32" width="3.28" height="6.31"/><rect class="cls-3" x="77.21" y="81.13" width="3.28" height="6.31"/><rect class="cls-3" x="77.21" y="112.93" width="3.28" height="6.31"/><rect class="cls-3" x="77.21" y="144.74" width="3.28" height="6.31"/><rect class="cls-3" x="77.21" y="176.55" width="3.28" height="6.31"/></g></g></svg>