<svg id="Layer_1" data-name="Layer 1" xmlns="http://www.w3.org/2000/svg" viewBox="0 0 1175.79 547.02"><defs><style>.cls-1{fill:#2b296f;}.cls-2{fill:none;stroke:#6455a4;stroke-miterlimit:10;stroke-width:5px;}.cls-3{fill:#6455a4;}</style></defs><path class="cls-1" d="M559.15,222c0-25.86,22.66-47.58,49.46-47.58a50.48,50.48,0,0,1,36.59,15.82l-16.75,14.88a25.66,25.66,0,0,0-19.84-9.92c-14.07,0-26,12.33-26,26.8s11.93,26.94,26,26.94c7.91,0,15-3.88,20-9.91l16.62,14.74a50.1,50.1,0,0,1-36.59,15.95C581.81,269.76,559.15,247.91,559.15,222Z"/><path class="cls-1" d="M652.1,222c0-25.86,22.65-47.58,49.46-47.58s49.59,21.72,49.59,47.58-22.65,47.72-49.59,47.72S652.1,247.91,652.1,222Zm75.46,0c0-14.47-11.93-26.8-26-26.8s-26,12.33-26,26.8,11.93,26.94,26,26.94S727.56,236.65,727.56,222Z"/><path class="cls-1" d="M765,176.07h33.64c31.63,0,53.88,19,53.88,46s-22.25,46.11-53.88,46.11H765Zm37.13,71.31c15.68,0,26.94-10.59,26.94-25.34s-11.26-25.19-26.94-25.19H787.87v50.53Z"/><path class="cls-1" d="M889.33,196.58v14.34h45v20.51h-45v16.21h49.59v20.51H866.41V176.07h72.51v20.51Z"/><path class="cls-1" d="M564,275.07h33.64c31.63,0,53.88,19,53.88,46s-22.25,46.11-53.88,46.11H564Zm37.13,71.31c15.68,0,26.94-10.59,26.94-25.34s-11.26-25.19-26.94-25.19H587v50.53Z"/><path class="cls-1" d="M719.59,353.75H683.13l-5.36,13.4H652l36.45-92.08h25.74l36.45,92.08H725Zm-7.1-18-11.13-28.28-11.12,28.28Z"/><path class="cls-1" d="M764.6,275.07h48.12c17,0,28.82,9.78,28.82,23.19a22.2,22.2,0,0,1-12.74,20.51c10.59,4.69,16.89,13.4,16.89,23.45,0,14.74-13,24.93-31.23,24.93H764.6Zm42.49,36.46c6.3,0,10.86-3.62,10.86-8.58s-4.56-8.45-10.86-8.45h-19.7v17Zm3.49,36.19c6.7,0,11.52-3.89,11.52-9.25s-4.82-9.25-11.52-9.25H787.39v18.5Z"/><path class="cls-1" d="M866.09,275.07h48.12c17,0,28.82,9.78,28.82,23.19a22.21,22.21,0,0,1-12.73,20.51c10.58,4.69,16.88,13.4,16.88,23.45,0,14.74-13,24.93-31.23,24.93H866.09Zm42.49,36.46c6.3,0,10.86-3.62,10.86-8.58s-4.56-8.45-10.86-8.45h-19.7v17Zm3.49,36.19c6.7,0,11.52-3.89,11.52-9.25s-4.82-9.25-11.52-9.25H888.88v18.5Z"/><path class="cls-1" d="M1028.06,346.64v20.51H960.91V275.07H983.7v71.57Z"/><path class="cls-1" d="M1063,295.58v14.34h45v20.51h-45v16.21h49.6v20.51h-72.52V275.07h72.52v20.51Z"/><rect class="cls-1" x="73.74" y="350.52" width="35.9" height="9.88"/><rect class="cls-1" x="73.74" y="308.02" width="35.9" height="9.88"/><rect class="cls-1" x="73.74" y="265.52" width="35.9" height="9.88"/><rect class="cls-1" x="73.74" y="223.02" width="35.9" height="9.88"/><rect class="cls-1" x="73.74" y="180.52" width="35.9" height="9.88"/><rect class="cls-1" x="494.03" y="351.14" width="36" height="9.88"/><rect class="cls-1" x="494.03" y="308.64" width="36" height="9.88"/><rect class="cls-1" x="494.03" y="266.15" width="36" height="9.88"/><rect class="cls-1" x="494.03" y="223.65" width="36" height="9.88"/><rect class="cls-1" x="494.03" y="181.15" width="36" height="9.88"/><rect class="cls-1" x="210.85" y="44.11" width="9.88" height="36"/><rect class="cls-1" x="253.35" y="44.11" width="9.88" height="36"/><rect class="cls-1" x="295.84" y="44.11" width="9.88" height="36"/><rect class="cls-1" x="338.34" y="44.11" width="9.88" height="36"/><rect class="cls-1" x="380.84" y="44.11" width="9.88" height="36"/><rect class="cls-1" x="211.85" y="463.07" width="9.88" height="36"/><rect class="cls-1" x="254.35" y="463.07" width="9.88" height="36"/><rect class="cls-1" x="296.84" y="463.07" width="9.88" height="36"/><rect class="cls-1" x="339.34" y="463.07" width="9.88" height="36"/><rect class="cls-1" x="381.84" y="463.07" width="9.88" height="36"/><path class="cls-2" d="M408.32,81.42H195.25A85.61,85.61,0,0,0,109.64,167v14.48h.1v9.89h-.1V224h.1v9.88h-.1v32.62h.1v9.88h-.1V309h.1v9.88h-.1v32.62h.1v9.88h-.1v14.37a85.61,85.61,0,0,0,85.61,85.61H408.32a85.61,85.61,0,0,0,85.61-85.61V167A85.61,85.61,0,0,0,408.32,81.42Z"/><path class="cls-3" d="M205.9,300A25.77,25.77,0,0,0,221,295.1a24.84,24.84,0,0,0,5-4.94,30.21,30.21,0,0,0,2-2.91,35.72,35.72,0,0,1,1.82-3.26,8.37,8.37,0,0,1,3.56-2.4,11.32,11.32,0,0,1,4.51-1c1.62,0,3.73.08,4.77,1.52a9.09,9.09,0,0,1,.94,1.9,25.56,25.56,0,0,0,23.75,16,25.25,25.25,0,0,0,14.71-4.75,27,27,0,0,0,5.55-5.38c1.95-2.52,3.14-5.84,5.75-7.88s7.06-3,9.72-.58a8.94,8.94,0,0,1,1.62,2.14c2.74,4.55,5.21,9,9.76,12A26.17,26.17,0,0,0,328.79,300a25.69,25.69,0,1,0-15.28-46.34,26.42,26.42,0,0,0-5.61,5.71c-2.11,2.92-3.22,6.39-4.88,9.55-1.45,2.77-4.44,7.42-7.76,3.93-3.49-3.68-4-9.17-6.87-13.26a25.68,25.68,0,0,0-20-10.94c-.34,0-.67,0-1,0a25.68,25.68,0,0,0-23.46,15.21c-1.41,3.16-1.78,7.57-4.76,9.78a2.85,2.85,0,0,1-2.65.37c-1.68-.6-2.8-2.44-3.77-3.83a31.76,31.76,0,0,1-3.3-6.16,24.07,24.07,0,0,0-4.22-6.64l-.51-.57A25.68,25.68,0,1,0,205.9,300Z"/><path class="cls-3" d="M205.9,217.91A25.77,25.77,0,0,0,221,213a24.84,24.84,0,0,0,5-4.94,30.21,30.21,0,0,0,2-2.91,35.72,35.72,0,0,1,1.82-3.26,8.37,8.37,0,0,1,3.56-2.4,11.32,11.32,0,0,1,4.51-1c1.62,0,3.73.08,4.77,1.51a9.42,9.42,0,0,1,.94,1.91,25.56,25.56,0,0,0,23.75,16l.65,0h.49a25.93,25.93,0,1,0-11.56-49.14l-.66.29a25.86,25.86,0,0,0-8.7,6.79,25.5,25.5,0,0,0-3.68,5.92c-1.41,3.16-1.78,7.57-4.76,9.78a2.85,2.85,0,0,1-2.65.37c-1.68-.6-2.8-2.44-3.77-3.83a31.55,31.55,0,0,1-3.3-6.17,24.17,24.17,0,0,0-4.22-6.63l-.51-.57a25.68,25.68,0,1,0-18.78,43.21Z"/><path class="cls-3" d="M205.9,379.89A25.76,25.76,0,0,0,221,375a24.84,24.84,0,0,0,5-4.94,31.51,31.51,0,0,0,2-2.91,34.43,34.43,0,0,1,1.82-3.26,8.37,8.37,0,0,1,3.56-2.4,11.32,11.32,0,0,1,4.51-1c1.62,0,3.73.08,4.77,1.51a9.42,9.42,0,0,1,.94,1.91A25.42,25.42,0,0,0,261,379.08h0l1.16.26.41.08c.53.1,1.06.19,1.6.25l.86.1.73.06,1.36.05h.29a25.76,25.76,0,0,0,15.1-4.9,24.84,24.84,0,0,0,5-4.94,31.51,31.51,0,0,0,2-2.91c.43-.71.77-1.49,1.18-2.23a16.82,16.82,0,0,1,1.4-1.84,10.78,10.78,0,0,1,2.8-1.59,11.32,11.32,0,0,1,4.51-1,10.39,10.39,0,0,1,3,.33,4.24,4.24,0,0,1,.69.51,8.94,8.94,0,0,1,1.62,2.14l1,1.63A25.85,25.85,0,0,0,312.5,374a18.81,18.81,0,0,0,2,1.51c.45.29.91.57,1.37.84a25.68,25.68,0,0,0,8.75,3.19c.15,0,.3.07.46.09l.53.06a23.14,23.14,0,0,0,3.22.23h.27c.49,0,1,0,1.46-.06l.62-.05c.53,0,1.05-.1,1.57-.18l.38-.07c.47-.08,1-.18,1.41-.28l.37-.09a25.75,25.75,0,0,0,16.95-13.57,13.55,13.55,0,0,1,3.08-3.7c2.59-2,7.06-3,9.72-.58a8.94,8.94,0,0,1,1.62,2.14c2.74,4.55,5.21,9,9.76,12a26.16,26.16,0,0,0,14.33,4.41,25.68,25.68,0,1,0-15.28-46.33,26.42,26.42,0,0,0-5.61,5.71c-2.11,2.92-3.22,6.39-4.88,9.55-1.45,2.76-4.44,7.42-7.76,3.93a17.41,17.41,0,0,1-3.31-5.58,25.53,25.53,0,0,0-2.3-5.52,16.67,16.67,0,0,0-1.26-2.16,25.59,25.59,0,0,0-16.86-10.6l-.64-.1c-.3,0-.6-.09-.9-.12-.49-.05-1-.09-1.48-.11l-.16,0h-1.31c-.49,0-1,0-1.45.06l-.84.07-.78.1a25.27,25.27,0,0,0-3.66.75h-.06a25.61,25.61,0,0,0-8.28,4,26.42,26.42,0,0,0-5.61,5.71c-2.11,2.92-3.22,6.39-4.88,9.55-1,1.9-2.72,4.69-4.77,5.12l-.23-.05c-1.68-.61-2.8-2.44-3.77-3.83a31.55,31.55,0,0,1-3.3-6.17,24,24,0,0,0-4.22-6.63l-.51-.57a25.83,25.83,0,0,0-9.41-6.4,25.42,25.42,0,0,0-6.06-1.53l-.53-.07c-.38,0-.76-.06-1.14-.09s-.49-.05-.73-.06h-1l-1,0h-.29a25.68,25.68,0,0,0-22.22,15.18c-1.41,3.16-1.78,7.57-4.76,9.78a2.88,2.88,0,0,1-2.65.37c-1.68-.61-2.8-2.44-3.77-3.83a31.55,31.55,0,0,1-3.3-6.17,24,24,0,0,0-4.22-6.63l-.51-.57a25.68,25.68,0,1,0-18.78,43.2Z"/><rect x="109.64" y="350.52" width="0.1" height="9.88"/><rect x="109.64" y="308.02" width="0.1" height="9.88"/><rect x="109.64" y="265.52" width="0.1" height="9.88"/><rect x="109.64" y="223.02" width="0.1" height="9.88"/><rect x="109.64" y="180.52" width="0.1" height="9.88"/></svg>