<svg id="Layer_1" data-name="Layer 1" xmlns="http://www.w3.org/2000/svg" viewBox="0 0 512 512"><defs><style>.cls-1{fill:#231773;}.cls-2{fill:#ebedf2;}</style></defs><path class="cls-1" d="M360.8,342.57v87h20.72V445.3a231,231,0,0,0,51.24-48.58l-.73-1A160.73,160.73,0,0,0,360.8,342.57Z"/><path class="cls-1" d="M360.8,443.09v13.82H319.66V382a110.3,110.3,0,0,1-63,19.64A109.15,109.15,0,0,1,195,382.57v74.34H153.82V443.09H147v18.35a228.67,228.67,0,0,0,48.59,18v-8.39H319.33v4.64A228.76,228.76,0,0,0,368,454V443.09Zm-48.21,0H202V429.6H312.59Z"/><path class="cls-1" d="M132.16,222.13a14,14,0,0,0,14,14h.76v-28h-.76A14,14,0,0,0,132.16,222.13Z"/><path class="cls-1" d="M381.25,222.13a14,14,0,0,0-13.54-14v27.92A14,14,0,0,0,381.25,222.13Z"/><path class="cls-1" d="M153.13,328.26a109.33,109.33,0,0,1-6.22-36.42V249.61h-.77a27,27,0,0,1-6.46-.78v7.85h-13.5V242.86h2a27.46,27.46,0,0,1,18-48.2h.76V159.94a110.4,110.4,0,0,1,220.8,0v34.72a27.44,27.44,0,0,1,17.55,48.19h3.17v13.82H374.94V248.5a27.42,27.42,0,0,1-7.23,1.1v41a110.69,110.69,0,0,1-6.6,37.71,174.21,174.21,0,0,1,79.92,57A229.06,229.06,0,0,0,480.81,256c0-127.08-103-230.11-230.11-230.11S20.59,128.92,20.59,256a229.09,229.09,0,0,0,46,138q2.23-3.25,4.63-6.44A174.25,174.25,0,0,1,153.13,328.26Z"/><path class="cls-1" d="M250.7,486.11a231.87,231.87,0,0,0,26.77-1.56H223.93A231.87,231.87,0,0,0,250.7,486.11Z"/><path class="cls-1" d="M333.16,371v72.38H347.3V354.7A112.28,112.28,0,0,1,333.16,371Z"/><path class="cls-1" d="M167.32,355.52v87.89h14.14v-71.7A110.66,110.66,0,0,1,167.32,355.52Z"/><path class="cls-1" d="M153.82,429.59V342.35A160.59,160.59,0,0,0,82,395.74c-2.31,3-4.49,6.16-6.55,9.33a231,231,0,0,0,58,49V429.59Z"/><path class="cls-1" d="M250.24,346.35v41.56c2.14.14,4.29.22,6.47.22q3.87,0,7.67-.3V346.35Z"/><path class="cls-1" d="M257.31,63a97,97,0,0,0-96.9,96.9v131.9a96.46,96.46,0,0,0,76.33,94.21v-39.7h-7.07V332.86H285v13.49h-7.07v39.46a97.65,97.65,0,0,0,76.33-95.18h0V159.94A97,97,0,0,0,257.31,63ZM222,249.78H208.5V208.31H222Zm7.67-83.09H195.12v-13.5h34.55Zm-26.38-37.92L191.61,122A75.77,75.77,0,0,1,224.2,91.69l5.9,12.13A62.42,62.42,0,0,0,203.29,128.77ZM256.7,304.89a20.59,20.59,0,0,1-20.56-20.57h13.49a7.08,7.08,0,0,0,14.15,0h13.49A20.59,20.59,0,0,1,256.7,304.89Zm48.21-55.11H291.42V208.31h13.49Zm14.59-83.09H285v-13.5H319.5Z"/><rect class="cls-2" x="208.5" y="208.31" width="13.49" height="41.46"/><rect class="cls-2" x="291.42" y="208.31" width="13.49" height="41.46"/><path class="cls-2" d="M256.7,291.39a7.08,7.08,0,0,1-7.07-7.07H236.14a20.57,20.57,0,1,0,41.13,0H263.78A7.08,7.08,0,0,1,256.7,291.39Z"/><rect class="cls-2" x="195.12" y="153.19" width="34.55" height="13.49"/><rect class="cls-2" x="284.95" y="153.19" width="34.55" height="13.49"/><path class="cls-2" d="M191.61,122l11.68,6.75a62.42,62.42,0,0,1,26.81-25l-5.9-12.13A75.77,75.77,0,0,0,191.61,122Z"/><path class="cls-2" d="M361.11,328.34a110.69,110.69,0,0,0,6.6-37.71v-41a27.42,27.42,0,0,0,7.23-1.1v8.18h13.49V242.86h-3.17a27.44,27.44,0,0,0-17.55-48.19V160a110.4,110.4,0,0,0-220.8,0v34.72h-.76a27.46,27.46,0,0,0-18,48.2h-2v13.82h13.5v-7.85a27,27,0,0,0,6.46.78h.77v42.23a109.33,109.33,0,0,0,6.22,36.42,174.25,174.25,0,0,0-81.92,59.33q-2.4,3.18-4.63,6.44,4.24,5.66,8.85,11c2.06-3.17,4.24-6.29,6.55-9.33a160.59,160.59,0,0,1,71.84-53.39v87.24H133.48V454q6.61,3.93,13.49,7.41V443.09h6.85v13.82H195V382.57a109.15,109.15,0,0,0,61.75,19.06,110.3,110.3,0,0,0,63-19.64v74.92H360.8V443.09H368V454q6.9-4.11,13.49-8.67V429.59H360.8v-87A160.73,160.73,0,0,1,432,395.73l.73,1q4.31-5.57,8.27-11.37A174.21,174.21,0,0,0,361.11,328.34Zm6.6-120.17a14,14,0,0,1,0,27.92Zm-220.8,28h-.76a14,14,0,1,1,0-28h.76Zm34.55,207.29H167.32V355.52a110.66,110.66,0,0,0,14.14,16.19Zm82.92-55.58q-3.79.3-7.67.3c-2.18,0-4.33-.08-6.47-.22V346.35h14.14v41.48Zm82.92,55.58H333.16V371A112.28,112.28,0,0,0,347.3,354.7Zm6.91-152.78h0a97.65,97.65,0,0,1-76.33,95.18V346.35H285V332.86H229.67v13.49h7.07v39.7a96.46,96.46,0,0,1-76.33-94.21V159.94a96.9,96.9,0,1,1,193.8,0Z"/><rect class="cls-1" x="202.03" y="429.6" width="110.56" height="13.49"/><path class="cls-1" d="M195.56,471.05v8.39a230.19,230.19,0,0,0,28.37,5.11h53.54a228.23,228.23,0,0,0,41.86-8.86v-4.64Z"/></svg>