<?xml version="1.0" encoding="utf-8"?>
<!-- Generator: Adobe Illustrator 26.0.3, SVG Export Plug-In . SVG Version: 6.00 Build 0)  -->
<svg version="1.1" id="Layer_1" xmlns="http://www.w3.org/2000/svg" xmlns:xlink="http://www.w3.org/1999/xlink" x="0px" y="0px"
	 viewBox="0 0 122.9 118.7" style="enable-background:new 0 0 122.9 118.7;" xml:space="preserve">
<style type="text/css">
	.st0{fill:#949494;}
</style>
<g>
	<path class="st0" d="M106.2,22.2c1.8,2.2,3.4,4.5,5.1,7.5c6,10.6,8.5,22.7,7.5,34.5c-1,11.5-5.4,22.8-13.4,32.3
		c-2.8,3.4-5.9,6.4-9.1,9c-11.1,8.9-24.3,13.3-37.4,13.2c-13.1-0.1-26.2-4.8-37.1-14c-3.2-2.7-6.2-5.7-8.9-9.1
		c-6.4-8-10.5-17.3-12.1-27.1c-1.5-9.7-0.6-19.8,3.1-29.7c3.5-9.4,8.8-17.7,15.8-24.2c6.5-6.3,14.6-10.8,24-13.1
		c2.9-0.7,5.9-1.2,9-1.4s6.2-0.1,9.4,0.2c2,0.2,3.5,2,3.2,4s-2,3.5-4,3.2c-2.8-0.3-5.5-0.4-8.1-0.2S47.9,8,45.4,8.6
		c-8.1,2-15.1,5.9-20.8,11.3c-6.2,5.7-10.9,13.1-14,21.4c-3.2,8.6-4,17.5-2.7,26c1.4,8.6,5,16.7,10.6,23.7c2.5,3.1,5.1,5.8,7.9,8.1
		c9.6,8.1,21,12.2,32.5,12.3s23-3.8,32.8-11.6c2.9-2.3,5.6-5,8.1-8c6.9-8.2,10.8-18.1,11.7-28.2c0.9-10.4-1.3-21-6.6-30.3
		c-1.6-2.8-3.2-5.1-5-7.2l-0.5,14.7c-0.1,2-1.8,3.6-3.8,3.5s-3.6-1.8-3.5-3.8L92.9,17c0.1-2,1.8-3.6,3.8-3.5c0.1,0,0.2,0,0.4,0l0,0
		l22.7,3.2c2,0.3,3.4,2.1,3.1,4.1s-2.1,3.4-4.1,3.1L106.2,22.2L106.2,22.2z"/>
</g>
</svg>
