<?xml version="1.0" encoding="utf-8"?>
<!-- Generator: Adobe Illustrator 26.0.3, SVG Export Plug-In . SVG Version: 6.00 Build 0)  -->
<svg version="1.1" id="Capa_1" xmlns="http://www.w3.org/2000/svg" xmlns:xlink="http://www.w3.org/1999/xlink" x="0px" y="0px"
	 viewBox="0 0 330 330" style="enable-background:new 0 0 330 330;" xml:space="preserve">
<style type="text/css">
	.st0{fill:#EBEDF2;}
</style>
<g>
	<path class="st0" d="M304.3,209.4c-7.6-3.3-16.4,0.1-19.8,7.7c-20.8,47.5-67.7,78.2-119.5,78.2c-41.1,0-79.1-19.3-103.4-51
		l51.2,10.2c8.1,1.6,16-3.7,17.6-11.8c1.6-8.1-3.7-16-11.8-17.6l-84-16.7c-8.1-1.6-16,3.7-17.6,11.8l-16.7,84
		c-1.6,8.1,3.7,16,11.8,17.6c1,0.2,2,0.3,2.9,0.3c7,0,13.3-4.9,14.7-12.1l9.1-46c30,38.1,76.2,61.3,126.1,61.3
		c63.8,0,121.5-37.8,147-96.2C315.4,221.6,311.9,212.7,304.3,209.4z"/>
	<path class="st0" d="M317.9,8.1c-8.1-1.6-16,3.7-17.6,11.8l-9.1,46C261.2,27.8,214.9,4.6,165,4.6c-63.8,0-121.5,37.8-147,96.2
		c-3.3,7.6,0.1,16.4,7.7,19.8c2,0.9,4,1.3,6,1.3c5.8,0,11.3-3.4,13.8-9C66.2,65.3,113.2,34.6,165,34.6c41.1,0,79.1,19.3,103.4,51
		l-51.2-10.2c-8.1-1.6-16,3.7-17.6,11.8c-1.6,8.1,3.7,16,11.8,17.6l84,16.7c1,0.2,2,0.3,2.9,0.3c2.9,0,5.8-0.9,8.3-2.5
		c3.3-2.2,5.6-5.6,6.4-9.5l16.7-84C331.3,17.6,326.1,9.7,317.9,8.1z"/>
</g>
</svg>
