<?xml version="1.0" encoding="utf-8"?>
<!-- Generator: Adobe Illustrator 26.0.3, SVG Export Plug-In . SVG Version: 6.00 Build 0)  -->
<svg version="1.1" id="Layer_1" xmlns="http://www.w3.org/2000/svg" xmlns:xlink="http://www.w3.org/1999/xlink" x="0px" y="0px"
	 viewBox="0 0 122.6 122.9" style="enable-background:new 0 0 122.6 122.9;" xml:space="preserve">
<style type="text/css">
	.st0{fill:#EBEDF2;}
</style>
<path class="st0" d="M112.5,60.1c0.6-3,0.7-7.1,3.4-7c2.8,0.1,3.4,4.2,3.6,7c-4.7,33.7-28.8,58.9-59.7,58.8
	c-16.5,0-34.7-12.6-46.3-24.3l-1.1,20c0,3-0.6,5.8-3.5,5.8S5.5,118,5.5,115V87.5c0-2.9,2.4-5.3,5.4-5.3h27.8c3-0.1,5.8,0.7,5.9,3.7
	c0.1,3-3.3,3.6-6.3,3.7c-0.2,0,0.2,0,0,0L18,90.8c17.9,24.2,54.8,28.7,76.3,8.3C105.4,89.5,112.5,74.7,112.5,60.1L112.5,60.1z"/>
<path class="st0" d="M8,61.9c-0.6,3-0.7,7.1-3.4,7c-2.8-0.1-3.4-4.2-3.6-7C5.8,28.2,29.9,3,60.7,3C77.2,3,95.5,15.6,107,27.4l1.1-20
	c0-3,0.6-5.8,3.5-5.8c3,0,3.4,2.4,3.4,5.4v27.5c0,2.9-2.4,5.3-5.4,5.3H81.9c-3,0.1-5.8-0.7-5.9-3.7s3.3-3.6,6.3-3.7c0.2,0-0.2,0,0,0
	l20.3-1.2C84.7,7,47.7,2.5,26.3,22.8C15.2,32.4,8,47.2,8,61.9L8,61.9z"/>
</svg>
